<?xml version="1.0" encoding="utf-8"?>
<!-- Generator: Adobe Illustrator 19.1.0, SVG Export Plug-In . SVG Version: 6.00 Build 0)  -->
<svg version="1.1" baseProfile="tiny" id="Layer_1" xmlns="http://www.w3.org/2000/svg" xmlns:xlink="http://www.w3.org/1999/xlink"
	 x="0px" y="0px" viewBox="0 0 500 500" xml:space="preserve">
<g>
	<path fill="#0F6C91" d="M467.7,446.3c0,18.3-15.1,33.4-33.4,33.4H66.5c-18.3,0-33.4-15.1-33.4-33.4V112c0-18.3,15.1-33.4,33.4-33.4
		h33.4V53.5c0-23,18.8-41.8,41.8-41.8h16.7c23,0,41.8,18.8,41.8,41.8v25.1h100.3V53.5c0-23,18.8-41.8,41.8-41.8H359
		c23,0,41.8,18.8,41.8,41.8v25.1h33.4c18.3,0,33.4,15.1,33.4,33.4V446.3z M141.7,254.1v-75.2H66.5v75.2H141.7z M141.7,354.4v-83.6
		H66.5v83.6H141.7z M141.7,446.3v-75.2H66.5v75.2H141.7z M166.8,53.5c0-4.4-3.9-8.4-8.4-8.4h-16.7c-4.4,0-8.4,3.9-8.4,8.4v75.2
		c0,4.4,3.9,8.4,8.4,8.4h16.7c4.4,0,8.4-3.9,8.4-8.4V53.5z M242,254.1v-75.2h-83.6v75.2H242z M242,354.4v-83.6h-83.6v83.6H242z
		 M242,446.3v-75.2h-83.6v75.2H242z M342.3,254.1v-75.2h-83.6v75.2H342.3z M342.3,354.4v-83.6h-83.6v83.6H342.3z M342.3,446.3v-75.2
		h-83.6v75.2H342.3z M367.4,53.5c0-4.4-3.9-8.4-8.4-8.4h-16.7c-4.4,0-8.4,3.9-8.4,8.4v75.2c0,4.4,3.9,8.4,8.4,8.4H359
		c4.4,0,8.4-3.9,8.4-8.4V53.5z M434.3,254.1v-75.2H359v75.2H434.3z M434.3,354.4v-83.6H359v83.6H434.3z M434.3,446.3v-75.2H359v75.2
		H434.3z"/>
</g>
</svg>
