<?xml version="1.0" encoding="utf-8"?>
<!-- Generator: Adobe Illustrator 19.1.0, SVG Export Plug-In . SVG Version: 6.00 Build 0)  -->
<svg version="1.1" baseProfile="tiny" id="Layer_1" xmlns="http://www.w3.org/2000/svg" xmlns:xlink="http://www.w3.org/1999/xlink"
	 x="0px" y="0px" viewBox="0 0 500 500" xml:space="preserve">
<g>
	<path fill="#0F6C91" d="M268.5,471.7H98.9c-31.1,0-51.8-18.8-51.8-50.3c0-43.9,10.3-111.2,67.2-111.2c6.6,0,30.7,27,69.5,27
		c38.8,0,62.9-27,69.5-27c56.9,0,67.2,67.3,67.2,111.2C320.3,452.9,299.6,471.7,268.5,471.7z M183.7,322.7
		c-41.1,0-74.5-33.4-74.5-74.5s33.4-74.5,74.5-74.5s74.5,33.4,74.5,74.5S224.9,322.7,183.7,322.7z"/>
</g>
<path fill="#0F6C91" d="M459,43.8c0-5.5-4.9-9.8-10.4-9.8H245.2c-5.5,0-10.2,4.3-10.2,9.8v83.6c0,5.5,4.6,10,10.1,10.1l14,0.1
	c5.5,0.1,9,4.5,7.8,9.8l-9.4,41.1c-1.2,5.4,1.2,6.8,5.4,3.3l55.3-47.2c4.2-3.6,12.1-6.7,17.6-6.7h112.8c5.5,0,10.4-4.1,10.4-9.6
	V43.8z"/>
</svg>
