<?xml version="1.0" encoding="utf-8"?>
<!-- Generator: Adobe Illustrator 19.1.0, SVG Export Plug-In . SVG Version: 6.00 Build 0)  -->
<svg version="1.1" baseProfile="tiny" id="Layer_1" xmlns="http://www.w3.org/2000/svg" xmlns:xlink="http://www.w3.org/1999/xlink"
	 x="0px" y="0px" viewBox="0 0 500 500" xml:space="preserve">
<g>
	<path fill="#0F6C91" d="M399.5,244c0,77.3-58.5,141-133.7,149.4v34.5h66.9c9.1,0,16.7,7.6,16.7,16.7s-7.6,16.7-16.7,16.7H165.4
		c-9.1,0-16.7-7.6-16.7-16.7s7.6-16.7,16.7-16.7h66.9v-34.5C157.1,385,98.6,321.3,98.6,244v-33.4c0-9.1,7.6-16.7,16.7-16.7
		s16.7,7.6,16.7,16.7V244c0,64.5,52.5,117,117,117c64.5,0,117-52.5,117-117v-33.4c0-9.1,7.6-16.7,16.7-16.7s16.7,7.6,16.7,16.7V244z
		 M332.6,244c0,46-37.6,83.6-83.6,83.6c-46,0-83.6-37.6-83.6-83.6V110.3c0-46,37.6-83.6,83.6-83.6c46,0,83.6,37.6,83.6,83.6V244z"/>
</g>
</svg>
