<?xml version="1.0" encoding="utf-8"?>
<!-- Generator: Adobe Illustrator 19.1.0, SVG Export Plug-In . SVG Version: 6.00 Build 0)  -->
<svg version="1.1"
	 id="North_America_second_level_political_division_and_Greenland" sodipodi:docname="Drinking_age_Nort_America.svg" inkscape:version="0.91 r13725" xmlns:rdf="http://www.w3.org/1999/02/22-rdf-syntax-ns#" xmlns:inkscape="http://www.inkscape.org/namespaces/inkscape" xmlns:cc="http://creativecommons.org/ns#" xmlns:svg="http://www.w3.org/2000/svg" xmlns:dc="http://purl.org/dc/elements/1.1/" xmlns:sodipodi="http://sodipodi.sourceforge.net/DTD/sodipodi-0.dtd"
	 xmlns="http://www.w3.org/2000/svg" xmlns:xlink="http://www.w3.org/1999/xlink" x="0px" y="0px" viewBox="1291.5 888.1 500 250"
	 style="enable-background:new 1291.5 888.1 500 250;" xml:space="preserve">
<style type="text/css">
	.st0{fill:#7E9088;stroke:#000000;stroke-miterlimit:10;}
	.st1{fill:#92A59C;}
	.st2{fill:#C9C52D;}
	.st3{fill:none;stroke:#0F6C91;stroke-width:10;stroke-miterlimit:10;}
	.st4{fill:none;stroke:#0F6C91;stroke-width:10;stroke-miterlimit:10;stroke-dasharray:15.4261,10.2841;}
	.st5{fill:#0F6C91;}
</style>
<rect x="1254.3" y="837.9" class="st0" width="561.7" height="335"/>
<g>
	<path class="st1" d="M1416.4,928.5c-0.6-0.1-0.7-2.1-0.8-2.5c-0.2-0.6-1-0.6-1.2-1.2c-0.2-0.8-0.4-1.7-0.6-2.5
		c-0.3-2-2.6-1.8-1.5-4.7c-1.6,0.2,0-4.9-1.1-6c-0.9-0.9-1.8-2.3-2.9-3.1c-1.2-0.8-3.4,1.2-4.8,0.8c-0.9-0.3-2-1.9-2.6-2.5
		c-1-1-1.2-0.8-2.6-0.8c-1.2,0-2.1,0-3.6,0.3c-0.8,0.2-0.4-1.6-0.4-1.9c-0.6,1.2-0.5,1.5-2,1.4c-1.9-0.1-3.9-0.3-5.8-0.4
		c0.1,1.2,1.8,0.7,2.8,0.8c1.6,0.1-1,1.8-0.6,2.4c0.2,0.3,1.5,1.3,1.3,1.8c-0.5,1.6-2.4-0.9-2.8-1.2c-2.5,3.1-4.9-2.6-6.9-1.8
		c-1.7,0.7-3.6-0.1-5.4-0.5c-1.6-0.3-2.8,0.9-4.2,0.6c-0.3-0.1,0.7-0.6-0.2-1c-1.2,3.5-1.9,3.9-5.7,3.6c0.1,1.6-1.4,2-2.7,2.8
		c-1.1,0.6,0.1,2.7-1.2,2.6c0.4,0.3,0.4,5.4,0.7,5.4c-1.6-0.1-6.5-2-7.2-3.6c-0.6-1.4-0.7-3-1.6-4.3c-0.9-1.3-2.1-2.4-2.5-4
		c-0.3-1.5-0.9-2.6-1.9-3.8c-1.2-1.6-2.5-1.3-4.3-1.3c-2.3,0-2,4-4.3,2.2c-1.4-1.1-2.6-1.9-3.4-3.5c-0.7-1.4-0.5-2.7-1.6-3.8
		c-1.3-1.3-2.5-2.7-3.8-4c-0.5-0.5-3.2-0.3-3.8-0.4c-1.8-0.2-2.2-0.5-2.4,1.3c0,0.3-1.3,0.2-1.5,0.2c-1.9,0-3.7-0.2-5.6-0.3
		c-2.7-0.2-4.5-1.2-6.9-2.5c-2.7-1.5-6.7-4.9-9.9-4.7c-2,0.2-4,0.1-5.9,0.1c-1.5,0-0.5-2.4-1.3-3.3c-2-2.1-3.9-3.7-6.5-4.8
		c-0.6-0.3-3.5-1-3.7-1.9c-0.2-1.1,0.2-1.7-0.4-2.7c-1.3-1.9-3.6-3.8-3.1-6.2c0.3-1.5-1.2-1-1.5-2.2c0-0.2-0.3-4.1,0.4-2.7
		c-0.3-0.9-0.1-1,0.7-1.4c-1.6-0.3-1.2,1.2-2.7,0c-1.1-0.9-2.2-3.4-2.3-4.7c-0.1-2-0.2-3.4-1.3-5c-1-1.4,0.4-3.7,0.9-5.2
		c0.5-1.5-0.4-4.4-0.5-5.9c-0.2-2.2,1-4.1,1.3-6.3c0.4-2.2,0.7-4.5,1.1-6.7c0.4-2.3,0.1-3.7,2.5-4.2c-0.4-0.2-2.1-0.5-2.1-1.1
		c0-0.4-0.1-2.3,0.6-1.1c0.1-0.1-0.6-2.1-0.7-2.3c-0.7-1.6-1.1-4.1-1.2-5.9c-0.2-2.6,4.3-0.2,5.5,0.2c3.7,1.2-1.1,2.5,0.4,3.9
		c0.7-0.8,2.1-1.6,2.1-2.8c0-0.6-0.7-1.9-0.6-2.3c0.1-0.8,1.1-0.6,0.4-1.4c-0.3-0.3-1.1-0.9-1-1.3c0.1-0.5,87.3,8,95.3,8.7
		c0,0,0.2-2.5,0.7-2.4c0.6,0.2,1,2.8,1.3,3.5c0.4,0.9,3.9,1,4.8,1.2c1.4,0.2,2.3,0.9,3.4,1.7c0.4,0.3,2.1,1.9,2.7,1.8
		c1.6-0.2,2.4,0,4,0.5c0.3,0.1,2.2,0.4,1.4,1c-2.7,2-5.4,3.2-7.8,5.6c0.6-0.2,3.4-1.5,3.5-0.5c0.2,1.3-0.2,1.2,1.2,1.3
		c1.4,0,8.9-4.3,9.5-3.6c0.2,0.2-2.4,2.9-2.5,3.4c1.5-0.5,1.8-0.6,2.8,0.7c0.9,1.2,2.4,1.9,3.8,0.9c2.7-2,5,0.3,7.3,1.1
		c0.8,0.3,2.2,3.1,0.2,2.6c-1-0.2-1.9,0.7-2.4,0.4c-1.6-1.1-2.1-0.7-4-0.1c-0.9,0.3-2.4,1.4-2.3-0.2c-2,1.1-3.4,3.1-4.4,5.1
		c0.5-0.2,1.2-0.3,1.6-0.8c0.2-0.3,0.8-2.3,1.1-2.2c1,0.3-2.3,7-2.6,7.9c-0.4,1.3-2.1,9.7,1.1,9.3c3-0.4,3.7-5.7,3.1-7.8
		c-0.5-1.7,0.3-3.4,0.8-5c0.1-0.5,2.3-3.4,2.6-2.9c0.2,0.3,0.1,0.8,0.1,1.2c0.6-0.1,0.4-1,0.4-1.4c0-1,0.8-0.8,1.6-0.9
		c0.4,0,0.2-1.2,0.5-1.5c0.5-0.4,2,0,2.4,0.3c2.2,1.3,2.9,1.9,2.9,4.5c0.1,2.3-0.9,3.2-2.2,5c0.8,0.5,2.3-1.4,3.3-1.3
		c0.6,0.1,0.9,2.9,1,3.4c0.6,3.1-1.4,5.4-3.5,7.7c2.9,1.8,6.1,0.7,9.1-0.3c1.8-0.6,7-2.1,6.2-4.4c-0.7-2.3,4.3-1.6,5.5-1.4
		c1.6,0.4,2.3,0.4,3.8-0.1c1.5-0.4,0.3-1.3,1.2-2.3c-1.6-0.8,3.2-4.5,4.5-4.4c3.7,0.3,7.6,0.4,11.3,1c0.8,0.1,1.2-1.3,2.5-1.4
		c1.6-0.1,1.7-0.5,2.2-2c0.3-1,3-8.9,4.6-8.1c0.8,0.4,1.1,1.7,2.2,1.2c1.8-0.8,1.8-0.2,3.1,1.3c0.5,0.6-0.1,3-0.2,3.7
		c-0.1,0.9-0.4,2-0.2,2.9c0.1,0.5,0.8,0.3,0.8,0.9c0.2,1.7-0.1,1.1,1.3,1.8c0.3,0.1,0.3,2.2,0.1,2.4c-0.7,1-2.6,1.2-3.6,1.7
		c-1.5,0.8-1.8,0-2.8-1c-1.1,2-1.5,2.3-3.8,3.1c-1.9,0.6-2.2,2.4-3.1,4.1c-1.1,2.1-1.4,2.3-0.1,4.2c1.2,1.7,1,0.5,2.1-0.2
		c-0.2,0.1,0.8,1.6-0.4,1.7c-1.2,0.1-3.5,0.7-4.2-0.4c-1.5,1.4-2.9,1.3-4.9,1.4c-1.7,0.1-3.2,0.9-4.6,1.8c-1.9,1.1,0.1,2.1-0.6,3.5
		c-0.6,1.1-2.2,4.2-3.5,4.6c0.6-0.1-1.5-2.6-1.6-2.7c0.6,2.3,1.5,3.7,0.2,5.8c-0.5,0.7-1.9,4.3-2.8,4.5c-0.8,0.1-0.1-2.3,0.1-2.6
		c1-1.3,0.3-1.6-0.6-2.8c-0.9-1.2,0.3-3.8,0.9-4.9c-1.5,0.8-1.8,1-2,2.7c0,0.3,0.5,3.1,0.4,3.2c-0.4,0.2-2.5-1.7-2.8-2
		c0.2,0.8,3.6,2.8,3.1,3.5c-0.5,0.8,0.4,3.1-0.5,3.3c0.6,0.1,1.3,0,1.4,0.8c0,0.4,0.6,3.1,0.2,3.3c-0.5,0.2-2.8-0.3-2.9-0.6
		c-0.3,1.4,1.4,0.2,2,1.6c0.1-0.3,0.2-0.5,0.5-0.6c0.8,0.2,0.4,1.6,0,2c-1.6,1.4-1.2-0.3-2.9,0.1c1,0.7,1,0.7,0.2,1.5
		c0.6,0,0.8,0.6,0.6,1.1c-0.4,0.6-1.9,0.7-2.5,0.9c-1.9,0.6-2.4,2.1-4.3,2.5c-3.7,0.8-4.7,5-8.9,4.7c0.3,1.1-0.1,1-1,1.6
		c-1.2,0.8-1.9,3.8-2.5,5.1c-1,2.2,1,6.3,1.6,8.5C1419.7,917.9,1423.3,929.1,1416.4,928.5 M1314.4,853.6c1.8,2.1,1.5-2.4,0.6-2.9
		c-0.2,0.5-0.2,1.3-1,0.9c-1.5-0.8,0.7-1.3-1.4-1.7C1313.3,851.2,1313.8,852.4,1314.4,853.6C1314.8,854.1,1313.8,852.4,1314.4,853.6
		z"/>
	<path class="st1" d="M1377.9,817.3c0.4,1,0.8,3.7,2,3.9c2.2,0.4,4.6,0.4,6.5,1.7c0.7,0.5,2.8,2.6,3.7,2.5c2-0.2,3.5,0.4,5.4,1
		c-3.2,1.9-5.9,3.7-8.5,6.3c1.3-0.4,2.7-0.8,4-1.2c0,2.1,1,2.3,3,1.5c2.7-1,5.3-2.2,7.9-3.3c-1.1,1-2.5,1.9-2.6,3.5
		c1.8-0.5,1.8-0.5,3.2,1c1.3,1.4,2.7,1.4,4.2,0.3c0.9-0.7,4-0.8,4.3,0.3c0.2,0.6,1.2,0.8,1.8,1c1.2,0.4,1.3,1.3,1.8,2.5
		c-1.2-0.2-2.1-0.7-2.9,0.4c-1.1-0.8-1.4-1.3-2.7-0.9c-0.6,0.2-1.3,0.4-1.9,0.7c-1.2,0.4-2,1.4-1.9-0.4c-2.4,1.4-3.8,3.4-5.1,5.9
		c2-0.9,2.3-1.2,3.1-3.2c0.6,1.5-1.2,2.9-1.7,4.2c-0.6,1.5-1.1,3.2-1.5,4.8c-0.4,1.4-0.7,3.7-0.3,5.2c0,0.1,1,3.8,2,3.1
		c2.2-1.6,4.4-4.3,3.7-7.3c-0.9-3.5,0.3-6.4,2.9-8.7c0,0.5,0,0.9,0,1.4c1.5-0.9,0.2-2,2.3-2.4c1.1-0.2-0.5-1.7,1.9-1.5
		c1.7,0.2,3.6,2,3.6,3.6c0.1,3-0.6,3.8-2.3,6c1.3,0.4,2.4-0.9,3.6-1.3c0.5,2.2,1.4,4.2,0.6,6.3c-0.2,0.7-0.6,0.3-0.8,0.6
		c-0.8,1.4-1.5,2.7-2.6,4c3.2,2,6.3,0.9,9.6-0.2c1.8-0.6,3.4-1.4,4.9-2.4c1.8-1.2,1.7-1.1,1.2-3.1c1.1-0.2,2.8-1,3.9-0.7
		c1.2,0.3,2.6,0.9,3.9,0.7c0.5-0.1,2.6-0.3,2.5-1.1c-0.2-1.4,0.8-1.7-0.4-2.3c2-1.8,3.9-3.9,6.8-3.6c3.3,0.3,6.6,0.6,9.9,0.9
		c0.6,0.1,0.6-1.2,1.2-1.3c0.6-0.2,2.2,0.4,2.5-0.3c1.4-3.7,2.6-6.8,5.1-9.9c1,0.9,1.4,1.7,2.7,1.2c1.5-0.7,1.7,0.2,2.7,1.4
		c0.9,1.1-1.8,6-0.3,6.8c1,0.5,0,1.9,1,2.2c1.6,0.5,0.6,0.6,0.9,1.8c0.3,1-0.3,1.1-1.2,1.4c-2.6,1-2.9,1.7-4.9-0.3
		c-1.1,2.1-1.3,2.4-3.4,3c-2.2,0.7-2.5,2.1-3.5,4.1c-0.9,1.7-1.5,2.2-0.7,3.9c0.8,1.5,1.8,2.9,2.7,0.7c0.1,1,0.4,1.2-0.8,1.3
		c-1.3,0.1-2.9,0.7-3.7-0.5c-1.3,1.3-1.9,1.3-3.8,1.4c-2.4,0.1-3.8,0.8-5.9,1.9c-2.2,1.2,0.2,1.7-0.5,3.2c-0.9,1.8-2.2,3.2-3.5,4.8
		c-0.1-1.5-0.9-2.1-2-3.2c0.3,1,1.8,4.2,1.2,5.1c-1.1,1.9-2.3,3.8-3.4,5.6c-0.3-2,1.5-2.9,0.1-4.5c-0.8-0.9-0.1-3.1-0.8-3.3
		c0.5-0.9,1-1.8,1.5-2.7c-0.6,0.3-2.4,0.7-2.5,1.6c-0.1,1.7-0.2,2.9,0.3,4.5c-1-0.7-2-1.5-3-2.2c-0.3,1.3,3.8,3.2,3,3.9
		c-1.2,1.1,1.1,2.4-0.8,3.3c2.3,0.4,1.9,1.7,2.1,3.9c-1.4-0.5-2.3,0.4-2.9-1.1c-0.1,0.5-0.2,1-0.3,1.6c1.3,0.1,1.8,0,2.4,1.3
		c0.8-2,1,0.2,0.1,0.9c-1.3,1.1-1.5-0.4-3-0.1c0.4,0.3,0.8,0.5,1.2,0.8c-0.3,0.3-0.6,0.6-1,1c2.5,0.2-0.9,1.5-1.5,1.7
		c-1.9,0.6-2.5,2.2-4.4,2.6c-3.7,0.8-4.7,5-9,4.6c0.1,0.5,0.5,1-0.2,1.3c-1.3,0.6-1.6,1.9-2.2,3.1c-1.3,2.7-1.5,3.4-0.7,6.3
		c1.2,4.7,3.3,9.7,2.6,14.5c-0.2,1.7-0.5,2.9-2.2,3.3c-2.4,0.6-1.5-1.5-3-2.8c-0.6-0.5-0.9-4.2-1.4-4c-0.5,0.3-1.1-0.9-1.3-1.3
		c-0.5-0.9,0.1-1.6,0.5-2.5c-2.5,0.3,0.5-4-0.7-5.3c-1.5-1.6-2.8-4.2-5.2-3.6c-0.8,0.2-2.8,1.2-3.5,0.5c-1-1-2-2-2.9-3
		c-1.1-1.1-4.6,0-5.8,0.3c0-0.9,0-1.8,0.1-2.6c-0.8,1.6-0.7,2.3-2.5,2.1c-1.9-0.2-3.9-0.3-5.8-0.4c0.1,1.8,1.9,1.1,3.4,1.2
		c-1.5,2.1-1.5,1.9,0.2,3.9c-1.2,0.7-1.8-0.6-2.7-1.5c-2.6,3.2-4.8-2.7-7.1-1.6c-1.2,0.6-2.1,0.1-3.4-0.2c-2.4-0.5-3.7-0.4-6,0.3
		c0.9-0.5,0.8-0.9-0.2-1.3c-1.2,3.6-1.8,4.1-5.8,3.7c0.1,1.7-1.3,2-2.7,2.9c-1.4,0.8,0.4,2.4-1.4,2.6c0.5,0.6,0.4,0.9,0.2,1.7
		c-0.2,1.1,0.6,2.7,0.9,3.7c-2.2-0.9-6.4-1.7-7.2-4c-0.5-1.3-0.8-2.8-1.5-4c-0.8-1.4-2-2.3-2.4-3.9c-0.5-1.8-1.6-5-3.8-5
		c-1,0-2.3-0.3-3.3,0c-0.8,0.2-1.8,2.3-2.3,3c-1.4-1.1-3.5-2.2-4.3-3.9c-0.8-1.8-0.6-3-2-4.5c-1.2-1.3-2.7-3.8-4.5-4
		c-0.9-0.1-4.9-0.7-5.3-0.3c-1.1,1.3,0.6,1.7-2,1.6c-2.4-0.1-4.8-0.1-7.1-0.3c-2.3-0.2-5.2-2.7-7.2-3.8c-2.3-1.3-4.7-3.3-7.5-3.3
		c-2,0-4-0.1-5.9,0c-1.1,0.1-0.7-2.6-1.4-3.4c-0.5-0.5-2.5-1.7-2.7-2.2c-0.9-2-3.1-2.4-5-3.2c-2.3-1-2-0.8-2.2-2.9
		c-0.2-1.7-2.5-3.7-3.4-5.1c-1-1.5,0.6-2.4-0.8-3.6c-0.5-0.4-2.2-2.8-1-3.4c0.3,0.4,0.6,0.8,1,1.1c-0.6-1.6-0.9-1.7,0.6-2.6
		c-1.3-0.2-1.6-0.6-2.2,0.7c-1.2-1-1.9-2.5-2.7-3.8c-0.9-1.4,0.2-3.2-0.6-4.5c-1.4-2.4-1.7-2.8-0.9-5.5c0.7-2.2,0.4-3.6,0.2-5.8
		c-0.1-1.8-0.6-3.4,0.3-5c0.9-1.6,0.9-3.6,1.2-5.4c0.4-2.4,0.8-4.7,1.1-7.1c0.3-1.8,1-1.4,2.5-1.7c-1.7-0.7-2.5-0.7-2.6-2.5
		c1.5,1.8,0.1-1.8,0-2.1c-0.7-1.2-1.5-4.8-1.3-6.1c0.2-1.7,4.5,0.4,5.4,0.8c2.8,0.9-0.8,2.3,0.3,4c1.3-1.4,3.7-3.4,1.6-5.3
		c-0.2-0.2,1-0.9,0.8-1.3c-0.4-0.6-1-1-1.5-1.4c17,1.6,34,3.1,51,4.7c8.5,0.8,17,1.6,25.6,2.4c4.2,0.4,8.4,0.8,12.5,1.2
		c2.1,0.2,4.2,0.4,6.3,0.6C1377.8,819.8,1377.9,817.6,1377.9,817.3 M1315.1,854.7c1.4-0.9,1.1-3.5-0.1-4.3c-0.8,2.1-1.3,0.9-1-0.4
		c-0.5-0.1-1-0.2-1.6-0.3C1313.1,851.4,1313.8,853.2,1315.1,854.7 M1378,816.9c-0.8-0.1-0.6,1.8-0.7,2.2c-0.1,0.4-4.3-0.2-4.9-0.3
		c-4.4-0.4-8.9-0.8-13.3-1.2c-9.8-0.9-19.5-1.8-29.3-2.7c-9.8-0.9-19.6-1.8-29.3-2.7c-4.6-0.4-9.3-0.9-13.9-1.3
		c-0.5,0-4.8-0.7-4.7-0.1c0,0.3,1.3,1.8,1.4,1.7c-1.1,1.2-0.3,0.9-0.1,2.3c0.3,1.7-0.7,2.4-1.8,3.5c-0.3-0.7,1-1.3,1.1-1.9
		c0.4-1.4-0.7-1.6-1.8-2c-3.2-1-6.1-2.7-5.1,1.8c0.4,1.8,1.1,3.7,1,5.4c-0.1,1.7-0.2,2.3,1.6,3.2c-3,0.6-2.6,8.4-3,11.1
		c-0.4,2-1.6,3.8-1.4,5.8c0.2,2.2,1,4.9,0.3,7c-0.4,1.6-1.7,3.3-0.7,4.8c1,1.5,1.2,2.7,1.3,4.4c0.1,1.5,1.2,4.3,2.4,5.2
		c1.5,1.7,1.5-0.4,2.3,0c-0.5,0.2-0.5,0.6-0.5,0.8c-0.1,0.8-0.9,0.6-0.6,1.8c0.4,1.3,1.4,1.8,1.8,2.8c0.5,1.2-0.5,1.8,0.4,3.1
		c1.1,1.6,2.1,3.1,3.2,4.7c0.5,0.8-0.5,2.1,0.6,2.6c1.8,0.8,3.6,1.6,5.3,2.3c1.2,0.5,1,1.6,2.2,2c1,0.4,2.5,1.8,2.5,3
		c0,0.5-0.2,2.2,0.6,2.2c1.9,0,3.7,0,5.6,0c3.5,0,6.2,2.2,9.3,3.9c1.7,1,3.6,2.3,5.5,2.9c1.7,0.6,3.6,0.3,5.4,0.4
		c0.7,0,4.2,0.7,4.5-0.1c0.6-1.2-0.2-1.5,1.4-1.3c1.2,0.1,4.2-0.2,4.9,0.8c0.9,1.1,1.9,2.1,2.9,3.1c1.2,1.2,1.3,2.4,1.9,4
		c0.6,1.6,1.6,2.3,2.8,3.3c1.6,1.2,1.9,2,3.2,0.2c1.2-1.6,1.4-1.7,3.4-1.6c3.1,0,4.1,3.2,4.8,5.8c0.4,1.4,2.1,2.5,2.7,3.9
		c0.6,1.2,0.7,2.5,1.3,3.7c0.5,1,2,1.4,2.9,1.8c1.1,0.5,3.2,1.9,4.4,1.8c0.9-0.1-0.3-2.6-0.4-3c-0.4-1.4,0.5-2.1,0.5-3.1
		c0-0.9-0.4-1.5,0.5-2c1.2-0.7,2.7-1.1,2.7-2.6c3,0.3,4.3,0.2,5.3-2.7c0.1,0.5,2.1-0.3,2.4-0.4c2.1-0.7,4.4,0.7,6.5,0.9
		c0.7,0.1,1-0.7,1.7-0.2c0.8,0.6,1.7,1.2,2.5,1.8c1.1,0.8,2.8,0.9,3.7-0.1c0.5,0.5,2.2,2.7,2.9,1.1c0.3-0.6-1.6-1.8-1.3-2.1
		c3-4.2-2.3-1.1-2.1-2.7c1.7,0.1,6.6,1.3,7.4-0.4c-0.1,2.8,4.6-0.6,6.2,1.2c2,2.2,2.6,3.5,5.5,2.6c1.4-0.5,1.9-0.8,3,0.4
		c0.5,0.5,2.8,2.2,2.8,3c0,0.5-0.8,5.7,0.4,5.4c-0.3,0.9-0.5,3.9,1.1,3.8c0.5,0,1.1,3.6,2.1,4.3c0.8,0.6,0.1,3,1.6,2.7
		c2.4-0.6,3-0.8,3.5-3.2c1-4.7-0.8-9.1-2-13.7c-0.8-3.1-1.3-4.5,0.1-7.4c0.4-0.9,0.8-1.8,1.3-2.7c0.4-0.9,1.8-0.5,1.4-1.9
		c4,0.4,5.1-4,8.5-4.7c2-0.4,2.5-2,4.4-2.6c0.8-0.2,1.7-0.4,2.4-0.7c0.4-0.2,0.5-1.5-0.1-1.6c0.3-0.2,0.5-0.5,0.4-0.8
		c1.4,1.2,3.7-1.8,2-2.8c0.4,0.2,1-4.1-0.7-4.4c0.5-0.5-0.3-1.7-0.4-2.3c0-0.4,0.2-0.7,0.5-1c0.2-0.6-1.1-1.5-1.4-1.7
		c0.2,0.1,1,0.7,1.2,0.4c0.1-0.1-0.4-2.9-0.4-3.3c0.1-1.4,0.1-1.6,1.2-2.2c-0.9,1.7-0.5,2.1-0.9,3.8c-0.2,0.6,1.3,2,1.6,2.4
		c0.1,0.2-0.9,1.4-1,1.6c-0.2,0.3-0.2,2.4,0.5,2.2c0.6-0.2,0.8-1.1,1.1-1.6c0.7-1.1,1.4-2.3,2-3.4c1-1.6,0.2-3.1-0.3-4.8
		c0.3,0.3,1,2.2,1.2,2.3c0.9,0.1,1.8-1.8,2.3-2.4c0.4-0.5,2.1-2.6,1.7-3.4c-0.7-1.4-0.7-1.9,0.9-2.6c1.5-0.7,2.4-1.3,4.1-1.4
		c1.9-0.1,3.3,0.1,4.7-1.2c0.5,1.1,2.7,0.3,3.6,0.3c1.6-0.1,1.6-2.2,0.9-2.1c-0.6,0.1-0.5,2-1.4,0.8c-0.9-1.3-1.7-1.8-0.9-3.3
		c0.6-1.2,1.7-4.8,3-5.1c2.3-0.6,3.3-1,4.4-3.1c0.8,0.8,1.2,1.6,2.4,1c1.2-0.5,2.5-0.7,3.6-1.5c1-0.7,0.4-1.2,0.6-2.2
		c0.3-1.5-1.4-0.7-1.5-1.7c0.1-0.4,0.1-0.8,0-1.2c0-0.6-0.9-0.4-0.8-1c0.2-1.9,0.4-3.8,0.5-5.7c0.1-1.2-1.6-3-2.8-2.4
		c-1.3,0.6-1.5,0.2-2.5-0.7c-1.7-1.4-4.7,6.3-5,7.4c-0.5,1.4-0.4,2.5-2,2.4c-0.5-0.1-1,0-1.5,0.2c-0.3,0.2-0.5,1.3-0.9,1.3
		c-2-0.2-4.1-0.4-6.1-0.6c-1.6-0.1-4.1-0.9-5.7-0.4c-1,0.3-6.4,3.9-4.6,4.6c-0.6,0.5,0.1,1.8-0.4,1.9c-0.8,0.3-1.9,0.6-2.7,0.6
		c-0.9-0.1-7.9-1.8-7.2,0.9c1.1,4.2-11.9,6.9-14.8,5c1.8-2,4-4.7,3.3-7.5c-0.2-0.9-0.2-4.2-1.7-3.7c-0.7,0.2-1.7,1.4-2.4,1.4
		c1.3-1.7,2.2-2.6,2.1-4.8c-0.1-2.7-0.5-2.9-2.7-4.4c-0.7-0.5-3.2-1.7-3.4,0c-0.1,1-0.1,0.9-1,1c-1,0.1-0.7,1.3-0.8,2
		c-0.1-2.3-2.6,0.3-3,1.3c-0.4,1.2-1.5,3.6-1.3,4.8c0,1.9,1.3,3.4,0.1,5.3c-0.6,0.9-2,4.2-3.6,3c-2.6-2.1-0.1-8.5,0.7-10.9
		c0.4-1.2,2.4-4,2.2-5.1c-0.3-1.9-2.1,1.6-2.8,1.9c0.9-1.7,2.1-3.4,3.8-4.3c-0.4,1.4,3.1-0.2,3.5-0.3c2.2-0.8,1.4,0.1,3.2,0.5
		c0.4,0.3,0.7-0.3,0.9-0.6c0.4-0.4,1.3,0.1,1.7,0.2c1.6,0.2,0.3-1.8,0-2.5c-0.5-1.1-2.3-0.9-3-2.1c-0.5-0.8-3.7-0.4-4.4,0
		c-0.9,0.5-2.4,1.5-3.4,0.4c-1.3-1.4-1.6-2.4-3.5-1.8c-0.1-0.8,3.3-2.8,2.3-3.3c-1.1-0.5-5.6,2.2-6.7,2.7c-1.1,0.5-4.1,2-4-0.1
		c0-1.6-2.2-0.3-3,0c1.1-1.1,2.2-2,3.5-2.8c0.9-0.5,3.7-1.6,4-2.6c0.4-1.3-6-1.4-6.4-1.7c-2.1-1.7-4-2.9-6.7-3.4
		c-1.2-0.2-3.2,0-3.7-1.3C1379.1,819.4,1378.7,817,1378,816.9 M1314.4,852c0.4-0.2,0.6-0.5,0.7-1c0.3,0.1,1.1,6-1.4,0.7
		C1314,851.8,1314.2,851.9,1314.4,852 M1437.3,886.4c0.5-0.2,1-0.1,1.5,0.1c-0.3,0-0.4,0.1-0.5,0.4
		C1438.1,886.5,1437.8,886.3,1437.3,886.4C1438,886.2,1437.7,886.4,1437.3,886.4z"/>
	<path class="st1" d="M1462.7,959.4c-0.3,0-0.9-1.2-0.7-1.4c0.3-1.6,3-0.6,4-0.5c0.9,0.1,2.6,1.1,0.9,1.7
		C1465.4,959.6,1464.2,959.5,1462.7,959.4z"/>
	<path class="st1" d="M1462.7,957.2c0.3,0,6.4,0.9,4,1.7C1465.5,959.4,1460.8,959.8,1462.7,957.2 M1462.7,956.8
		c-0.9-0.1-1.1,1.3-0.8,1.9c0.6,1.3,2.4,1.1,3.6,0.9c1.1-0.2,2.7-0.5,1.9-1.9C1466.9,956.8,1463.7,957,1462.7,956.8
		C1462.3,956.8,1464,957,1462.7,956.8z"/>
	<path class="st1" d="M1362.8,913.9c-1.1-0.1,1.8-3.4,2.1-2.4C1365,911.8,1363.3,914,1362.8,913.9"/>
	<path class="st1" d="M1364.8,911.6c-0.7,0.7-1.3,1.4-2,2.1C1363.2,912.5,1363.8,912.3,1364.8,911.6 M1364.8,911.2
		c-2-0.2-2.5,3.2-1.8,2.8C1363.4,913.8,1365.8,911.3,1364.8,911.2"/>
	<path class="st1" d="M1385.3,959.6c-0.4,0,0.3-4.2,0.3-4.6c0.1-0.7,0.2-1.4,0.3-2.1c0.1-0.4,1.5-0.8,1.9-1.4c0.7-1,1.2-1.3,2.1-0.3
		c0.8,1-0.2,2.9-0.4,3.9C1388.9,957.3,1387.7,959.8,1385.3,959.6z"/>
	<path class="st1" d="M1389.1,950.7c1.9,1.9-0.6,9.1-3.4,8.7c-0.8-0.1,0.2-5.1,0.3-6.1C1386.1,953.2,1388.7,950.8,1389.1,950.7
		 M1389.2,950.3c-0.9-0.1-1.2,0.8-1.6,1.4c-0.5,0.7-1.8,0.2-1.9,1.2c-0.1,1.2-1.4,5.8-0.5,6.7
		C1387.8,962.2,1392.9,950.7,1389.2,950.3"/>
	<path class="st1" d="M1404.4,988.3c-0.3-0.2-0.5-0.5-0.7-0.9c-0.4,2.6-2.4-2.5-2-2.2c-0.7-0.4-1.7-0.6-2.2-1.3
		c-0.4-0.6-0.8-2-1.5-2.2c0.6,0.3,0.3,2-0.8,1.3c-1.4-1-2.4-2.1-1.9-3.9c0.3-1.2,0-1.6,1.5-1.4c1,0.2,2.1,0.4,3.1,0.5
		c0.7,0.1,1,1.1,1.8,0.9c1.4-0.3,1.3-0.6,1.9,0.8c0.7,1.5,1.8,2.2,2.6,3.6c0.3,0.4-0.7,0.7-0.9,1c-0.5,0.6,0.5,0.7,0.5,1.2
		C1405.8,986.2,1404.8,988.4,1404.4,988.3"/>
	<path class="st1" d="M1395.9,977.8c1.3,0.2,3.1,0.2,4.2,0.8c0.9,0.5,1,1,2.1,0.6c1.1-0.4,1,0.1,1.5,1.2c0.7,1.5,1.5,2.2,2.6,3.4
		c-0.4,0.1-0.8,0.3-1.1,0.6c-0.6,1,0.6,0.7,0.5,1.4c-0.1,0.8-0.8,1.5-1.2,2.2c-0.3-0.4-0.5-0.8-0.8-1.1c-0.8,2.6-1.6-1.8-2.1-2.1
		c-1.5-0.8-2.6-3.2-4.1-3.4c0.7,0.6,0.6,0.8,0.4,1.6C1395.6,981.5,1395.2,980.6,1395.9,977.8 M1395.9,977.4c-0.9-0.1-1,2.8-0.8,3.3
		c0.4,1.1,2.7,4,3.3,1.7c1,1.6,1.7,2.1,3.3,3c0.9,0.5-0.5,2,1.1,2.6c0.4,0.2,0.7,0.2,0.9-0.2c0.5,0.9,0.9,0.5,1.3-0.2
		c0.3-0.5,1.3-1.6,0.9-2.2c-0.3-0.3-1-0.8-0.1-1.1c1.4-0.5,0.2-1.4-0.5-2c-1.2-1.1-1.1-2.5-2-3.7c-0.5-0.7-1.8,0.4-2.7-0.3
		C1399.6,977.7,1397.3,977.6,1395.9,977.4"/>
	<path class="st1" d="M1426.7,949.2c-1.3-0.4,1.4-1.9,1.7-2.2c-2.1-0.6-3-0.8-4.1-2.6c-1.4-2.4-3.5-1.2-5.5-2.7
		c-1.9-1.5-3-1.7-5.4-2.1c-1.7-0.3-2-1.1-0.4-1.7c-1.7-1.5-3.9,0.6-5.5,0.7c-0.3,0-5.6,1.8-5.1,0.8c0.1-0.3,0.9-0.3,1.2-0.4
		c0.3-0.1,0.5-1.2,0.6-1.4c0.4-1.5,2.5-1.6,3.7-1.9c3.8-0.8,9.9-1,12.6,2.3c1.3,1.6,3.5,1.3,5.1,2.8c0.8,0.8,2,1,3,1.4
		c1,0.4,1.6,1.4,2.6,1.7c0.6,0.2,2.5,0.5,2.8,1.1c0.4,0.7-0.5,1.3,0.7,1.4c0.6,0.1,5.1,1.6,4.3,2.5c-0.5,0.6-3,0.8-3.7,0.9
		C1432.5,950.2,1429.4,949.5,1426.7,949.2C1425.9,948.9,1429.2,949.5,1426.7,949.2z"/>
	<path class="st1" d="M1413.8,935.5c2.9,0.7,4.8,0.8,6.9,2.9c0.9,0.9,2.1,0.9,3.3,1.2c1,0.2,1.7,1.6,2.7,2.1
		c0.7,0.3,7.1,3.5,7.1,3.7c0,1.2-0.6,1.1,1,1.3c1.9,0.3,2.6,1,3.9,2.2c-2.2,0.5-4.2,0.9-6.5,0.6c-1.3-0.1-4.9,0.2-5.9-0.7
		c0.8-0.6,1.6-1.3,2.5-1.9c-1.5-0.5-3.2-0.6-4-2c-1.1-1.8-1-2.1-3.2-2.6c-0.7-0.2-1.5-0.2-2.2-0.6c-0.9-0.4-1.4-1.6-2.5-1.7
		c-1.5-0.2-4.1,0-5-1.5c0.5-0.2,1-0.4,1.5-0.6c-3.7-2.3-7.4,2.8-10.9,1.5c2.1-0.4,1.5-2.5,3.7-3.1
		C1408.8,935.5,1411.2,935.3,1413.8,935.5 M1413.9,935.1c-3.1-0.3-6.1,0-9,1.4c-0.9,0.4-0.9,1.2-1.2,2c-0.2,0.5-1.7,0.5-1.6,1
		c0.3,2,3.7-0.4,4.3-0.5c2.3-0.4,3.8-1.4,6.1-1.2c-1.8,0.7-0.2,1.7,1,1.9c1,0.2,2.1,0.3,3.1,0.5c1.2,0.3,1.7,1.7,2.9,1.9
		c1.6,0.4,3.5,0.3,4.4,1.9c1.2,2.1,1.8,2.3,4.1,3c-2.5,1.9-2.2,2.3,0.8,2.5c2.2,0.2,4.6,0.8,6.9,0.4c2.5-0.5,4.3-0.5,1.9-2.6
		c-0.7-0.6-3.4-1.2-3.4-1.7c0.2-1.4-1.9-1.6-2.9-1.9c-1.6-0.4-3.4-1.9-4.8-2.7c-0.8-0.5-1.5-1.1-2.2-1.8c-0.9-0.8-2.3-0.1-3.2-1
		C1419.1,936.2,1416.8,935.4,1413.9,935.1"/>
	<path class="st1" d="M1426.7,941.6c-0.3-0.3-3-2.8-3-2.8c0.6-0.3,1.8,0.7,2.3,0.9C1426.4,939.9,1428.6,942.1,1426.7,941.6
		C1426,941,1427.3,941.8,1426.7,941.6z"/>
	<path class="st1" d="M1423.9,938.9c1,0.5,2,1,3,1.6c0.1,0.1,0.8,1.2,0.2,1C1426,941.3,1424.6,939.5,1423.9,938.9 M1424,938.5
		c-0.8-0.1,2.3,4.3,3.5,3.3C1428.9,940.6,1424.9,938.6,1424,938.5"/>
	<path class="st1" d="M1408.1,941.7c-0.9-0.1,1.4-3.1,1.6-1.6C1410,941.7,1409.9,941.9,1408.1,941.7"/>
	<path class="st1" d="M1409.5,940c0.1,0.5,0.1,1,0.2,1.4c-0.5,0-1.1,0-1.6,0C1408.5,940.7,1408.6,940,1409.5,940 M1409.6,939.7
		c-1.2-0.1-2.6,2.2-1,2.3c0.3,0,1.7,0.2,1.6-0.5C1410.2,941.1,1410.1,939.7,1409.6,939.7"/>
	<path class="st1" d="M1447.2,959.2c-1.1-0.2-0.9-3-0.8-3.7c0.1-0.3,0.9-5,0.4-4.8c1.4-0.5,4.1,0.1,5.3,0.7c0.3,0.2,3.4,2.8,3.6,2.4
		c-0.2,0.2-0.5,0.4-0.7,0.5c1.2,0.3,2,0.3,2.8,1.3c0.4,0.5,0.9,2.4-0.5,2.2c-1.5-0.2-2.6-1.1-4.2-0.7c-1.6,0.4-2.3,1.1-3.3-0.4
		C1449.1,957.4,1448.1,958.9,1447.2,959.2C1446.7,959.1,1447.7,959,1447.2,959.2z"/>
	<path class="st1" d="M1450.6,951c0.8,0.3,2.2,0.5,2.6,1.3c0.8,1.5,3.3,1,1.3,2.1c1.2,0.3,2.3,0.4,3.1,1.3c0.4,0.4,0.9,2.1-0.3,1.9
		c-1.5-0.2-2.6-1.1-4.2-0.7c-1.7,0.5-2.2,1-3.3-0.5c-0.9,0.9-1.8,1.7-2.7,2.6c-0.6-1.2-1.1-2.5-0.6-3.8c0.7-1.8,0.7-2.4,0.3-4.4
		C1448.1,950.9,1449.3,951,1450.6,951 M1450.6,950.6c-1.1-0.1-2.2-0.2-3.2-0.1c-1.5,0.1-0.7,1.6-0.5,2.6c0.3,1.7-1.3,2.9-0.6,4.9
		c0.9,2.5,2.3,0.2,3.5-1c0.9,1.3,1.9,0.6,3.3,0.3c1.5-0.4,2.7,0.4,4.1,0.7c0.6,0.1,1.8-1.3,1.3-1.8c-1.1-1.2-1.5-1.6-3-2
		c1.4-0.4-0.9-1.1-1.2-1.2C1453,952.5,1452.4,950.8,1450.6,950.6"/>
	<path class="st1" d="M1386.4,969.7c-0.3-0.1-4.8-2.1-4.7-2.5c0.2-0.5,2.2-2.6,2.9-2.3c0.9,0.5,1.5,1.3,2.3,1.8
		c0.8,0.5,1.7,0,2.4,0.4c0.4,0.3,0.7,1.9,0.2,2.2C1388.6,970,1387.4,969.8,1386.4,969.7C1385.6,969.3,1387.1,969.8,1386.4,969.7z"/>
	<path class="st1" d="M1384.3,965c0.7,0.5,2.2,2.1,3.1,2.2c0.2,0,2,0,2,0.2c0.5,4.6-5.6,0.9-7.6-0.2
		C1382.7,966.5,1383.5,965.7,1384.3,965 M1384.4,964.6c-0.7-0.1-3.2,2.4-2.6,2.9c1.3,1.3,4.6,2.7,6.5,2.5c1.6-0.2,2.5-1.4,1.4-2.9
		c-0.5-0.6-2-0.2-2.7-0.8C1386.4,966,1385.1,964.6,1384.4,964.6"/>
	<path class="st1" d="M1377.5,966.3c-2.3-2.2-3.8-2.9-1.6-5.7c1.9-2.4,2.1-2.5,4.9-2.4c-0.3-1.2-0.5-2.2-1.4-3.1
		c-0.5-0.4-1.4-1.2-1.5-1.8c-0.1-0.4,2,0.4,2,0.4c0.3-1.4,0.1-1.7,1.7-1.6c0.7,0.1,4.6,0,4.7,0.8c0.3,2.1-0.4,4.3-0.6,6.3
		c0.9,0.1,3.3,0.4,3,1.7c-0.4,1.3-3.5,1.6-3.3,2.7c0.2,1.3-1.8,2.4-2.6,3.1C1381.3,968,1379.1,966.7,1377.5,966.3
		C1376.5,965.4,1378.3,966.5,1377.5,966.3z"/>
	<path class="st1" d="M1386.1,952.8c-0.3,2.2-0.5,4.4-0.8,6.6c1.9,0.2,4.4,1.2,1.6,2.7c-1.1,0.6-1.9,0.5-1.9,1.8
		c-0.1,1.1-2.4,2.6-3.1,3.2c-0.3,0.3-2.9-0.6-3.3-0.7c-1.4-0.4-3.2-1.8-3.9-3c-0.5-0.8,1.5-3,1.9-3.5c1.4-1.8,2-1.5,4.4-1.4
		c-0.6-2.2-1.5-3.3-3.1-5c0.7,0.2,1.4,0.4,2.1,0.5c0.2-1.2-0.1-1.9,1.4-1.7C1383,952.6,1384.6,952.6,1386.1,952.8 M1386.2,952.4
		c-1.6-0.1-3.2-0.3-4.9-0.4c-1.4-0.1-1.3,0.3-1.6,1.6c-1.3-0.3-2.9-0.8-1.5,0.9c1.2,1.3,1.8,2.1,2.3,3.7c-1,0-2.5-0.5-3.3,0.5
		c-1.1,1.4-2.2,2.5-2.9,4.2c-1,2.5,5.5,5.1,7.4,4.7c0.8-0.1,1.9-1.2,2.5-1.7c1-0.9,0.8-1.5,1.3-2.4c0.7-1.1,3.5-1.1,3.3-2.9
		c-0.1-1-2.3-1.3-3-1.3C1385.9,958.3,1387.1,952.5,1386.2,952.4"/>
	<path class="st1" d="M1442.9,954.9c-0.3-0.1-2.6-1.9-0.8-1.4C1442.6,953.7,1443.1,955,1442.9,954.9"/>
	<path class="st1" d="M1442.4,953.8c0.2,0.3,0.4,0.6,0.6,0.9c-0.6-0.2-1.2-0.4-1.5-1C1441.8,953.7,1442.1,953.8,1442.4,953.8
		 M1442.4,953.4c-1.7-0.2-1.5,0.9-0.1,1.5C1444,955.6,1443.3,953.5,1442.4,953.4"/>
	<path class="st1" d="M1443.9,950.4c-0.1,0-1-0.2-0.8-0.6C1443.7,949.1,1444.1,950.5,1443.9,950.4"/>
	<path class="st1" d="M1443.4,949.8c0.2,0.1,0.3,0.3,0.5,0.4C1443.2,950.2,1443,950.1,1443.4,949.8 M1443.5,949.4
		c-1.4-0.1,0.1,1.9,0.7,1.1C1444.5,950.2,1443.8,949.5,1443.5,949.4"/>
	<path class="st1" d="M1446.4,957.7c-0.5,0-0.8-0.9-1.4-0.8c-1.1,0.2-1.9,0.5-3,0.1c-0.4-0.2-1.4-0.8-2-0.5
		c-0.6,0.3-0.6,0.7-1.3,0.2c-5-3.5,4.9-0.9,5.4-1.5c-0.2,0.2-1.2-2.3-1.1-2.7c0-1.2-1.6-0.8-2-1.6c-0.5-0.9,2.8-0.6,3.2-0.3
		c1.2,0.8,2.7-0.6,3,1.1C1447.5,952.3,1446.5,957.7,1446.4,957.7"/>
	<path class="st1" d="M1443,950.2c1.6,0.9,2.1,1.1,3.8,0.7c0.5,2.5-0.4,4.2-0.4,6.7c-1.8-1.1-3.7-0.5-5.6-1.3
		c-0.3-0.1-1.8,0.4-1.6,0.6c-0.4-0.4-1.8-1.3-1.6-2.1c2.1,0.2,4.2,0.8,6.3,0.8c1.4,0-0.6-1.6-0.7-1.8c-0.2-0.5,0-1.2,0-1.7
		c-0.1-0.7-1.6-1-2.1-1.2C1441.8,950.6,1442.4,950.4,1443,950.2 M1443.1,949.8c-1.7-0.2-2.9,1.1-1,1.9c0.4,0.2,1.6,3.7,2,3.4
		c-0.5,0.4-6.6-1.4-6.7-0.3c-0.4,0.8,1.7,2.9,2.5,2.2c1-0.9,2.6,0.7,3.9,0.4c0.6-0.2,3,0.6,3.1,0.5c0.3-0.6,0.1-1.4,0.1-2
		c0-0.7,0.5-1.3,0.8-2c0.3-0.8,0-2.6-0.6-3.2c-0.3-0.3-1.2,0.2-1.5,0.2C1444.6,950.9,1444,949.8,1443.1,949.8"/>
	<path class="st1" d="M1391,970.9c-0.8-0.1-1.5-3-2-3.3c-1-0.7-6.3-1.2-4.2-3.4c1-1-0.7-0.7,1.3-1.9c0.1,0,2.4-2,2.4-2
		c3.4-0.2,7.9-0.3,11.2,0.4c2.1,0.4,5.1,2.4,6.1,4.3c0.6,1-5.8,0.8-5.6,0.6c-0.7,0.9-1.5,1.6-2.6,2.1c-0.4,0.2-2.4,0.2-2.3,0.1
		c-0.4,0.8-1.7,0.7-1.9,1.1C1393,969.8,1392.5,971,1391,970.9"/>
	<path class="st1" d="M1399.9,960.7c2.4,1.2,3.9,2.3,5.8,4.2c-1.6,0.4-3.2,1.3-4.7,0.4c-1-0.6-1.3,0.7-2.1,1.3
		c-0.9,0.8-1.8,1.4-2.9,0.8c-0.5-0.3-1.5,0.9-2.5,0.8c-0.1,0-0.8,1.8-1.3,2.1c-1.8,0.9-0.9-1-2-1.1c-1.2-0.1-0.3-1.8-1-1.9
		c-2.3-0.2-3.1-1-5-2.4c0.8-0.8,0.4-1.8,1.3-2.3c1-0.6,2.4-0.9,2.8-2.2C1388.6,959.9,1398.8,960.7,1399.9,960.7 M1399.9,960.3
		c-3.3-0.1-6.7-0.1-10-0.4c-1.1-0.1-5.3,2.2-5.3,3.4c0,0.6-1,1.6-0.4,2c1,0.7,2,2.1,3.3,2.2c1.6,0.1,2.4,1.9,3.1,3.2
		c0.6,1.1,2.7-0.8,2.9-1.5c0.3-1.2,1.3-0.1,1.8-1.2c0.2-0.6,1.6,0.3,2.4-0.2c1.1-0.7,1.6-1.1,2.4-2.1c0.7-0.8,1.4,0.6,2.3,0.4
		c1-0.2,2.7-0.3,3.5-1C1406.9,964.5,1401,960.4,1399.9,960.3"/>
	<path class="st1" d="M1425.8,956.6c-0.7-0.6-3.2-2-1.5-2.7c1.8-0.6,3.1,0.1,4.9,0.6c0.7,0.2,3.1,2.4,1.2,2
		C1428.9,956.2,1427.5,956.9,1425.8,956.6C1425.3,956,1426.4,956.7,1425.8,956.6z"/>
	<path class="st1" d="M1425.4,953.7c2,0.5,4.8,0.7,5.6,2.8c-1.3-0.3-2.4,0.4-3.6,0.2c-1.6-0.3-2.4-1.1-3.6-2.2
		C1424.3,954.2,1424.9,953.9,1425.4,953.7 M1425.5,953.3c-3.9-0.4-0.3,4,2.3,3.7c0.4,0,3.6-0.3,3.7-0.5
		C1431.7,954.4,1426.8,953.4,1425.5,953.3"/>
	<path class="st1" d="M1374.6,963.6c-1.1-0.1-2.9-3.6-3.8-4.4c-2.1-1.9-4.6-2.3-7.1-1.3c-2.6,1.1-3.5,0.5-6-0.5
		c-2.7-1-4.9-2.9-7.6-3.9c-2.7-1.1-4.3-1.6-6.3-3.7c-1.7-1.8-4.8-1.3-6.2-3c-1.1-1.3-10.1-7.5-5.7-8.8c-0.9-1.3,0.3-1.3,0.5-2.5
		c0.1-1-0.7-2.6-0.9-3.5c-0.6-2.2-2.6-3.4-3.6-5.4c-0.9-1.8-4-3.1-3.9-5.1c0.2-2.3-3.4-1.5-3.2-3.5c-1.1,0.3-1.8-0.6-1.2-1.7
		c1-1.8-0.3-2.2-1.7-3.4c-1.6-1.5-1.4-1.9-2.1-3.7c-0.2-0.4-2.3-1.5-2.8-2.1c-2.4-2.9-3.8-6.5-4.6-10.1c-0.8-3.2-3.5-3.3-5.8-5.3
		c0.3,2.2,0.5,4.4,0.8,6.5c0.3,2.2,2.1,2.4,2.7,4.3c0.5,1.6,1.5,2,2.2,3.6c1,2.3,2,4.7,3.1,7c-0.3-0.8,0.5-0.4,0.7-0.2
		c0.7,0.5,0.7,1.7,0.9,2.4c0.2,0.9,1.2,7.4,2.1,7.6c0.3,0,0.9-0.4,1.1-0.2c0.7,0.3,1.1,1.5,1.6,2c1.3,1.4,0.7,2.6-0.8,3.4
		c-1.2,0.7-4.9-7.4-7.1-7.5c-2.1-0.1,0.1-2.7-0.3-3.9c-0.6-2.1-2.4-2.8-2.9-4.7c-1.1,1.5-3-1-3.8-1.7c0,0-3.4-2.6-2.1-2.8
		c1.1-0.1,2.4,1.1,2.8-0.1c0.7-2.1-0.3-2.9-1.5-4.6c-0.8-1.1-2.9-2-3.3-3.1c-0.3-0.7-0.2-1.5-0.2-2.3c-0.5,0.3-0.7-0.6-0.8-0.8
		c-0.4-1.3-0.6-2.6-0.8-3.9c-0.3-1.5-2.3-3.1-2.3-4.5c0-0.4,6.7-0.2,7.3-0.2c2.3,0,5,2.2,6.9,3.3c2.7,1.5,5.4,3.6,8.5,3.7
		c2.1,0.1,4.1,0.2,6.2,0.3c1.5,0.1,0.8-1.8,1.3-1.7c0.8-0.4,6,0.2,6.6,0.8c1.7,1.7,4.2,3.7,4.8,6.1c0.8,3,2.3,4,4.7,5.9
		c1.5-2.1,1.7-2.9,4.4-2.9c1.4,0,2.1-0.2,3,0.9c1,1.2,2,2.1,2.3,3.6c0.4,2.4,2.3,3.6,3.2,5.9c0.4,1.1,0.5,2.9,1.4,3.7
		c0.8,0.7,2.2,1,3.1,1.4c0.5,0.2,5.4,1.9,3.2,3.1c-1.5,0.8-2.2,0.7-2.8,2.7c-0.6,2.1,0.3,4.8,0,7c-0.2,1.2-0.6,2.1,0.1,3.2
		c0.3,0.5,1.2,1.2,1.1,1.9c0.1,0.9-0.6,1.5-0.1,2.4c0.5,0.9,1.2,1.8,1.7,2.8c0.8,1.5,1,4.2,2.8,5c2.1,0.9,3.6,2.7,5.9,2.1
		c2.4-0.6,4.5-1.2,6.7-0.3c2.2,0.9,1.3-1,2.7-1.5c2.1-0.8,2.2-4.3,2.9-6.3c0.6-1.5,10.1-2.8,9.8-1.3c0.9-0.6,2.8-0.4,3.1,0.9
		c0.4,1.3-2,3.8-2.7,4.8c-0.6,0.9-0.5,1.6-0.4,2.4c0.1,0.7-0.9,4-1.5,4.4c-0.6,0.4-0.8-2.3-0.8-2.6c-0.1,0-1.5,1.2-1.6,1.3
		c-1.4,1.9-2.4,1.8-4.6,1.6c-1.1-0.1-3.4-1-3.6,0.4c-0.2,1.3-0.7,1-1.8,0.7c1.1,1.2,4.7,5.2,1,4.8c-1.8-0.2-2,0.5-3.2,2
		C1376.1,960.9,1374.7,963.6,1374.6,963.6"/>
	<path class="st1" d="M1303,888.2c4,2.2,8,5,12.2,6.8c1.9,0.8,5.1,0.4,7.2,0.5c0.4,0,2.5,0.4,2.6-0.1c0-0.3-0.1-1.5,0.4-1.5
		c1.9-0.1,3.9,0.4,5.8,0.6c1.1,0.1,2.4,2.4,3.2,3.1c1.5,1.5,1.4,2.7,2.4,4.5c1.1,2.1,2.7,3.2,4.6,4.6c1-1.3,1.5-3,3.3-3
		c2.8,0,3.1,0,4.8,2c1.5,1.8,1.4,3.9,2.9,5.7c0.9,1.1,1.5,2.3,1.9,3.6c0.2,0.5,0.4,2.5,1,2.8c1,0.4,6.7,2.2,6.7,3.2
		c0,1-0.5,1.1-1.4,1.3c-0.9,0.2-0.9,0.8-1.3,1.5c-1.1,2.1-0.1,4.6-0.3,6.9c-0.1,1.2-0.7,2.6-0.4,3.8c0.3,0.9,1.5,1.9,1.4,2.8
		c-0.3,2.2,0.8,3.1,1.8,5.1c0.9,1.9,1,4,3.1,5c1.3,0.7,3.1,2.3,4.4,2c2.7-0.5,5.7-1.7,8.3-0.4c2.1,1,1.2-1.1,2.3-1.6
		c2.1-1,2.3-3.6,3-5.8c0.6-1.8,1.4-1.5,3.3-1.9c1.2-0.2,6.4-2,6.2,0.2c1.1-0.7,4.1-0.2,2.9,1.5c-0.6,0.9-3.6,4.4-2.6,5.2
		c-0.6,0.5-1.1,4.1-1.5,5.3c-0.5-1-0.8-1.6-0.5-2.7c-1.6-0.3-2.5,3.3-4.5,3.1c-1.5-0.1-3-0.3-4.4-0.4c-1.6-0.1-1.2,0.2-1.5,1.6
		c-0.7-0.2-1.4-0.4-2.1-0.5c1.5,1.7,2.4,2.8,3.1,5c-1.5-0.1-2.8-0.5-3.8,0.7c-1.1,1.4-2,2.5-2.6,4.1c-3.2-3.8-5.8-7.4-11.2-5.5
		c-4.7,1.7-9.3-3-13.5-4.6c-2.6-1-4.2-1.6-6.1-3.6c-1.1-1.1-1.7-1.4-3.1-1.9c-0.7-0.2-2.5-0.5-3-1.1c-1.7-2.1-4-3.2-5.8-5.1
		c-0.8-0.8-0.9-1.9-1.1-3c0-0.1,1.3-0.4,1.4-0.4c-0.7-1.1-0.4-1.1,0.2-2.1c0.5-0.8-0.2-2-0.4-2.8c-0.7-2.6-1.8-3.4-3.3-5.5
		c-0.7-1.1-1.2-2.3-2.2-3.2c-0.4-0.4-2.3-1.7-2.3-2.4c0-1,0.1-1.3-0.6-2.1c-1-1.2-2.9-0.6-2.7-2.5c-1.7,0.4-1.5-0.9-0.8-2.1
		c0.6-1-1.4-2.1-2.1-2.7c-1.4-1.3-1.8-1.8-2.1-3.6c-0.1-0.6-1.1-0.6-1.5-0.8c-0.7-0.3-1.3-1.3-1.7-1.9c-2.3-3-3.5-6.6-4.3-10.2
		c-0.3-1.3-1-1.9-2.1-2.7c-0.5-0.4-1.2,0-1.7-0.4c-0.8-0.7-1.5-1.4-2.3-2c0.3,2.6,0.5,5.2,0.9,7.7c0.3,1.9,2.4,2.4,2.8,4.2
		c0.1,0.6,0.2,1.1,0.9,1.2c0.8,0.1,1.4,2.6,1.7,3.2c0.8,1.8,1.5,4.9,2.9,6.3c-0.2-2.6,1,0.4,1.1,1c0.4,1.8,0.9,3.6,1.3,5.4
		c0.2,0.8,0.2,3,1.4,2.8c1-0.2,1.3,0.7,1.9,1.5c0.6,0.8,1.1,1.2,0.8,2.3c-0.2,0.5-0.5,0.9-1,1c-1.2,0.6-1.1-0.4-1.6-1.5
		c-1.1-2.2-3.8-5.7-6.3-5.9c0.3-1.7,0.8-3.3,0.3-5.1c-0.4-1.6-2.2-2.1-2.7-3.8c-1.1,1.5-1.9,0.2-3-0.7c-0.7-0.6-3.3-2.1-3-3.2
		c1.1,0.2,2.6,1.2,3-0.2c0.3-1.4,0.7-1.6-0.2-2.9c-1-1.5-1.8-3-3.3-3.9c-1.4-0.9-1.3-1.7-1.5-3.4c-1.1,0.3-1.3-3-1.5-3.7
		c-0.5-2-1.3-3.5-2.4-5.3C1297.6,888.2,1300.3,888.2,1303,888.2 M1303,887.8c-1.2-0.1-7.6-0.8-8.4,0.1c-0.4,0.5,2,4.4,2.2,5.3
		c0.3,1.3,0.4,3.1,1.2,4.2c0.9,1.3,0.4,2.5,2.2,3.5c1.6,0.9,3.8,3.8,3.4,5.7c-0.5,2.3-3.2-0.4-3.2,1.4c0,1.1,5.7,5.6,6.3,4.4
		c0.2,0.8,0.7,1.3,1.4,1.7c1.4,1,1.5,2.3,1.2,3.9c-0.1,0.5-0.6,2-0.4,2.6c0.3,0.3,0.7,0.4,1.1,0.3c0.9,0.1,1.7,1.4,2.3,2.1
		c0.7,0.7,4,5.8,4.6,5.5c0.8-0.4,2.8-1.5,1.8-2.9c-0.3-0.4-2-3.3-2.8-3c-1.3,0.5-2.7-7.7-3.1-9c-0.1-0.4-1-1.5-1.5-1.1
		c-0.8-1.9-1.7-3.8-2.5-5.7c-0.3-0.6-0.7-2.6-1.5-2.8c-0.9-0.2-1.1-2.1-1.9-2.8c-2.5-2.2-2.1-5.8-2.5-9c1.7,1.5,4.6,1.7,5.2,4.2
		c0.8,3.5,1.9,6.7,4,9.7c0.5,0.7,1.4,2.4,2.2,2.7c1.6,0.5,1.4,0.7,1.6,2.4c0.2,1.3,3.3,2.9,4,3.9c0.3,0.4-1.1,1.4-0.8,2.1
		c0.5,1.2,1.1,1,1.5,1.8c0.5,1,1.9,0.8,2.6,1.4c1,0.9,0.2,2,1.1,2.8c2.3,2.2,3.7,4.8,6,7c1.1,1.1,1.2,2.7,1.6,4.1
		c0.3,1.3-0.9,2.8-0.3,3.8c-2.9,0.8,0,4.1,1.3,5.1c1.3,1,2.7,1.8,3.8,3.1c1.3,1.6,3.2,1.7,5,2.4c1.5,0.6,2.1,2,3.3,3
		c1.4,1.2,4.1,1.9,5.9,2.5c1.5,0.5,2.5,1.2,3.8,2.2c1.7,1.3,4,1.9,6,2.6c1.2,0.5,2.6-0.3,3.7-0.8c1.9-0.8,2.8-0.5,4.6,0.4
		c1.4,0.7,2,1.2,3,2.5c0.3,0.4,2.3,3.6,3,2.6c1.4-2,1.8-4.9,4.7-4.6c3.5,0.3,0.5-3.5-0.6-4.7c1.3,0.3,1.2,0,1.5-1.2
		c0.1-0.6,3.6,0,4.2,0.1c2.4,0.2,3.7-0.8,5.1-2.7c-0.3,0.7,0.4,1.4,0.6,2c0.6,1.3,1.2-1.3,1.3-1.4c0.4-1.3,1.1-2.9,1.1-3.9
		c0-1.2-1.2,0.8,0.3-1.5c0.7-1.1,1.5-2.3,2.2-3.4c1-1.5-1.2-3.9-2.7-2.7c0.2-1.3-8.9,0-9.7,0.9c-1.2,1.3-0.9,5.7-2.4,6.4
		c-0.4,0.2-1.9,0.5-1.8,1.1c-0.2,0.8-0.1,1.6-1.3,1.1c-2.5-1-4.1-0.6-6.7-0.1c-2.9,0.5-2.5-0.4-4.9-1.4c-2.1-0.9-2.6-1.8-3.3-3.8
		c-0.8-2.5-2.5-3.8-2.3-6.4c0.1-0.9-0.9-2-1.3-2.7c-0.4-0.7,0.1-2.2,0.2-2.9c0.3-2-0.7-5.5,0.2-7.2c0.2-0.4,0.6-1.3,1-1.5
		c0.5-0.3,1.5-0.2,1.8-0.9c1-2.3-4.1-3.3-5.6-3.9c-2-0.8-1.8-3-2.7-4.8c-1.1-2.2-2.4-3.4-3-5.8c-0.5-1.9-2.4-4-4.3-4
		c-3.1,0-3.4,0.2-5.3,2.8c-1.3-1-3.2-1.9-3.8-3.5c-0.9-2.1-1.1-3.5-2.7-5.2c-1.2-1.3-2.3-3.2-4.2-3.4c-1-0.1-5.5-1.1-5.8,0.1
		c-0.4,1.7-0.9,1.2-2.8,1c-2-0.1-4.7,0.2-6.5-0.5c-2.4-0.9-4.6-2.6-6.9-3.8C1307.1,890,1304.7,888,1303,887.8"/>
	<path class="st1" d="M1300.2,907c-0.7-0.1-0.4-1.3,0-1.5C1300.5,905,1300.8,907.1,1300.2,907"/>
	<path class="st1" d="M1300.4,905.6c0,0.4-0.1,0.8-0.1,1.2C1299.7,906.5,1300.1,906,1300.4,905.6 M1300.4,905.2
		c-0.7-0.1-1.1,1.5-0.4,1.9C1300.6,907.8,1301.3,905.3,1300.4,905.2"/>
	<path class="st1" d="M1309.8,904.7c-0.8-0.3,0.5-1.6,0.9-1.7C1310.5,903,1311.7,905.3,1309.8,904.7
		C1309.5,904.6,1310.1,904.8,1309.8,904.7z"/>
	<path class="st1" d="M1310.7,903.2c0,0.5,0,1.1,0,1.6C1309.5,904.4,1309.8,903.9,1310.7,903.2 M1310.7,902.8
		c-1.1-0.1-1.8,1.8-0.5,2.2C1311.6,905.4,1311.3,902.8,1310.7,902.8"/>
	<path class="st1" d="M1401.3,979.8c-0.9-0.1-1.3-1.1-2.4-1.3c-1-0.1-2.3-0.1-3.1-0.6c-1.2-0.7-2.1-2.4-3-3.5c-0.8-1-2.1-2-2.6-3.1
		c-0.5-1,2.6-0.9,2.8-2.5c0.2-1.1,1-0.3,1.6-0.7c0.9-0.7,0.4-1.3,1.7-0.5c1.7,1,3.1-3,4.3-2.5c1.2,0.5,1.7,0.6,2.9,0.3
		c0.6-0.2,1.5-0.6,2.1-0.4c0.3,0.1-1.8,7.9-2,8.7c-0.3,1.2-1.1,2.9-0.8,4.2C1403.1,979,1402.9,979.9,1401.3,979.8"/>
	<path class="st1" d="M1405.7,964.9c-0.8,3.2-1.6,6.3-2.4,9.5c-0.3,1.3-0.8,2.4-0.5,3.6c0.2,1-0.4,1.5-1.4,1.4
		c-0.8-0.1-1.5-0.9-2.4-1.1c-0.9-0.2-1.9-0.1-2.8-0.4c-0.9-0.4-5.8-7.3-5.9-7.2c1.4-0.8,2.5,0.1,3-2.2c0.2-0.7,1,0,1.4-0.2
		c1-0.5,0.1-1.4,1.5-0.7c1.8,0.9,2.8-2,4-2.5c0.6-0.3,1.2,0.5,1.8,0.6C1403.2,965.9,1404.6,965.2,1405.7,964.9 M1405.7,964.6
		c-1.1-0.1-2.2,0.7-3.2,0.9c-1.2,0.2-1.8-1.6-2.9-0.2c-0.7,0.9-1.5,1.8-2.7,2.1c-1.1,0.2-1.4-1.1-2,0.3c-0.5,1-1.6-0.4-1.9,0.9
		c-0.4,1.7-1.2,1.4-2.6,1.7c-1.4-0.1,1.4,3.2,1.7,3.6c2.1,2.6,3.1,4.4,6.5,4.8c0.8,0.1,5.5,2.7,4.7-0.4
		C1403.1,977.4,1406.2,964.6,1405.7,964.6"/>
	<path class="st1" d="M1408.7,992.4c-1.1-0.1-0.7-1.6,0-1.6C1409,990.9,1409,992.5,1408.7,992.4"/>
	<path class="st1" d="M1408.6,991c0,0.4,0,0.8,0.1,1.2C1407.8,992,1407.8,991.6,1408.6,991 M1408.7,990.6c-1.3-0.1-0.9,1.5-0.2,1.9
		C1409.2,993,1409.4,990.7,1408.7,990.6"/>
	<path class="st1" d="M1411.4,993.2c-0.5,0-0.3-1.6-0.3-1.9c-1.4,0.3-1.6-0.6-2.3-1.7c-0.4-0.6-3.2-1.1-3.6-0.8
		c-0.8,0.7-1.2-0.3-0.8-1c0.3-0.6,0.7-1.3,1-1.9c0.1-0.2-0.6-0.5-0.6-0.8c0-0.8,1-1.9,1.8-1.3c0.7,0.5,0.8,2.1,1.4,2.3
		c0.9,0.4,2.6,0.9,3.6,0.5c1.2-0.5,2.5-1.3,3.7-0.4c1.4-2.3,4-1.5,6.2-0.2c0.7,0.4,1.3,1.2,1.9,1.7c0.9,1,0.4,1.4,0.9,2.4
		c0.9,2.1-1.1,1.6-1.9,2.8c-0.7,1.1-1.2-0.4-1.5-1c-0.7-1.1-0.3-1.3,0.5-2.3c-1-0.2-2.9-2.4-3.7-2.3c-1,0.2-2,1-2.8,1.5
		c-1,0.6-1.9,1-1,2.2C1414.9,992.9,1412.7,993.3,1411.4,993.2z"/>
	<path class="st1" d="M1406.3,983.9c1.6,1.3,1,2.5,3.3,3c2,0.4,4.3-1.3,5.8-0.2c0.7-1.1,0.6-1.7,2-1.6c1.7,0.2,3.8,0.9,4.9,2.1
		c1.4,1.6,1.2,2.2,2,3.9c0.3,0.6-0.9,1.1-1.2,1.3c-1,0.8,0.5-1.7-1.3,1c-1.2-2-1.6-2-0.2-3.7c-1.2-0.3-3.4-2.9-4.4-2.2
		c-2.5,1.6-5,1.6-3,4.7c-2,1.1-2.7,1.3-2.9-1.1c-1.8,0.4-4.2-4.5-6.5-2c-0.2-0.7,0.8-3.4,0.9-3.4
		C1404.6,985,1405.4,984.4,1406.3,983.9 M1406.3,983.5c-0.9-0.1-1.9,1-1.6,1.8c-0.1,1.5,1.4-1,0,1.6c-0.4,0.8-0.8,1.3-0.4,2.2
		c0.1,0.2,3.5,0.3,4.1,0.5c1.3,0.3,0.8,2.4,2.5,2c0.1,1.3,0.1,2.3,1.9,1.8c1.9-0.6,1.7-1.2,0.9-2.6c-0.7-1.3,3.2-2.6,4.1-3.1
		c0.2-0.1,2.7,2.1,3.2,2.2c-1.1,1.4-0.7,1.5,0.1,3c0.4,0.7,0.9,1.2,1.4,0.3c0.4-0.6,0.5-0.1,1-0.4c2.3-1.9,0.7-4.2-1.1-6.1
		c-1-1.1-3.4-1.8-4.8-1.9c-0.4,0-1.2-0.3-1.5,0.1c-0.3,0.4-0.6,0.8-0.8,1.3c-0.5-0.4-1-0.4-1.5-0.2c-1.6,0.5-2.7,0.9-4.4,0.6
		C1407.5,986.1,1408,983.7,1406.3,983.5"/>
	<path class="st1" d="M1424.4,923.2c0,0,3-1.2,3.6,0C1428.8,924.9,1425,923.4,1424.4,923.2C1424.1,923.1,1425.3,923.4,1424.4,923.2z
		"/>
	<path class="st1" d="M1427.7,923c0.1,0.3,0.3,0.6,0.4,0.9c-1.2-0.3-2.4-0.6-3.6-0.9C1425.6,923,1426.6,923,1427.7,923
		 M1427.7,922.6c-0.7-0.1-5.3,0.4-2.7,1c0.5,0.1,3,1.1,3.4,0.6C1428.7,923.8,1428.2,922.6,1427.7,922.6"/>
	<path class="st1" d="M1440.9,946.4c-0.8-0.1,1.5-1.8,2.3-1.8c0.4,0,0,1.1-0.1,1.2C1442.8,946.4,1441.4,946.5,1440.9,946.4"/>
	<path class="st1" d="M1443.2,944.9c-0.3,1.3-1,1.2-2.2,1.4C1441,945.1,1442.2,945.2,1443.2,944.9 M1443.2,944.5
		c-0.9-0.1-3.2,0.6-2.6,1.9c0.3,0.6,2.3,0.1,2.6-0.3C1443.4,945.8,1443.9,944.5,1443.2,944.5"/>
	<path class="st1" d="M1435.7,934c-0.5,0-1.2-2.6-1.1-2.6C1435.3,931.3,1437.1,934.4,1435.7,934
		C1435.3,933.9,1437.3,934.4,1435.7,934z"/>
	<path class="st1" d="M1434.7,931.6c0.5,0.7,1.1,1.4,1.6,2.3C1435.3,934,1435,932.2,1434.7,931.6 M1434.7,931.2
		c-0.9-0.1,0.5,2.6,0.8,2.9C1437.2,935.2,1435.9,931.3,1434.7,931.2"/>
	<path class="st1" d="M1433.4,931.8c-1.7-0.2,0-2.4,0.1-2.3C1433.6,929.8,1433.8,931.9,1433.4,931.8"/>
	<path class="st1" d="M1433.4,929.7c0,0.6,0,1.3,0,1.9C1432.8,930.6,1432.8,930.7,1433.4,929.7 M1433.5,929.3
		c-1.3-0.1-1.2,2.8,0,2.8C1433.9,932.1,1434.1,929.4,1433.5,929.3"/>
	<path class="st1" d="M1428,934.9c-1.7-0.2-0.1-2.4,0.2-2.1C1428.4,933.1,1428.5,934.9,1428,934.9"/>
	<path class="st1" d="M1428.2,932.9c-0.1,0.6-0.1,1.2-0.2,1.8C1427.4,933.7,1427.4,933.8,1428.2,932.9 M1428.2,932.5
		c-1.6-0.1-1.2,2.8-0.2,2.6C1428.6,935,1428.9,932.6,1428.2,932.5"/>
	<path class="st1" d="M1427.2,932.3c-1.8-0.2-1.7-2.2-1-3.3C1427,927.9,1428.7,932.5,1427.2,932.3"/>
	<path class="st1" d="M1426.4,929c1.1,0.9,1.2,1.9,0.8,3.1C1425.7,930.7,1425.7,930.8,1426.4,929 M1426.5,928.7
		c-2.2-0.2-0.3,3.2,0.3,3.7C1428.1,933.2,1428.5,928.8,1426.5,928.7"/>
	<path class="st1" d="M1430.3,926.9c-0.7-0.1-0.7-3.1,0.3-3C1431.2,924,1430.8,927,1430.3,926.9"/>
	<path class="st1" d="M1430.6,924.1c0.1,0.9-0.1,1.8-0.2,2.6C1430.1,925.6,1429.9,925.2,1430.6,924.1 M1430.6,923.7
		c-1.3-0.1-1.3,3.3-0.3,3.4C1431.1,927.2,1431.5,923.8,1430.6,923.7"/>
	<path class="st1" d="M1439.7,941.4c0,0-0.6-2.4-0.8-2.3C1441.1,938.1,1440.9,941.6,1439.7,941.4"/>
	<path class="st1" d="M1438.9,939.2c0.6,0.2,1.1,0.3,1.7,0.5c-0.3,0.5-0.6,1-0.8,1.5C1439.9,940.1,1439.7,940,1438.9,939.2
		 M1439,938.8c-0.9-0.1-0.1,0.8,0.1,1c0.4,0.4,0.2,1.5,0.5,1.7C1440,941.8,1442.3,939.1,1439,938.8"/>
	<path class="st1" d="M1433.3,1233.5c-3.6-1.4-6.6-2.1-10.3-2.6c-1.5-0.2-2.6,0-3.1-1.6c-0.5-1.6,0.1-4.1,0.2-5.8
		c-1,0.1-2.3,0.5-3.2,0.1c-0.8-0.3,0.1-4.2,0.3-4.8c0.5-2.1,1.7-3.2,2.8-5c1.2-2,1.2-3.8,1.3-6c0.1-1.4,1.7-3.2,2.4-4.4
		c1-1.7,1-3.7,1.2-5.7c0.1-1.1,1.3-2.5,0.4-3.5c-1.6-1.6-0.6-1.6,1.1-2c-0.3-1-1.5-0.6-1.7-1.3c-0.3-0.9,0.3-2.6,0.3-3.6
		c-0.1-2.7-0.5-4.6,0.8-7c0.8-1.4,0.5-2.1,0.1-3.6c-0.2-0.9,0.4-2.6,0.6-3.5c0.5-2.5,1.1-5.7,2.8-7.7c1.4-1.7,0.8-5.8,1.1-8
		c0.3-2.2,2.4-2.6,2.5-4.8c0.1-1.5,0-2.1,0.9-3.4c0.7-1,2-2.4,2.2-3.6c0.3-2.3-0.6-5.3-1.2-7.5c-0.8-3,0.4-4.7,1.7-7.4
		c1.1-2.5,1.3-5.4,2.3-7.9c0.5-1.3,2.6-4.3,3.8-4.8c2.4-1,0.5-4.1,0.9-6.2c0.6-3.4,0.5-3.7,3.8-4.8c1.8-0.6,2.4-2.5,1.9-4.3
		c-0.3-1,3.8-4.5,4.4-3.8c1.5,1.9,4,1.3,5.7,3.2c0.5-1.1,0.6-2.3,2-2c1.2,0.3,2,0.2,3,1c1.4,1,2.1,1.1,3.2,2.7
		c1,1.3,2.2,3.8,3.7,4.6c1,0.5,2.2,0.5,3.2,1c1.3,0.5,2.4,1.7,3.4,2.5c1,0.8,3.2,2,3.4,3.5c0.2,1.6-2.2,2.9-2.7,4.4
		c-0.5,1.6,5.3,3.2,6.7,3.1c2.4-0.1,5.8-1.6,6.2-4.4c0-0.3,0.1-2.3,0.7-2.2c1.7,0.2,2.4,0.5,2.8,2.1c0.3,1.1,0.3,3.9-0.9,4.4
		c-1.5,0.7-3,0.9-4.1,2.1c-2.3,2.4-5.1,4.5-7.6,6.7c-0.9,0.8-3.2,2.1-3.4,3.4c-0.3,1.7-0.6,3.5-0.8,5.2c-0.5,3.7-2.3,7-2.3,10.7
		c0,1.3,4.3,2.5,3.7,3.8c-1,2.6-0.8,2.9,1.3,4c0.4,0.2-0.3,3.3-0.7,3.7c-0.8,0.9-2.1,2-2.6,3.1c-1.2,2.9-4.5,2.7-7.2,3
		c-2.6,0.3-7.4,1.7-9.7-0.3c-0.1,1-0.4,1.4,0.3,2.2c1,1.2-1.2,2.5-1.1,3.8c0.2,2.8-0.9,4.5-4,4.3c-1.5-0.1-6-4-5.9-1.3
		c0.1,2-0.5,6.5,2.6,6.4c-0.7-1,0-1.1,1-1.4c1.1-0.3,1.2,1.6,1.2,2.3c0.1,1.6-1.4,1.5-2.5,1.4c-1.4-0.1-0.3-1.6-2.2-0.7
		c3,2.3,1.4,1.4-0.6,3.1c-1.6,1.3-0.3,4.1-2,5.7c-0.8,0.8-0.2,1.1-0.5,2c-0.1,0.2-3.2,0.3-3.8,0.7c-1.8,1-4.3,3.6-3.2,5.8
		c1.3,2.5,2.2,2.7,4.6,3.5c1.6,0.6,0.6,5-0.5,5.8c-2.5,1.8-5.4,3.1-6.3,6.1c-0.3,0.9-2,5.4-3.3,2.7c0.2,1.4-0.9,1.7-1.9,2.4
		c-0.7,0.4-1.1,2.2-1.4,2.9c1.3-0.1,1.5,2.9,0.2,3.1C1432.2,1229.8,1432.9,1233.3,1433.3,1233.5"/>
	<path class="st1" d="M1453,1099c1.1,1.3,1.5,1.4,3.1,1.8c1.7,0.4,2,0.7,3.1,1.9c1-2.1,2.7-3.2,5-1.2c1,0.9,1.7,0.7,2.6,1.9
		c1,1.3,1.9,2.6,2.9,3.9c1.5,2.1,3.2,1.6,5.2,2.8c1.5,0.9,5.9,3.8,6,5.6c0.1,1.2-1.8,2.8-2.4,3.9c-1.1,2.1,0.7,1.8,2.3,2.3
		c2.1,0.7,4.6,2.7,7,1.1c2.5-1.7,3.4-3.4,4.1-6.3c1.8,0.5,2.2,0.4,2.7,2.2c0.3,1.3,0.1,3.8-1.4,4.2c-3.8,1.2-6.7,4.6-9.6,7.2
		c-1.3,1.1-2.6,2.2-3.9,3.4c-1.5,1.5-1.5,3.8-1.9,5.8c-0.3,2.2-0.7,4.5-1.5,6.6c-0.5,1.1-1.8,4.5-0.7,5.5c0.8,0.7,1.7,1.3,2.5,1.9
		c1.7,1.5,0,1.7,0.1,3.3c0.1,1.4,1,1.9,2.1,2.1c0.8,0.2-0.8,3.7-1.2,4.2c-1,1.1-1.7,2.9-2.8,3.9c-1.4,1.2-3.5,1.1-5.2,1.3
		c-3.1,0.4-8.2,2-10.8-0.4c-0.1,0.7-0.1,1.3-0.2,2c0,0.4,1,0.9,0.7,1.3c-0.9,1.6-1.4,2.4-1.4,4.2c0.1,2.6-3.6,4.1-5.7,2.6
		c-2.3-1.8-4.4-3.6-4.2,0.6c0.1,2.5,0,5.3,3.1,5.2c-1-1.5-0.1-1.1,1.2-1.5c0.2,0.8,1,2.9-0.1,3.4c-1.2,0.5-1.9-0.1-2.5-1
		c-0.5-0.7-1.3,0.1-1.9,0.3c0.8,0.6,1.5,1.2,2.3,1.8c-1.7,0.6-3.3,0.9-3.4,3c-0.1,1.1,0.1,2.6-0.7,3.5c-1,1-1.2,1.2-1.1,2.6
		c-2.2-0.2-3.8,0-5.3,1.7c-0.9,1-2.6,2.5-1.9,4c0.5,1.1,1.1,2.4,1.9,3.4c1.1,1.4,3.3-0.1,3.7,2.1c0.6,4.2-4.1,6.4-6.9,8.4
		c-0.8,0.6-1.2,3.6-1.5,4.5c-0.2,0.6-1.3,0.7-1.8,0.9c-0.3,0.1-0.9-1.6-1-1.8c0.3,2,0.5,2.2-1.1,3.2c-1.3,0.8-1.5,2.3-2.1,3.6
		c1.2-0.1,0.9,0.4,1.1,1.5c0.1,1.3,0.1,1.1-1.1,1.4c1.7,0.9,2.3,2.7,3.1,4.3c-3.6-1.4-6.6-2.1-10.4-2.6c-1.5-0.2-2.5,0.1-2.9-1.5
		c-0.4-1.7,0.2-4.1,0.3-5.9c-1.1,0.1-2.2,0.1-3.4,0.2c0.1-2.9,0.1-5.4,1.9-7.9c0.9-1.3,1.9-2.6,2.4-4.2c0.4-1.4-0.1-3.5,0.7-4.7
		c1.7-2.6,2.7-4.6,3-7.6c0.2-1.5,0.5-2.8,1.2-4.2c0.2-0.4-1.3-1.7-1.6-1.9c0.7-0.2,1.4-0.3,2.2-0.5c-0.4-1.4-1.9-0.8-1.6-2.4
		c0.4-2.5-0.7-5.4-0.1-7.8c0.2-1,1.1-1.7,1.5-2.6c0.4-0.8-0.4-2.1-0.4-3c0-2.7,0.9-5.8,2-8.3c0.6-1.3,2.1-3.2,2.1-4.6
		c0-1.9-0.7-6.2,0.8-7.7c1.6-1.6,2.2-2.1,2.1-4.4c-0.1-2.6,3.1-4,3-6.7c-0.2-2.4-0.7-4.8-1.3-7.1c-0.7-3,0.7-4.5,1.9-7
		c1.2-2.6,1.5-5.7,2.5-8.4c0.4-1.1,1.7-1.5,2.2-2.5c0.5-1,0.6-1.4,1.7-1.8c3.1-1.2-1.9-8.8,2.9-10.3c2.4-0.7,2.7-0.8,3.6-3.4
		c0.4-1.3-0.7-1.5,0.5-2.5C1451,1100.9,1452,1099.9,1453,1099 M1453.1,1098.6c-0.9,0.2-4,3-4.3,3.8c-0.2,0.6,0.5,1.2,0.3,1.8
		c-0.5,1.4-0.5,2.3-2,2.8c-1.8,0.6-3.1,0.5-3.6,2.6c-0.3,1.3,0.4,7.6-0.4,8c-3.9,2.2-5.8,7.1-6.4,11.5c-0.3,2.2-1.8,3.4-2.5,5.4
		c-0.8,2.4,0.8,6.1,1.1,8.6c0.3,2.3,0.3,3.2-1.1,5.1c-0.5,0.6-1,1.3-1.3,2c-0.5,1.2,0.2,2.7-0.4,3.8c-0.5,0.8-1.4,1.5-2.1,2.2
		c-0.6,0.6-0.5,2.6-0.6,3.3c-0.2,1.4-0.1,2.9-0.1,4.3c0,1.1-1,2.1-1.5,3.1c-1,2.3-1.7,4.6-2.2,7.1c-0.5,2.6,0.5,4.5-0.9,6.8
		c-1.2,1.9-0.4,4.8-0.4,6.9c0,1.1-0.4,2.3-0.3,3.3c0.1,0.9,1.7,0.3,1.7,1.2c-3.9,0.9,0.1,1.4-0.9,3.6c-0.9,1.8-0.8,4.2-1.1,6.2
		c-0.2,1.6-1.8,3.1-2.5,4.6c-0.7,1.4-0.4,3.1-0.8,4.7c-0.5,2.1-2,3.4-3,5.2c-1,1.7-1.2,3.8-1.3,5.7c-0.1,2.5,1.1,1.8,3.3,1.7
		c-0.1,1.9-1.1,5.1,0.4,6.8c1.1,1.3,5.7,1,7.3,1.2c0.9,0.1,5.5,2.5,6.1,1.9c0.5-0.6-1.7-4.2-2.3-4.4c1,0,0.6-3.7-0.4-3.5
		c0.9-1.8,1.6-3.3,3.6-4.1c1-0.5,2-0.4,2.3-1.6c0.3-1.2,0.6-2.8,1.3-3.8c1.9-2.6,5.2-3.1,6.6-6.2c0.4-0.9,0.8-2.8,0.1-3.7
		c-0.8-1-2.8-0.3-3.6-1.3c-0.7-0.9-1.5-2.1-1.8-3.2c-0.4-1.4,1.3-2.7,2.1-3.6c0.7-0.8,2.1-1.9,3.2-1.8c0.9,0,2.2,0.7,2.1-0.8
		c0-1.2,1.4-1.4,1.5-2.5c0.1-1.4-0.1-3.1,0.8-4.3c0.4-0.6,3.1-1,2.8-1.8c-0.3-0.7-1.2-1.1-1.8-1.6c0.9-0.4,4.8,2.9,4.6-0.8
		c-0.2-4.1-3.1-1.4-2.8-1c-2.5,0.7-2.1-5.4-2.1-6.4c-0.1-2,4.1,1.6,5.1,1.7c2.5,0.2,5-0.5,4.9-3.4c0-1.6,0.3-2.1,1.1-3.5
		c0.5-0.9-0.4-2-0.3-3c1.5,1.8,6.7,0.5,8.7,0.2c1.7-0.2,6.8,0,7.7-2.1c0.8-1.9,5.2-5.6,3.8-8c-0.6-0.9-2.6-0.6-2-2.4
		c0.7-2.3,0.4-2.2-1.5-3.9c-2.2-1.9-1.8-3.5-0.7-6.1c1.2-3.1,1.6-6.6,2.1-9.9c0.5-3.3,4.9-5.7,7.2-7.8c2.4-2.1,4.4-4.4,7.5-5.4
		c2-0.6,2.3-4.7,1.1-6.3c-0.2-0.6-2.1-0.9-2.6-0.8c-0.8,0.2-1,2.7-1.1,3.3c-0.2,1-2.1,2-2.9,2.6c-1,0.8-2.3,0.6-3.5,0.6
		c-1.5,0.1-2.6-1.1-4-1.5c-1.1-0.3-1.9-0.1-1.8-1.4c0.1-0.8,1.4-2.1,1.9-2.7c1.3-1.9,0.5-2.8-1.1-4.1c-1.4-1.2-2.9-2.7-4.5-3.6
		c-1.2-0.7-2.6-0.5-3.7-1.2c-2.7-1.5-3.2-5.6-6.1-6.9c-2.4-1.1-4.5-2.7-6,0.4c-1-1.2-1.5-1.3-3-1.6c-0.6-0.1-1.2-0.2-1.7-0.4
		C1453.9,1099.7,1453.7,1098.7,1453.1,1098.6"/>
	<path class="st1" d="M1446.5,1102.3c-0.6-0.1-0.4-3.2-0.5-3.8c-0.1-1,0-2-0.2-2.9c-0.3-1.3-1.7-2.2-1.6-3.6c0.1-1.5,2.2-2,0.4-3.7
		c-1.1-1-0.7-2.4-0.7-3.8c0-1-1.3-1.4-1.5-2.3c-0.3-1.3,2.7-2.8,2.3-3.5c-0.5-1-1.1-1.9-1-3.1c0.1-0.5,0.3-0.8,0.7-1.1
		c0.6-0.8-0.2-1.3-0.1-2.1c0.1-0.4,0.4-0.8,0.9-0.9c0.3-0.6,0.4-1.2,0.4-1.8c0.1-1.2-0.1-3.2,0.6-4.3c0.7-1.1,0.7-1.6,0.1-2.8
		c-0.4-0.7-2.1-3.2-1.7-3.9c0.3-0.4,2.9,0.5,3.4,0.6c1.3,0.4,2.5-0.2,3.6-0.8c1.2-0.6,2.1-1.7,3.2-2.6c0.9-0.8,3.6-0.5,4.7-0.4
		c1.6,0.1-0.2,6.1,0,6.7c1,3,3.3,3.2,6.1,4c1,0.2,0.8,1.3,1.4,1.6c1.6,0.5,2.6,0.9,3.9,2c0.9,0.8,2.4,0.2,3.4,1.1
		c0.6,0.6,2.1,3.6,1.7,4.5c-0.4,0.8-1,1.5-0.7,2.5c0.1,0.2,0.6,2.7,0.8,2.7c1.6,0.2,4.3,0.1,5.8,0.9c0.5,0.3,0,1.7-0.1,2.1
		c-0.1,1.5,0.9,0.9,1.3,2.1c1,2.7,0.1,4.6-0.2,7.3c-0.3,2.8-1.5,2.9-2.7,0.6c-1.4-2.7-5.7-1.6-8-1.2c-0.5,0.1-3.2,0.1-3.6,0.6
		c-0.9,1.5-1.9,2.6-2.1,4.3c-0.2,1.7-0.8,3.2-1.5,4.7c-0.2,0.4-1.7-0.8-2-0.9c-0.8-0.3-1.8-0.5-2.6-0.3c-0.7,0.1-0.8,1.6-1.3,2
		c0.3-0.2-2.4-1.7-2.8-1.8c-1.7-0.4-2.4-0.5-3.5-1.8c-1.1,1-2.1,1.9-3.2,2.9C1448.9,1103.1,1447.7,1102.5,1446.5,1102.3
		C1446.1,1102.2,1447.3,1102.4,1446.5,1102.3z"/>
	<path class="st1" d="M1459.4,1055.8c1,3.5-1.4,6.1,1.5,9c1.3,1.3,3.4,1.4,5.1,1.8c0.5,0.1,0.3,1.1,0.8,1.3c1.3,0.4,2.6,0.7,3.5,1.6
		c1.1,1.1,2.8,0.4,3.9,1.6c1,1.1,1.9,3.5,1.1,4.9c-0.7,1.3-0.1,3.1,0.4,4.4c0.2,0.7,3.5,0.7,4.3,0.8c2.1,0.3,1.7,0.5,1.5,2.6
		c-0.1,1,1.4,2,1.8,3c0.3,0.8-0.4,8.8-1.8,8.4c-0.9-0.2-1.4-2.4-2.3-2.9c-2.5-1.4-5.5-0.5-8.2-0.1c-2.7,0.4-2.8,0.8-4.1,2.9
		c-1.1,1.8-1.3,4.6-2.1,6.7c-1.2-0.8-1.9-1.1-3.4-1.3c-1.6-0.2-1.6,0.5-2.3,2c-1.1-1.3-1.4-1.6-3.1-1.9c-1.7-0.4-2.1-0.5-3.1-1.8
		c-1.1,1-2.1,1.9-3.2,2.9c-0.6,0.5-3.1,0.9-3.3,0c-0.4-1.7-0.3-3.6-0.3-5.4c-0.1-1.4-0.8-2.5-1.5-3.8c-0.7-1.3,0.7-1.3,0.8-2.3
		c0.3-1.4-0.2-1.7-1.1-2.7c-1-1,0.3-3-0.7-4.1c-0.3-0.3-1.7-1.5-1.2-2.1c0.8-0.9,2.8-2.3,2.1-3.6c-1.2-2.3,0.5-3.2-0.1-5.5
		c-0.1-0.4,1.1-1.4,1.2-2.2c0.1-1.4,0-3.1,0.5-4.5c0.5-1.3,1.1-1.5,0.3-2.9c-0.7-1.3-1.3-2.7-2-4.1c2.4,0.5,5.2,1.5,7.3-0.3
		c0.9-0.8,1.8-1.6,2.8-2.4C1455.6,1055.4,1458.2,1055.8,1459.4,1055.8 M1459.4,1055.4c-1.5-0.1-3.9-0.3-5.1,0.7
		c-1.5,1.2-2.7,2.3-4.5,3c-2.2,0.8-6.9-2.3-4.8,1.7c0.8,1.5,2,3,1,4.5c-1.2,1.7,0,4.2-0.9,6c-0.3,0.5-1,0.5-1,1.2
		c0,0.6,0.7,1.3,0.3,1.9c-0.7,0.9-1.2,1.8-0.6,2.9c0.8,1.5,0.8,1.5-0.4,2.8c-1.7,1.8-0.8,2.5,0.2,4.2c0.9,1.4-0.5,3.1,1.1,4.4
		c1.5,1.2,0,1.6-0.3,2.6c-0.8,1.3,0.4,2.5,1,3.5c0.9,1.5,0.7,4.5,0.7,6.2c0,2.1,1.4,1.7,3.1,1.9c0.9,0.2,3.3-2.8,3.9-3.4
		c1.6,1.9,4,1.2,5.5,3c0.9,1,1.3,0.1,1.6-0.8c0.4-1.1,1-0.8,2-0.6c2.5,0.4,2.6,2.2,4-0.9c0.6-1.3,0.6-2.6,0.8-4
		c0.1-1,1.4-2.4,1.9-3.2c0.5-0.8,6.1-1.1,7.1-1.1c2.7-0.1,3.8,1,5.1,3.1c1.6,2.5,2.5-4.2,2.6-4.7c0.4-1.8,0.7-4.8-1.3-5.8
		c-1.7-0.8,1.5-3.2-1.3-3.6c-1.5-0.2-3.2-0.1-4.6-0.7c-0.5-0.2-0.9-2.4-0.9-3c0-0.8,1-1.8,0.7-2.6c-0.5-1.5-1-4.7-3.1-4.9
		c-1.4-0.4-1.9,0.1-2.8-1.1c-0.7-0.9-2.1-0.8-3-1.3c-0.8-0.4-0.9-1.3-1.8-1.7c-0.9-0.4-1.9-0.4-2.9-0.6c-2-0.5-3.5-2.8-3-4.7
		C1459.8,1059.9,1461.2,1055.6,1459.4,1055.4"/>
	<path class="st1" d="M1516.1,1033.8c-2.3-0.9-2.5-0.7-2.4-3.4c0.1-2.5,1.7-2.5,4-2.4c1.7,0.1,4.8,0,3.7,2.4
		C1520.7,1031.9,1517.9,1034.4,1516.1,1033.8"/>
	<path class="st1" d="M1520,1028.3c1.9,0.8,1.7,1.8,0.2,3.3c-1.2,1.3-2.9,2.3-4.8,1.7c-2.2-0.8-1.5-2.1-1.4-4.2
		C1514,1027.6,1519.1,1028.3,1520,1028.3 M1520,1027.9c-1.5-0.1-5.4-0.7-6.3,0.8c-0.5,0.8-0.2,2.1-0.3,3c-0.1,1.5,0.5,1.5,1.8,1.9
		C1518.9,1035,1524.3,1028.3,1520,1027.9"/>
	<path class="st1" d="M1492.8,1149.8c-1.8-0.7,1.2-3.9,1.1-4.3c-0.2-0.8-1.4-2-1.8-3c-0.4-1.2-2.7-2.1-3.7-2.9
		c-0.7-0.5-1.3-1.9-2-2.2c-1.3-0.6-1.6,1.3-2-0.9c-0.6-3.8-3.7-1.1-5-2.5c-0.1-0.1,7.7-6.9,8.4-7.5c1.2-1.1,2.4-2.3,3.9-2.9
		c1.9-0.8,2.1-0.8,2.6-2.6c0.3-1.1,0.2-2-0.2-3.1c-0.4-1.1-2.8,0-2.3-1.6c0.5-1.4,1-2.9,1-4.4c0-1.8-1.3-1.4-2.9-1.7
		c-2.1-0.3-0.2-5.4-2.8-6.5c-1.1-0.4-2.2,0.3-3.3,0c-1.7-0.5-2.5-0.7-2.5-2.6c0-1.8,0-3.6,0-5.5c0-0.5,0.7-0.2,0.8-0.7
		c0.2-1.1,0.4-2.3,0.7-3.4c0.3-1.5,0.7-3,0.3-4.5c-0.3-1-1.8-1.9-1.8-2.7c0.2-2.4,0.4-2.5-1.9-2.8c-1.1-0.2-3.5,0.1-4-1.2
		c-0.4-1-0.4-2-0.7-3c-0.2-0.8,0.7-1.5,0.8-2.2c0.1-0.9-0.8-2.3-1.1-3.1c-0.5-1.2-1.7-1.4-2.9-1.5c-1.3-0.1-1.9-1.4-3.2-1.8
		c-0.6-0.1-1.2-0.3-1.7-0.6c-0.5-0.2-0.3-1.2-0.8-1.3c-1.7-0.4-3.8-0.6-5.1-1.9c-0.9-0.9-1.4-1.5-1.8-2.8c-0.4-1.5,0.9-3.1,0.8-4.6
		c-0.1-3-4.5-1.5-5.9-0.3c-1.2,1-2.3,1.6-3.7,2.3c-1.6,0.8-3.3-0.2-4.9-0.5c-1-0.2-3.5,1-3.8-0.7c-0.2-1.6,0.3-3.5,0.5-5.1
		c-1.5,0.7-5.2,3.2-6.2,0.5c-0.4-1.1-0.9-0.9-2-1.1c-0.7-0.1,0.1-1.6-0.2-2.1c-1.8-2.3-2.8-3.6-1.6-6.4c0.4-0.9,1.8-1.2,2-2.1
		c0.3-1.7,0.7-2.2,1.9-3.6c2.1-2.4,5.4-2.7,8.3-3.2c2.4-0.5,2.8-5.3,3.5-7.5c0.8-2.6,0.5-3.6-1.1-5.8c-0.4-0.6-0.3-2.8,0.6-2.9
		c0.8-0.1,1.7,0.1,2.5,0.1c-0.5-1.4-2.2-1.3-2.1-2.6c0.2-2.4,1.9-1.5,4.1-1.3c1.4,0.1,1.5-0.9,2.6-0.1c0.5,0.4,1.2-0.4,1.7-0.3
		c0.7,0.1,1.2,2.4,1.4,3c1.1-0.7,1.4,0.6,2,1.2c0.8,0.9,2.9,0.5,3.9,0.1c2.4-1.1,4.3-2.4,6.7-3.3c1.2-0.4-0.6-0.8-0.9-0.8
		c-1.4-0.1-1.6-0.1-1.7-1.6c-0.1-0.8,0.7-2.8-0.1-3.4c-0.8-0.5-1.5-1-1.1-2.1c0.2-0.4,3,0.8,3.3,1c1.8,0.7,2.8,1,4.7,0.4
		c1.6-0.4,3.1-0.9,4.7-1.2c1.1-0.2,1.1-2,2.1-2.1c2.9-0.2,1.2,2,3,2.7c1.7,0.6-0.6,4.3-0.8,5.2c-0.3,1.5,0,3.8,1.1,4.9
		c2.6,2.6,6-1.2,8.9-0.6c1,0.2,2.7,1.1,3.1-0.1c0.6-1.6,1.7-1.2,3.3-1.3c2.2-0.1,3.9,3.6,6.5,1.9c1.4-0.9,2.4-1.7,3.4-3.1
		c0.6-0.7,1.9-3.5,3-3.5c1.4,0,1.9,4.5,2.1,5.4c0.2,1,0.3,2.8,1.3,3.4c1.5,0.9,1,1.2,0.3,2.7c-0.6,1.3-2.8,2.6-3.9,3.6
		c-1.4,1.3-1.1,1.6-1.1,3.3c0.2-0.1,2-1.5,2.2-1c0.2,0.5-1,0.6-0.5,1.1c0.6,0.6,0.7,0.9,0.5,1.7c-0.3,1.9-2.2-0.3-2.9,0.7
		c1.5-0.3,3.3,0.1,4.8,0.2c2.1,0.1,2.3-0.1,2.2,1.9c1-1.5,1.2-1.9,2.8-2.3c0.7-0.2,1.3-1.9,1.7-2.5c0.3-0.6,1.5-0.2,1.9-0.2
		c2.4,0.1,6.9,1.6,7.6,4.1c1.3-0.4,3.4,0.1,2.1,1.9c1.3,0.5,1.3,0.4,0.7,1.8c1.7-0.6,2.5-1.2,4.2-0.4c2.1,1,4,2.1,6.4,2.4
		c1.7,0.2,3.6-0.1,5.2,0.4c1.8,0.6,3.3,2.7,4.7,4c1.2,1.2,2.7,3.2,4.3,3.9c1.3,0.6,4.6,0.2,5.3,1.5c2.2,3.9,1,7.7-0.2,11.8
		c-0.9,3-4.4,5.9-6.9,7.6c-1.7,1.1-2.6,2.7-3.5,4.4c-0.3,0.6-0.8,1.4-1.4,1.7c-0.6,0.3-2.3,0.6-2.6,1.4c-1.1,3.6-0.2,7.2-1.2,10.7
		c-0.4,1.6-0.6,3.8-1.6,5.1c-1.2,1.5-1.5,2.6-1.9,4.5c-0.8,3.6-4.5,6-5.7,9.6c-0.3,1.1-3.1,2.7-4,3.5c-1,0.9-5.4-0.1-6.7-0.1
		c-1.7-0.1-1.4,0.9-2.8,1.4c-1.8,0.6-3.7,1.2-5.5,1.8c-2.7,0.9-6.7,4-8.1,6.5c-0.6,1.1-0.9,3.3-0.3,4.5c0.5,1-0.7,3-0.8,4.1
		c-0.2,1.5-1.8,2.4-2.8,3.4c-1.4,1.3-2.1,2.5-2.9,4.2c-1.5,3.2-4.1,5.5-7.1,7.3c-1.7,1-1.7,2.7-3.1,4
		C1495.4,1147.6,1493.4,1149.9,1492.8,1149.8"/>
	<path class="st1" d="M1482.9,1006.6c0,0.7,0,1.3,0,2c0,0.5,1.1,0.2,1.2,0.7c0.1,0.5,0.3,1,0.3,1.6c0.1,0.7-0.9,0.9-1.1,1.6
		c-0.3,1.5-1.1,2.8-0.1,4.1c0.7,0.9-0.3,1.7,0.9,2.7c3.1,2.7,5.7-1.7,8.9-0.7c1.1,0.4,3,1.3,3.5-0.1c0.5-1.3,2.4-1.6,3.7-1
		c0.9,0.5,2.1,1.9,3.1,1.9c2,0.1,3.2-0.4,4.9-1.5c2-1.2,4.5-8.6,5.7-2.6c0.4,1.9,0.9,3.7,1.3,5.6c0.4,1.7,2.3,0.2,1,2.6
		c-0.8,1.5-2.7,2.9-4.1,3.9c-1.6,1.2-1.1,2-1,3.8c0.7-0.4,1.5-0.8,2.2-1.2c-0.5,0.6-0.9,0.7-0.2,1.3c0.3,0.3,0.5,1.9-0.2,2
		c-1.3,0.1-2.2-0.8-2.6,0.8c0.9-1.1,3.7-0.4,5-0.3c2.5,0.1,2.3,0,2.2,2.4c1-1.6,1.4-2.4,3.2-3c1.2-0.4,0.9-2.6,2.3-2.6
		c2.9,0.1,7.7,1.1,8.6,4.2c1.5-0.5,3.2,0,2,1.8c0.5,0.2,0.9,0.3,1.4,0.5c-0.2,0.5-0.4,1-0.7,1.5c0.5-0.2,2.8-1.4,3.3-1.1
		c2,1,4,2.2,6.3,2.7c1.8,0.4,3.7,0.3,5.6,0.5c1.8,0.2,3.2,1.7,4.4,3c2.5,2.8,4.6,5.2,8.4,5.7c4.2,0.6,4,6,3,9.2
		c-1.3,4.1-2.9,7-6.4,9.6c-1.3,1-2.8,1.8-3.7,3.3c-0.8,1.3-1.6,3.5-3,4.1c-1.6,0.7-2.1,0.7-2.5,2.3c-0.6,2.4-0.6,4.3-0.6,6.8
		c0,2.1-0.7,4.1-1.2,6.1c-0.4,1.8-1.8,2.9-2.2,4.7c-1,4-3.7,6.1-5.5,9.7c-0.6,1.3-0.9,2.4-2.2,3.1c-1.2,0.7-2.1,2.1-3.4,2
		c-1.8-0.1-3.5-0.2-5.3-0.2c-2.1-0.1-1.5,0.9-3.3,1.4c-1.9,0.6-3.9,1.3-5.8,1.8c-1.6,0.4-3.1,2.4-4.5,3.3c-3.3,2.2-3.8,4.6-3.2,8.2
		c0.1,0.8-1,4.4-1.5,4.8c-1.3,1-2.6,2.1-3.7,3.4c-2,2.3-2.7,6.2-5.4,8c-1.6,1-4.3,2.1-4.9,4c-0.5,1.9-2.6,3.2-4,4.5
		c-0.1-2.3-0.1-2.5,1.4-4.1c0,0-1.8-1.8-1.8-2.1c-0.3-2.1-2.9-3.2-4.5-4.4c-1.6-1.2-1-2.1-3.1-1.4c-0.4-3.1-2.3-3.7-5.1-3.6
		c3.8-3.3,8-8.5,12.7-10.4c2.1-0.8,2-1.5,2.5-3.6c0.5-2-1.5-2.8-2.9-3.1c0.2-0.7,2-6,0.9-6.4c-0.6-0.2-3.2,0-3.5-0.6
		c-0.6-1.4-0.5-3.8-0.7-5.4c-0.2-2-6.1,0-7.1-2.1c-0.7-1.6-0.2-4.8-0.2-6.5c0-0.8,0.7-0.4,0.9-1c0.4-1.8,0.7-3.7,1.1-5.5
		c0.3-1.3,0-2-0.4-3.2c-0.3-1-1.6-0.8-1.5-1.9c0.1-0.8,0.8-2.4-0.3-2.6c-1-0.2-2-0.3-3-0.4c-0.7-0.1-2.4,0.1-2.6-0.8
		c-0.3-1.3-1.1-2.9-0.4-4.1c0.8-1.5-0.2-4.6-1.7-5.4c-0.8-0.4-1.9-0.1-2.7-0.6c-1.5-0.9-2.4-1.6-4.1-2.2c-0.9-0.3-0.6-1.3-1.9-1.6
		c-1.7-0.5-3-0.7-4.4-1.9c-2-1.7-1.5-3.8-0.8-6.1c0.8-2.9-1.3-2.6-3.3-2.6c-2.4,0.1-3.6,2.2-5.7,3.3c-2.6,1.3-4.6-0.6-7.2-0.1
		c-3.2,0.6-1.6-4-1.4-6c-1.7,0.8-3.3,2-5.2,1.8c-0.9-0.1-0.9-0.7-1.2-1.4c-0.3-0.8-1.4-0.7-2.1-0.8c0.5-2.3-1.4-2.5-1.9-4.6
		c-0.4-1.7-0.6-3.6,1.2-4.8c1.5-1,1.3-2.6,2.5-4c1.8-2,4-2.9,6.6-3.3c2.4-0.4,3.5-0.1,4.1-2.6c0.6-2.4,1.4-4.7,2.1-7
		c0.7-2.4-1-2.9-1.7-4.7c-1-2.8,1.5-2.3,3.3-2.2c-0.4-1.2-0.4-1.6-1.6-1.9c-0.9-0.2-0.4-1.7-0.4-2.4c1.6,0.1,4.9,1.2,5.7-0.4
		c1.3,1.2,1.5-0.3,2.6,0.2c0.5,0.3,0.9,2.6,1.1,3.1c1.2-0.7,1.6,0.6,2.3,1.4c0.4,0.5,2,0.3,2.5,0.2c2.9-0.3,4.7-2.9,7.2-3.6
		c1.4-0.4,1.8-1,0-1.2c-1.6-0.2-1.8-0.1-1.8-1.8c0-0.6,0.5-2.5,0.1-2.9c-0.9-0.9-1.3-0.8-1.4-2.2c1.8,0.6,3.6,1.3,5.3,2
		c1.3,0.5,4.1-0.8,5.4-1.2c1.7-0.5,2.6-0.5,3.4-2.1C1481.1,1005.9,1482.1,1006.5,1482.9,1006.6 M1483,1006.2
		c-0.9-0.1-2.1-0.5-2.7,0.3c-0.8,1.3-1.2,1.4-2.7,1.8c-1.6,0.4-3.9,1.5-5.5,1.3c-1.5-0.2-3.1-1.1-4.5-1.6c-3.6-1.3,0.1,2.5,0,2.9
		c-0.3,3.2-0.7,4.1,2.8,4.6c-0.9,0.8-2.1,0.6-3.1,1.6c-0.9,1-2.3,1.2-3.5,1.7c-1.1,0.5-2.7,1.1-3.9,0.3c-0.6-0.4-1.3-2.3-2.3-1.5
		c-0.8-2.1-0.6-3-2.8-2.5c-0.5,0.1-0.8-1-1.4-0.6c-1,0.7-0.9,0.7-2.4,0.6c-1.4-0.1-3.3-0.9-3.5,0.9c-0.2,2.4,1.4,1.3,2,3
		c-0.6,0-2.7-0.5-3,0.4c-0.2,0.5-0.6,2.2-0.1,2.7c2.6,2.4,1.3,5.1,0.3,8.2c-0.5,1.6-1,3.1-1.5,4.7c-0.1,0.4-1.9,0.5-2.2,0.5
		c-2.4,0.3-4.8,0.8-6.7,2.5c-0.8,0.7-1.8,1.6-2.2,2.6c-0.2,0.5-0.3,1-0.3,1.5c-0.1,0.8-1.1,0.7-1.5,1.3c-1.6,2.6-1.4,4.7,0.8,7
		c0.7,0.7,0.4,0.9,0.3,1.7c-0.2,1.5,1.7,0.5,2.2,1.4c1.4,2.9,3.8,1.1,6.1,0c-0.1,1.6-1,4.4,0.1,5.7c0.5,0.5,4.2,0.1,5.1,0.4
		c1.9,0.5,3.5,0.2,5.3-0.8c2.4-1.4,2.7-2.5,5.6-2.6c3.4-0.1,0.2,5.3,1.6,7.6c0.5,1.4,3.2,2.3,4.4,2.6c2,0.4,2.7,1.8,4.6,2.4
		c1.3,0.4,2,1.9,3.3,1.9c1.6,0.1,2.2,0.2,2.8,1.8c0.3,0.7,0.6,1.4,0.8,2.1c0.2,0.8-0.6,1.5-0.8,2.3c-0.3,0.6,0.6,4,1.3,4.2
		c1.3,0.4,3,0.5,4.3,0.6c1.7,0.1,1.1,0.9,1,2.3c-0.1,1.3,1.3,1.6,1.7,2.8c0.7,2.3-0.3,4.7-0.7,7c-0.2,1.1-0.1,0.8-0.8,1.3
		c-0.5,0.4-0.2,2.2-0.2,2.8c0,1.4-0.7,4.5,0.9,5.2c1.9,0.8,2.8,0.5,4.7,0.7c2.5,0.2,2,4.2,2.2,6c0.3,2.6,4.5-1.1,3.5,3.5
		c-0.2,0.9-1.7,3.7-0.2,4.1c1.8,0.4,2.6,1.6,2,3.6c-0.7,2.1-1.2,1.7-3.2,2.7c-2,0.9-3.7,3.1-5.4,4.5c-1.7,1.5-3.4,3-5.1,4.5
		c-1.4,1.2-1.7,1.8,0.4,1.7c1.6-0.1,3.3,1.1,3.3,2.8c0,1.7,1.3,0.1,2,0.4c0.8,0.3,2.1,2.3,2.9,2.9c1.6,1.2,2.3,1.5,2.9,3.3
		c0.3,0.8,2,1.5,1.3,2.2c-1.3,1.1-1,2-0.9,3.5c0.1,1.4,4.5-3.2,4.7-4c0.5-1.7,1.8-2.1,3.2-3c1.5-1,2.6-2.2,3.7-3.5
		c1.4-1.6,2.2-3.6,3.1-5.5c0.7-1.4,3-2.7,4.2-3.8c1-0.9,0.2-3.2,1.1-4.1c0.5-0.5-0.2-2.8-0.2-3.5c-0.2-1.4,1-3,2.1-3.9
		c1.9-1.4,3.9-3.8,6.2-4.5c2.1-0.7,4.3-1.4,6.4-2.1c0.4-0.1,0.4-1.2,0.9-1.2c1.1,0.1,2.3,0.1,3.4,0.2c1.2,0.1,3,0.6,4.2,0.2
		c0.6-0.2,1-1.1,1.6-1.5c0.8-0.6,2.2-1,2.7-2c0.9-1.8,1.5-3.2,2.8-4.9c1.2-1.6,2.5-2.7,2.9-4.7c1.1-4.5,3.9-7.9,3.8-12.9
		c0-2.5,0.2-4.5,0.8-6.9c0.4-1.7,2-1.4,3.1-2.5c1.4-1.4,1.9-3.9,3.5-5c1.8-1.3,3.4-2.6,4.9-4.2c2.3-2.5,5-6.4,4.7-10.1
		c-0.2-1.9,0.1-3.9-1-5.6c-1.2-1.7-4.1-1.7-6-2.1c-1.2-0.3-3.1-3-3.9-3.8c-1.4-1.3-2.9-3.5-4.8-4.2c-1.6-0.5-3.4-0.4-5-0.5
		c-2.6-0.2-4.3-1.2-6.6-2.3c-1.7-0.8-2.2-0.2-3.8,0.3c0.5-1.1,0.3-1.2-0.8-1.5c1.4-1.5-1.2-2.5-2.3-2.1c-0.8-2.8-6.1-4-8.7-4.1
		c-1.4-0.1-1.6,1.2-2.2,2.2c-0.4,0.6-1,0.7-1.7,0.9c-0.7,0.2-1,1.1-1.4,1.6c0-2.2-2.6-1.4-4.4-1.5c0-0.3-0.2-2.8-0.3-2.8
		c1.5-1.5-1.4-0.2-1.8,0c-0.1-2.1,0.3-2.2,1.9-3.7c1.5-1.4,2.8-2.4,3.7-4.3c0.4-1-1.5-1.7-1.8-2.8c-0.4-1.9-0.6-4.8-1.6-6.4
		c-2-3.1-5,4.1-6.9,5c-0.8,0.4-3.1,1.2-4,0.5c-1.2-0.9-2.1-1.9-3.7-2c-1.4-0.1-2.6-0.1-3,1.3c-0.4,1.3-3,0-3.9-0.2
		c-3-0.6-5.3,3.6-8.2,0.7c-0.3-0.3-1.1-3-1.1-3.4c0.1-0.8,0.4-2.9,1.1-3.4c0.9-0.7,0.9-2.6-0.2-3.2
		C1483,1008.2,1483.6,1006.2,1483,1006.2"/>
	<path class="st1" d="M1512.2,1029.9c-2.3-0.7,2.1-2.9,2-2.6C1514,1027.8,1513.6,1030.1,1512.2,1029.9"/>
	<path class="st1" d="M1514.1,1027.4c-1,0.5-1,0.8-0.1,0.9c-0.6,0.5-1.1,1-1.7,1.4C1511.9,1028.4,1512.9,1027.9,1514.1,1027.4
		 M1514.1,1027c-2.5-0.2-2.5,3.7-1.3,2.8C1513.3,1029.4,1515.3,1027.1,1514.1,1027"/>
	<path class="st1" d="M1517.2,1028.2c-0.4,0,0.3-1.1,0.6-1.2C1518.3,1026.9,1518.4,1028.3,1517.2,1028.2"/>
	<path class="st1" d="M1517.8,1027.2c0.6,0.6,0.4,0.9-0.6,0.8C1517.4,1027.8,1517.6,1027.5,1517.8,1027.2 M1517.8,1026.8
		c-0.7,0.1-1.3,1.8-0.5,1.6C1517.9,1028.2,1519.3,1026.9,1517.8,1026.8"/>
	<path class="st1" d="M1515.1,1027.3c-0.9-0.1,0-2.7,0.9-1.3C1517.1,1027.7,1516.9,1027.7,1515.1,1027.3
		C1514.2,1027.2,1515.4,1027.4,1515.1,1027.3z"/>
	<path class="st1" d="M1515.6,1025.8c0.4,0.6,0.7,1.1,1.1,1.7C1515.7,1027.3,1514,1026.8,1515.6,1025.8 M1515.7,1025.4
		c-1.9-0.2-0.8,2.2,0.7,2.4C1517.9,1027.9,1516.3,1025.4,1515.7,1025.4"/>
	<path class="st1" d="M1421.3,1240.9c-1-0.7-1.9-1.1-2.1-2.3c-0.2-1,0.8-1.3,0.9-0.2c1.2-0.7,2.4-1.1,3.1-2.3
		c1.2-1.7-2.9-2.1-3.6-2.2c-3-0.3-0.3-0.7-0.5-2.2c0-0.3-0.4-2.9-0.2-2.8c0.2,0.7-1.1,0.1-1.3,0c0.6,1.3-0.6,2-1.1,0.3
		c0,0.4,0.4,1.9-0.5,1.3c-0.8-0.4-0.5-2.9-0.5-3.7c-0.1-1.5-3.4-3,0.1-3.5c-0.1-0.5-2.9-0.6-0.6-1.7c-0.4-0.4-2.5-1.6-2-2.4
		c0.5-0.7,1-2,1.9-2.3c1.2-0.3,0.6-0.9,0.9-2c-0.3,0.3-0.8,0.9-1.3,1c1.2-0.1-1.8-6.2,1.9-4.7c-0.4-1-1.1-0.3-1.9-0.6
		c-0.4-0.2-0.5-2.3-0.3-2.6c0.3-0.4,0.9,1,1,1.1c0.3-1.3,1.6-0.3,2.5,0c-0.3-0.6-0.7-1.3-1-1.9c-0.2-0.3-0.8,0.3-1,0.1
		c0-0.3,0.1-0.6,0.3-0.8c0.2-0.5-1-0.8-1.3-1c-0.5-0.3,1.3-1.1,1.4-1.2c-0.8-0.7,0.4-0.6,0-1.4c-0.6-1.1-1.3-0.1-2.1-0.7
		c-2.9-2.2-1.1,0.4-2.3,0.5c-1.2,0.1-0.9-1.6-0.5-2.1c0.6-1,3-0.9,2.4-2.3c-0.7-1.6,0.6-1,1.9-0.9c1.5,0.1,0.8,2.8,1.1,2.7
		c0.1,0,0.6-0.9,0.7-0.8c0.2,0.2,0.1,0.9,0.1,1.1c0.5-0.4,1.2-0.7,1.3-1.4c-0.2,0.4-0.5,0.5-0.8,0.3c-0.2-1,0.4-1.7,1.2-2.1
		c-0.4-0.2-0.4-0.4,0-0.6c-0.3,0.2-0.5,0.2-0.8,0c-0.2-0.7,1-1,1.4-1.2c-1.9-1.4,0.5-2.2,1.5-2.6c2.3-1-1.8-2.8-0.5-4.1
		c1.1-1.1,0.2-1.1,0.2-2.4c-0.2-0.7,1.1-1.8,1.4-2.2c0-0.4-0.1-0.8-0.2-1.1c-0.1-0.5,0.8-0.4,0.9-0.8c-0.1,0.4-0.2-2.8,0.6-1.1
		c0.3-0.7,0.2-1.2-0.4-1.4c-0.3,0.1-0.6,0-0.7-0.3c0.1-0.6,1.1-1.1,1.6-1.4c-0.8-0.2-1.6-0.7-2.3-0.2c-0.4,0.3-1,0.9-1.5,0.4
		c-1.1-1.2-1.2-2.1-0.9-3.6c0.4-2,0.5-4.2,1.7-6c1.1-1.6,0-3.7,0-5.6c0-0.9,0-4.7,0.8-5.1c1.4-0.7,1.3-0.4,1.3-2.1
		c0-0.9,0.8,0,1-0.4c0.5-1.2,1.1-2.3,1.6-3.5c1.2-2.7,2.5-5.4,3.7-8.1c1.8-3.8,0.6-8.5,0.9-12.5c0.1-1.9,1.7-2.4,1.6-4.4
		c-0.1-2.7,0.7-4.5,1.7-7c0.8-2,1.5-3.7,1.7-5.8c0.2-1.8,1.2-3.4,1.3-5.2c0-1.6-0.5-5.1,0.5-6.3c1.3-1.5,1.8-3.9,1.8-5.9
		c0.1-2.5,0.2-5,0-7.5c-0.1-1.1-1.1-5,0.4-5.2c1.4-0.2,1.8-0.4,2.6-1.4c1.1-1.6,2,2.3,2.1,3.1c0,1.7,0.3,1.6,1.3,2.8
		c0.4,0.5,0.3,2.2-0.3,2.6c-1.1,0.7-0.6,1.6,0,2.5c1.1,1.7,1,3.9,1.2,5.9c0.2,2.1-0.1,2.3,1.9,2.6c1.7,0.3,1.2,2.2,0.9,3.4
		c-0.4,1.7-1.3,1.7-2.9,2.3c-2.2,0.8-2.4,1.3-2.6,3.5c-0.2,1.8,0.1,3.4,0.2,5.2c0.1,1.9-0.9,1.2-2,2.3c-3.1,3.1-3.7,7-4.9,11.1
		c-0.9,3.2-2.9,4.8-2,8.3c0.7,2.8,2,6.5,0.3,9.1c-0.9,1.3-2.1,2.6-2.1,4.2c-0.1,1.8,0,2.4-1.1,3.6c-2.3,2.4-1.9,6.1-1.8,9.3
		c0,0.7-1.1,1.5-1.3,2.2c-0.6,1.4-1.5,3-1.7,4.5c-0.3,1.7-0.8,3.4-0.9,5.2c-0.1,1.3,0.9,2.4,0.2,3.6c-0.7,1.2-1.3,1.8-1.3,3.3
		c0.1,1.8,0.2,3.5,0.2,5.3c0,0.8-0.1,1.5-0.2,2.3c0,0.3,1.3,0.5,1.4,0.7c1.1,1.3-1,1.4-1.7,1.6c0.8,1,1.8,1.5,1,2.8
		c-0.6,1.1-0.7,2.2-0.8,3.4c-0.1,1.3-0.2,2.7-0.8,3.9c-0.7,1.3-2.5,3.3-2.5,4.8c0,2.7-0.3,4.6-2.1,6.8c-2.1,2.5-2.3,5.4-2.5,8.5
		c1-0.1,2.3-0.5,3.2-0.1c0.6,0.2-0.3,5.3-0.1,6.2c0.4,1.7,5.4,1.5,6.8,1.6c0.9,0.1,6.4,1.4,6.4,2.3c0-0.1-3.5-0.6-4.2-0.2
		c-1.3,0.6-2.6,1.2-3.9,1.8c-1.2,0.6-1.3,2.9-1.6,4.1C1423.3,1241.2,1423.3,1241.1,1421.3,1240.9
		C1420.6,1240.4,1421.6,1240.9,1421.3,1240.9z"/>
	<path class="st1" d="M1442.7,1082.5c1,1.2,1.4,1.6,1.5,3.2c0,1.5-0.2,1.9,1.1,2.8c1.9,1.4-1.3,2.9-0.6,4.3c0.4,0.8,1.3,1.6,1.4,2.4
		c0.2,1.9,0.3,3.7,0.5,5.6c0.2,2.3,4,0.7,2.9,3.7c-0.4,1.1-0.4,2.3-1.7,2.6c-0.7,0.2-3.2,0.6-3.5,1.3c-1.2,2.7-0.5,6-0.3,8.8
		c0,0.5-1.4,0.9-1.7,1.1c-0.9,0.6-1.1,1.9-2.1,2.6c-2,1.5-2.6,5.6-3,8c-0.5,3.2-3,5-2.4,8.5c0.3,2,2.3,7.1,1.1,9c-0.7,1-1.4,2-2.1,3
		c-0.8,1.2-0.5,2-0.6,3.4c-0.1,1.3-1,1.8-1.8,2.6c-1,1.2-1.1,3.1-1.3,4.6c-0.1,1.3,0.3,2.6,0,3.9c-0.3,1.4-1.5,2.9-2,4.3
		c-1,2.6-2.7,6.7-1.7,9.5c0.4,1.2,0,1.6-0.6,2.6c-1,1.5-0.8,2.7-0.7,4.4c0.1,2,0.1,4-0.2,6c0-0.1,1.7,1.1,1.8,1.5
		c-0.7,0.2-1.4,0.3-2.2,0.5c0.6,0.7,1.9,1.6,1.3,2.7c-0.6,1.1-0.8,2.2-0.9,3.4c-0.1,1.3-0.1,2.8-0.8,4c-0.7,1.2-2.5,3.3-2.6,4.7
		c-0.1,2.9-0.3,4.6-2.1,6.9c-2,2.8-2.4,5.4-2.5,8.8c1.1-0.1,2.2-0.1,3.4-0.2c-0.1,2.3-1.6,6.8,1.5,7.2c4.2,0.6,7.6,1.2,11.6,2.8
		c-2.6-0.7-3.4-0.7-5.8,0.4c-2.9,1.4-3,1.5-3.8,4.6c-0.6,2.2-1.1,3.4-3.4,1.7c-1.5-1.2-0.7-3.1-0.5-1.4c1.1-0.6,3.4-1.3,3.7-2.9
		c0.3-2.3-4.1-2.1-5.3-2.2c1.2-1.6,1.2-1.6,0.5-3.3c-0.1-0.2,0.6-0.8,0.7-1c0.3-0.4-1.3-1.4-1.5-1.6c0.3,0.4,0.6,0.9,0.9,1.3
		c-0.5-0.2-1-0.3-1.5-0.5c0.4,0.8,0.4,1-0.2,1.8c-0.3-0.8-0.6-1.7-0.8-2.5c0,0.9,0.1,1.8,0.1,2.7c-1.2-0.5-0.4-2.5-0.6-3.4
		c-0.4-1.6-3.2-3,0-3.5c-0.1-0.9-2.9-0.7-0.5-1.8c-1.3-1.2-2.7-1.6-1.5-3.3c0.6-0.9,0.6-1.2,1.6-1.3c0.7-0.1,0.5-1.9,0.7-2.7
		c-0.5,0.5-1,1-1.5,1.5c0.1-1.6,0.3-3.3,0.4-4.9c0.6,0.2,1.1,0.5,1.7,0.7c-0.5-1.3-0.6-1.1-1.9-1.1c-0.7,0-0.4-1.9-0.4-2.3
		c0.3,0.5,0.6,1,0.9,1.5c0.4-1.7,1.5-0.6,2.8-0.1c-0.6-1.1-0.8-2.8-2.3-2.3c0.6-1.3,0.1-1.2-1.1-1.9c0.6-0.3,1.1-0.6,1.7-0.9
		c-1.1-1.3,0.4-0.5,0.1-1.1c-1.3-2.2-1-0.2-2.4-1.3c-1.2-1-2.4-1.9-2.3,0.5c-1-1-0.7-1.8,0.6-2.5c1.9-1,2-0.8,1.1-2.7
		c1.5,0.1,2.7-0.2,3,1.5c0.1,0.6-0.3,2.2,0.9,0.6c0,0.5-0.1,0.9-0.1,1.4c1-0.8,1.5-1.3,2-2.5c-0.4,0.3-0.8,0.6-1.1,1
		c0.3-1.5,0.3-1.6,1.6-2.2c-1-0.1-0.9-0.5,0.3-1c-0.5,0.1-1,0.3-1.5,0.4c0.4-0.7,0.9-0.8,1.7-1.1c-1.8-1.3-0.3-2.1,1.2-2.6
		c2.2-0.7-0.3-2.8-1-3.4c0.6-0.7,1.5-1.3,1.2-2.3c-0.6-1.7,1.1-1.9,1-3.4c0-0.6,0.7-1.8,0.6-2c-0.4-1,0.2-1.1,0.7-0.2
		c0-1.5,0.3-2-1.2-2.4c0.6-0.5,1.3-0.9,1.9-1.4c-2.4-0.6-3.7,0.9-5.2-1.2c-0.6-0.9,0.5-3.8,0.7-4.8c0.3-1.5,0.7-2.4,1.5-3.6
		c0.6-0.9-0.2-3.1-0.2-4.2c0-1.1,0.1-2.3,0.1-3.5c0-0.4-0.1-2.2,0.4-2.4c1.7-0.6,1.5-0.8,1.5-2.6c1.9,0.2,3.5-5.8,4.3-7.3
		c1.9-3.8,3.1-7.5,3-11.7c0-1.6-0.3-3.2-0.2-4.8c0.1-1.4,1.8-2.5,1.7-3.8c-0.1-1.7-0.4-3.2,0.3-4.8c0.8-1.9,1.7-3.9,2.5-5.8
		c0.7-1.5,0.6-3.1,0.8-4.8c0.1-1.4,1.1-2.4,1.2-3.9c0.1-1.8,0.2-3.7,0.2-5.5c0-0.5,0.7-1,1-1.4c0.4-0.5,0.4-1.5,0.5-2.1
		c0.8-4.1,0.8-8,0.5-12.2c-0.1-1.2-0.9-3.1,0.5-3.4C1441.5,1084,1441.8,1083.9,1442.7,1082.5 M1442.7,1082.1c-0.6-0.1-1,1.1-1.2,1.4
		c-0.5,0.7-1.9,0.2-2.5,0.7c-0.9,0.6,0.1,6.5,0.1,7.6c0,2.8-0.1,5.4-0.7,8.1c-0.3,1.4-1,2-1.5,3.3c-0.4,1.1-0.2,2.6-0.3,3.8
		c-0.2,4.9-1.7,9.6-3.6,14.2c-0.9,2.2-1.5,3.4-1.2,5.8c0.3,2.1-1.7,3.1-1.6,5.4c0.1,2.5,0.4,5.1-0.1,7.6c-0.6,3.2-1.7,5.9-3.1,8.9
		c-0.5,1.1-2.3,6.5-3.4,6.5c-1,0-0.6,1.2-0.6,1.8c-0.1,0.7-1,0.6-1.4,0.9c-1,0.7-0.8,5.4-0.7,6.5c0.1,1,0.7,2.6,0.3,3.6
		c-0.5,1.1-1,1.6-1.3,2.9c-0.2,1-1.6,4.8-1,5.7c0.9,2.9,2.8,1,4.8,1.5c-0.3,0.2-1.7,1-1.1,1.5c1.6,1.3,0.2,0.3,0,1.7
		c-0.1,0.5-0.6,1.6-0.5,2.1c0.5,1.4-1.7,1.9-1.2,3.2c0.5,1.4,0.3,1.4-0.6,2.6c-0.9,1.1,1.4,1.3,1.4,2.1c0,1.5-0.3,1.4-1.8,2
		c-0.7,0.3-1.5,1.8-0.5,2.3c-1.1,0.3-1.4,1.1-0.6,1.9c-0.9,0.3-0.9,1.3-1,2c-0.4-0.7-0.8,0.4-1.1,0.5c1.6-3-4.1-4-3.1-1.4
		c0.4,1-2.2,1.6-2.7,2.7c-0.5,1,1.1,2.5,1.3,1.6c0.5-2,0.2-0.9,1.9-0.3c0.9,0.3,1.3-0.2,1.8,0.8c0.3,0.6-0.5,1.4-0.9,1.5
		c-2.1,1,1.2,1.1,0.5,2.1c-0.3,0.5,1.2,1.2,1.7,2c-0.4-0.2-2-1.1-2.2-0.2c-1.2-2-1.3,0.6-1,1.6c0.3,1,0.4,1.5,0.3,2.8
		c-0.1,0.7-0.7,4.1,0.9,2.5c0.4,0.9,0.2,1.3-0.7,1.2c-0.9,0.3-1.3,1.5-1.8,2.2c-0.7,1,1.2,2,1.7,2.6c-0.8,0.3-0.8,1.7,0.2,1.7
		c-1.1,0-1,1.6-0.5,2.3c1,1.2,1.2,1.7,1.2,3.3c0,3.5,3.2,1.2,2.6,0.4c0.9,0,1.1,0.3,0.4,1c-0.1,0.6,0.7,1.2,0.4,1.8
		c-0.7,1.4-1.7,1.8,0.5,2c1.4,0.1,2.4-0.1,3.3,1c1.3,1.4-1.5,2.4-2.5,3c0.1-1.4-2.8,0.2-0.9,1.7c1.1,0.8,3.7,2.9,4.5,0.6
		c0.4-1,0.4-4.5,1.4-5c2.1-1,4.6-2.9,6.8-1.9c0.3,0.1,1.9,0.7,1.8-0.2c-0.1-0.6-2.1-1-2.5-1.2c-2.6-1-5.1-1.3-7.9-1.7
		c-3.2-0.4-3-1-2.8-4.2c0.2-3.5-0.1-3.2-3.2-3c0.1-2.9,0.4-5.4,2.2-7.8c0.8-1.1,1.4-2.1,1.9-3.4c0.6-1.4-0.2-3.4,0.5-4.5
		c1.5-2.5,2.8-4.5,3.2-7.4c0.2-1.2,0.1-2.7,0.7-3.8c0.8-1.4,0.2-1.8-0.7-3c0.6-0.1,2.2-0.1,1.8-1.2c-0.2-0.8-1.7-0.9-1.7-1.6
		c0.2-2.5-0.6-5.7,0-8.1c0.2-0.9,1-1.7,1.5-2.5c0.6-1.1-0.5-2.8-0.2-4.1c0.5-2.9,1.1-5.9,2.4-8.6c0.3-0.7,1.5-1.7,1.5-2.5
		c0-2.1,0-4,0.3-6.1c0.2-1.3,0.1-2,1.1-2.8c1.5-1.3,1.5-2.2,1.6-4.2c0.1-1.3,1-2.2,1.6-3.2c1.2-1.7,1.3-2.4,1.1-4.5
		c-0.4-3.7-2.2-7.5-0.2-10.9c1.5-2.7,1.7-5.5,2.8-8.3c0.6-1.8,2.1-4.9,3.9-5.8c2.8-1.5,0.9-5.3,1.5-8.2c0.4-1.9,0.7-1.8,2.5-2.5
		c1.5-0.5,2.1-0.5,2.6-2.1c0.4-1.1,0.8-2.3,0.1-3.4c-0.3-0.5-2.5-0.4-2.6-0.8c-0.2-2.9,0-5.9-1.6-8.4c-1.1-1.7,2.2-3.4,0.1-5.1
		C1444,1087.2,1445.3,1082.4,1442.7,1082.1"/>
	<path class="st1" d="M1412.7,1035.7c-0.6-0.1-0.5-1.9-1.8-2.1c-1.3-0.2-2.3,0.6-2.1-1.4c0.1-0.7,1.1-0.5,1.1-1.2
		c0.1-0.7-0.5-1.1,0.3-1.6c1.3-0.8,2.1-1.7,1.5-3.3c-3.3,3.6-4.1-3.9-2.2-5.1c1.8-1.1,2.3-3.1,2.5-5.1c0.1-1.3,3-1.7,3.9-2.1
		c1.2-0.5,3.7,1.5,4.6,2.2c1.6,1.4,2.1,2.8,4.9,2.2c0.6-0.1,3.3,0.7,3.1,1.7c-0.1,0.4-0.9,0.3-0.7,0.7c0.1,0.3,1.2,2.3,1,2.4
		c-1.4,0.6-1.9,2.1-3.2,3.2c-2.2,1.7-4.3,2.4-6.9,3.3c-0.7,0.2-0.7,1.3-1.2,1.4c-0.9,0.1-0.9,0.1-1.4,0.9
		C1415,1033.7,1415.9,1036,1412.7,1035.7"/>
	<path class="st1" d="M1416.6,1013.8c1.3,0.8,2.7,1.5,3.8,2.4c0.5,0.3,0.9,1.9,1.4,2c0.8,0.1,2.8,0.7,3.5,0.3c1-0.5,2.3,1,3,1.5
		c-1.5,0.7-0.3,1.8,0.3,3c-1-0.3-1.7,1.7-2.1,2.3c-0.7,1-2.7,2.4-3.8,2.9c-1.3,0.5-2.7,0.6-3.9,1.2c-0.8,0.3-0.9,1.4-1.6,1.4
		c-2.3-0.2-0.9,4.4-3.5,4.8c-1.3,0.2-1.1-0.4-1.4-1.5c-0.3-0.9-2.5-0.5-3-0.4c0-0.3-0.4-1.5,0-1.7c0.9-0.7,1.1-0.4,0.8-1.6
		c-0.2-0.7,1.2-1.1,1.5-1.4c0.9-0.8,0.7-2.2,0.4-3.2c-1,1.1-1.6,2-2.8,0.3c-1.2-1.7,0.2-4.6,1.6-5.5c1.2-0.7,1.4-3.6,1.5-4.8
		C1412.3,1014.9,1416,1014,1416.6,1013.8 M1416.6,1013.4c-1.1-0.1-3.1,1-4.1,1.5c-1.5,0.7-1,4-2.2,5.4c-0.5,0.5-1.5,0.5-1.6,1.4
		c-0.1,1.3-0.4,2.7-0.3,4c0.2,2,2.2,2,3.2,0.9c0.6,1.5-0.8,2.3-1.8,3c-0.9,0.6,0.6,1.5-0.8,2.1c-0.7,0.3-0.5,1.8-0.2,2.3
		c0.6,0.8,2.7-0.7,3.2,1c0.8,2.6,3.7,0.3,3.8-1.5c0.1-1.4,0.5-1.8,1.6-2.1c0.5,0,0.6-0.8,0.7-1.1c0.2-0.5,1.7-0.7,2.1-0.9
		c2.9-0.9,5.5-2.3,7.3-4.9c0.8-1.1,1.7-0.9,1-2.3c-0.8-1.7,0-0.8,0.1-2c0.2-1.9-3.6-2-4.5-2.1c-2.1-0.2-2-0.4-3.3-1.8
		C1420.1,1015.3,1417.8,1013.5,1416.6,1013.4"/>
	<path class="st1" d="M1503,1019.5c-1.4-0.1-1.9-1.5-0.8-2.2c0.8-0.6,0.9-2.3,1.1-3.2c0.2-1.2-1-3.1-1-4.5c0-1.6,1.9-3.2,3.4-2.5
		c2,1,6.2,3.3,6.4,5.7c0.1,1.2-2.8,4.4-3.7,5.2C1506.8,1019.4,1505,1019.7,1503,1019.5"/>
	<path class="st1" d="M1504.6,1006.9c2,1.1,3.7,2,5.5,3.4c2.1,1.8,2.1,2.5,0.5,4.6c-2.3,3.1-5.4,6.1-9.1,3.2
		c1.7-1.4,2.3-3.7,1.4-5.7C1501.8,1009.8,1502.7,1008.5,1504.6,1006.9 M1504.7,1006.6c-0.9-0.1-2.1,1.7-2.5,2.4
		c-0.7,1.5,0.1,3.1,0.7,4.5c1.2,2.8-3.8,4.7-0.2,6.2c0.5,0.4,3.2,0.2,3.7,0c2.2-1.4,3.4-2.9,5-5c1.4-1.9,0.7-2.7-0.7-4.2
		C1509.3,1009,1506.6,1006.7,1504.7,1006.6"/>
	<path class="st1" d="M1486.6,1020.5c-1.2-0.5-2.5-0.9-3.3-2c-0.5-0.8,0-1.7-0.8-2.6c-0.5-0.6,0.7-3.9,1.1-4.3
		c0.9-0.8,0.5-1.1,0.3-2.2c-0.1-0.8-1.2-0.2-1.1-1.7c0.1-1.4-0.8-1-1.9-1.1c-0.7-0.1-1.9-2.9-2-3.5c-0.2-1.8,1.4-2.5,2.6-3.2
		c-2.3-0.6,0.5-2.7,1.3-3c1.7-0.7,2.2-1.6,3.8-0.1c0.6,0.5,1.8,1.2,2,2.1c0.1,0.6,0,1.7,0.4,2.2c0.5,0.6,1.7,0.5,2.4,1
		c0.7,0.5,1,1.4,1.6,2.1c1.2,1.4,0.2,2-0.5,3.3c-0.6,1.2-4.4,1.3-3,3.8c0.7,1.2,2.5,2.2,2.8,3.4c0.2,0.9,0.4,1.9,1,2.7
		c0.3,0.4,1,1.1,1,1.6c0-0.3-3-0.3-3.5-0.1C1490.2,1019.2,1487.4,1020.8,1486.6,1020.5"/>
	<path class="st1" d="M1485.7,996c0.8,0.7,2.2,1.6,2.8,2.5c0.6,1.2-0.2,2.5,1.3,3c1.6,0.6,2,1,3.1,2.5c1.1,1.5,0.4,2.3-0.7,3.8
		c-0.6,0.8-1.7-0.1-2.1,1.1c-0.7,1.9-0.6,2,0.4,3.8c0.5,0.8,1.6,0.9,1.8,1.8c0.5,1.8,1,2.9,2.2,4.4c-2.6-0.6-4.1,0-6.5,1
		c-1.5,0.6-2.9,0.1-4.1-1.1c-0.8-0.8-0.1-1.8-0.9-2.6c-0.8-0.8,0.4-4,1.2-4.7c0.8-0.7,0.2-2.3-0.7-2.6c-1.5-0.6,0.5-2.2-1.5-2.4
		c-1.6-0.1-1.9-1.9-2.7-3.2c-0.9-1.6,2-2.9,2.9-3.5C1478.9,998.9,1484.2,995.9,1485.7,996 M1485.7,995.6c-1.3-0.1-2.4,0.8-3.6,1.3
		c-0.6,0.2-2.5,2.6-1,2.9c-1.1,0.6-2.2,1.3-2.4,2.8c-0.3,0.7,1.7,4,2.2,4.1c1.5,0.4,1.7-0.3,1.6,1.6c0,0.9,0.8,0.5,1.2,1
		c0.8,0.9-0.2,1.7-0.6,2.4c-0.8,1.4-1.3,3.6-0.2,4.9c0.4,0.5-0.5,1.3,0,1.8c1.1,1.1,1.9,1.5,3.4,2.1c1,0.4,3.6-1.2,4.5-1.5
		c0.6-0.2,3.6,0.3,3.8,0c0.2-0.4-1.7-2.6-1.8-3.3c-0.1-0.6-0.2-1.4-0.5-1.9c-0.4-0.6-1.2-0.4-1.6-1.2c-0.8-1.3-1.4-1.7-0.7-3.2
		c0.7-1.4,2-0.5,2.7-1.9c0.4-0.8,1.7-1.9,1-2.9c-0.6-0.9-1.6-2.6-2.6-3.1c-2-0.8-1.8-0.7-2.4-2.7
		C1488.6,998.1,1486.6,995.7,1485.7,995.6"/>
	<path class="st1" d="M1483.4,1123.7c-0.6-0.1-1.1-0.7-1.6-1c-1-0.6-2.5-0.8-3.6-1.1c-1.4-0.3,1.6-4.1,1.8-4.5
		c2.2-3.2-5.3-7.1-8-7.8c-2.1-0.6-3.2-2.8-4.4-4.5c-0.5-0.7-1.3-2.4-2.3-2.5c-1.2-0.1-0.2-1.3,0-1.9c0.8-2,0.9-3.9,1.9-5.8
		c1.3-2.6,3.8-2.5,6.5-2.9c1.9-0.2,5.3-0.7,6.5,1.2c1.8,2.7,1.6,5.1,1.6,8.3c0,1.8,2.3,2.3,3.9,2c2.6-0.5,3.3,1,3.5,3.3
		c0.1,1.9-0.2,3,1.9,3.3c0.6,0.1,2.2-0.1,2.2,0.9c0,1.5-0.3,3-0.7,4.4c-0.6,2.3-0.7,4.6-2.5,6.1
		C1487.9,1123.2,1486.5,1124,1483.4,1123.7"/>
	<path class="st1" d="M1478.4,1091.9c3.7,2.1,3.2,5.5,3.3,9.3c0,3.5,4.4,1.4,6.3,2.5c1.3,0.8,1,2.7,1.2,4.1c0.3,2.4,0.5,2.1,2.7,2.4
		c1.7,0.2,1.3,1.5,1,3c-0.4,2-0.9,5.6-2,7.2c-1.5,2.1-5.5,4.3-8,2.8c-1.6-1-2.9-1.4-4.7-1.8c-0.9-0.2,2.5-4.8,2.7-5.1
		c1.1-1.6-5.6-6.2-7.1-6.6c-2.3-0.7-3.2-1-4.7-3c-1.1-1.6-2.3-4.1-4.2-4.6c1.3-3.3,1.8-6.2,3.7-9.2c0.2-0.4,2.6-0.4,2.9-0.5
		C1473.8,1092,1476,1091.7,1478.4,1091.9 M1478.4,1091.6c-2.8-0.3-5.3,0.1-8.1,0.6c-2.2,0.4-3.3,1.8-4,4c-0.3,1-0.3,2-0.6,3
		c-0.2,0.7-1.3,2.3-1,3c0.1,0.3,1.9,1.5,2.1,1.9c0.8,1.1,1.7,2.3,2.5,3.4c1.4,1.9,2.7,1.8,4.8,2.6c2,0.8,3.9,3,5.5,4.4
		c2.1,1.7-0.4,3.6-1.5,5.2c-1.9,2.7,2.5,2.5,3.8,3.3c1.9,1.2,2.8,0.9,5,0.9c1.3-0.1,4.4-2.4,4.8-3.6c0.7-2.1,1.2-4.6,1.6-6.8
		c0.2-0.8,0.5-2.3,0.2-3.1c-0.5-0.9-2.8-0.3-3.5-0.7c-1.3-0.8,0.4-4.9-1.2-5.8c-2-1.2-4-0.4-6.2-1.3c-1.2-0.5-0.5-4.6-0.5-5.8
		C1482,1094.9,1480.6,1091.8,1478.4,1091.6"/>
	<path class="st1" d="M1439.1,1084.7c-1.3-0.1-4-3.9-5-4.9c-1.9-1.9-4.7-2.4-6.8-4.1c-2-1.6-3.9-3.1-5.5-5.2c-1.6-2-1.3-2.4-1.5-4.9
		c-0.1-2-1.9-3.9-2.8-5.6c-1.5-2.7-2.1-5.9-2.9-8.8c-0.4-1.4-0.6-3.3-1.5-4.5c-0.8-1-1.5-1.5-1.9-2.8c-0.9-2.4-2-3.7-4.1-5.3
		c-0.4-0.3-1-0.7-0.4-1.3c0.8-0.8-0.1-1.6-0.1-2.6c-0.3-2.8,1.2-3.4,3.1-5c0.5-0.4,0.8,1.3,0.6,1.5c-0.5,0.8-1.3,0.4-1.1,1.5
		c0.2,0.7,1.4,0.3,2.2,0.5c1.1,0.2,0.9,0.8,1.3,1.6c1.3,2.5,2.8-3,2.8-3c0.3-0.5,0.7-1.5,1.4-1.5c0.9,0.1,0.5-0.6,1.1-1.1
		c1.8-1.4,4.4-1.2,6.3-2.7c0.4-0.3,3.6-4,4-4c-0.4-0.9-1.8-3.6,0.5-3c1.6,0.4,2.1,1.5,3,2.7c0.9,1.2,1.9,1,2.1,2.6
		c0.2,1.3,1.4,0.7,1.5,2.2c0.1,1.3,0.5,1.4,1.8,1.6c0.8,0.1,1.1-0.2,1.8-0.5c0.8-0.4,1.7,0.3,2.4,0.5c0.4,0.2,0.8-0.6,1.2-0.4
		c0.8,0.4,2.2,0.8,2.7,1.6c1,1.6-0.6,2.7-1.6,3.9c0.2,0.1,1.9,0.9,1.9,1.3c-0.1,0.5-6.5,1.5-7.4,2c-1.2,0.7-2.1,1.4-3,2.5
		c-0.7,0.8-0.6,2.5-1.3,3.1c-1,0.9-2.9,2-2.5,3.8c0.6,2.3,2.8,3.5,2.4,5.8c0.6,0.1,1.7,0,2,0.6c0.5,1.1,0.3,1.5,1.7,1.7
		c2.5,0.4,4.9-4.2,4.5,0.3c-0.1,0.7-0.7,3.3-0.2,3.8c0.4,0.5,1.8-0.1,2.3-0.1c0.8-0.1,3.4,5.2,3,6c-0.3,0.7-1,1.1-1.1,1.9
		c0,1.4-0.2,2.8-0.3,4.2c0,0.7-1.3,1.4-1.1,1.9c0.5,1.7,0,1.4-0.6,2.8c-0.4,1.1,0.4,2.3,0.8,3.2c0.4,0.8-1.3,2-1.7,2.5
		C1441.8,1082.8,1442.6,1085,1439.1,1084.7"/>
	<path class="st1" d="M1428.4,1020c1.4,0.4,1.7,0.5,2.5,1.6c0.4,0.6,0.9,1.2,1.3,1.8c0.4,0.5,1.4,0.4,1.6,1c0.3,1-0.1,1.7,1.1,1.9
		c1.1,0.2-0.2,2.5,1.5,2.7c1,0.1,2.8-0.7,3.6-0.4c1.1,0.4,2.3,0,3.2,0.4c3.4,1.7,2.3,2.5,0.3,5.1c0.7,0.4,1.3,0.8,2,1.2
		c-4.1,0.8-10.6,1.4-11.3,6.7c-0.2,1.5-3.5,2.1-2.9,4.4c0.6,2.4,2.8,3.9,2.3,6.2c0.5,0.1,1.7,0,2,0.6c0.4,0.9,0.4,1.5,1.5,1.6
		c1.7,0.2,3.4-1.1,4.9-1.8c-0.1,1.1-1.4,6.4,0.6,6.1c1.5-0.2,1.7-0.6,2.4,0.9c0.6,1.3,1.3,2.6,1.8,4c0.2,0.5-1,2.4-1,3
		c-0.1,1.3,0,2.9-0.4,4.2c-0.2,0.7-1.3,0.6-1,1.5c0.4,1.1,0.3,1.4-0.5,2.3c-1.4,1.6,1.6,3.1,0,4.8c-0.5,0.6-1.1,1.1-1.6,1.7
		c-0.2,0.2,0,1-0.3,1.5c-3,4.4-7.4-3.5-10.2-4.9c-2.7-1.3-4.8-2.6-7-4.6c-1.5-1.3-4.8-3.8-4.6-5.9c0.3-2.9-1.1-4.7-2.4-7.1
		c-1.4-2.6-2.1-5.3-3-8.2c-0.4-1.4-0.8-2.8-1.2-4.3c-0.4-1.4-1.4-1.9-2.1-3c-0.6-1-0.7-2.1-1.1-3.1c-0.4-1.1-1.8-1.9-2.6-2.7
		c-0.7-0.7-1.8-1.2-0.9-2.1c0.7-0.7-0.4-1-0.4-1.7c0-0.7-0.6-2.6,0-3.2c0.9-0.9,2.1-1.6,3-2.4c0.4,1.3,0.6,1.2-0.4,1.8
		c-0.7,0.4-0.3,1.2-0.3,1.9c0.5-0.1,2.7-0.5,3,0.3c0.4,1.1,0.3,2.1,1.7,1.5c1.9-0.7,1.4-4.9,3.1-4.7c0.9,0.1,0.8-1.1,1.7-1.4
		c1.2-0.5,2.7-0.6,3.9-1.2c1.3-0.6,2.9-1.8,3.9-2.9c0.5-0.6,1.1-2.6,2.2-2.3C1428.1,1021.8,1427,1020.7,1428.4,1020 M1428.4,1019.6
		c-1.9-0.2-0.9,1.6-0.6,2.4c0.3,0.7-1,2.1-1.5,2.8c-2.3,2.9-5.4,3-8.4,4.4c-0.3,0.2-0.5,0.5-0.6,0.9c-0.2,0.6-0.7,0-1.1,0.4
		c-1,1.3-1.1,2-1.4,3.7c-0.3,1.6-2,0.8-2.3-0.2c-0.4-1.2-2.2-1-3.1-0.9c-0.2-1.4,0.8-0.8,1.1-1.9c0.2-0.9-0.4-1.8-1.3-1.3
		c-2.5,1.5-3.1,2.9-2.9,5.7c0.1,1,0.8,0.8,0.2,1.7c-0.9,1.2,1.7,2.7,2.5,3.4c1.1,1.1,1.4,2,2,3.4c0.5,1.2,1.9,1.9,2.2,3.1
		c0.9,3.2,2,6.4,2.7,9.7c0.7,3,3.1,5.1,4.1,7.9c0.4,1.2-0.3,2.5,0,3.7c0.4,1.5,2.5,3.2,3.5,4.3c2.5,2.9,6,4.6,9.4,6.2
		c1.9,0.9,4.5,6.2,6.6,5.8c1.4-0.3,2.3-0.1,3.1-1.5c0.4-0.7,0.2-1.4,0.7-2c0.9-1,2.3-1.9,1.6-3.4c-0.7-1.5-0.8-2.3,0.3-3.6
		c0.8-0.9-0.9-1.5,0.4-2.5c0.9-0.7,0.6-4.1,0.7-5.1c0.1-0.8,1.3-1.9,1-2.7c-0.7-1.6-1.5-3.2-2.2-4.9c-0.6-1.6-2.2,0.2-3-0.6
		c-0.5-0.5-0.1-1.9,0-2.5c0.3-2,1.1-4.1-1.7-2.8c-1,0.5-2.5,1.7-3.7,0.9c-1.3-0.8-0.7-1.6-2.6-2c0.5-2.6-2.8-3.6-2.5-6.2
		c0.3-1.9,2.6-2.4,2.9-4.1c0.4-2.6,3.2-4.8,5.8-5.3c2.2-0.4,7.4-0.4,3.7-2.7c0.7-0.9,3.3-3.2,1.2-4.3c-0.6-0.3-1.3-0.6-1.9-1
		c-0.9-0.5-1.3,0.1-2.2-0.1c-0.5-0.3-1.1-0.4-1.7-0.5c-0.9,0.1-1.4,0.7-2.4,0.5c-1.5-0.2-1.1-0.5-1.4-1.9c-0.2-1.2-1.4-0.5-1.5-1.8
		c-0.1-1.4-1.7-1.7-2.4-2.8C1430.9,1020.9,1430.1,1019.7,1428.4,1019.6"/>
	<path class="st1" d="M1494.3,1019.1c-2-0.4-1.4-4.7-2.8-5.2c-2.3-0.9-2.7-3.5-1.6-5.5c0.4-0.8,1.6,0.1,2-0.5
		c0.4-0.7,0.7-1.5,1.2-2.2c1.1-1.4,7.1-0.5,8.7,0c0.8,0.2,2.7,0.3,2.5,1.5c-0.2,1-1.6,1.2-1.7,2.4c0,2.6,1.2,4.4,0.4,7
		c-0.7,2.6-3,0.9-4.8,1c-1.1,0-1.3-0.1-1.6,1.1C1496.3,1019.9,1495.3,1019.3,1494.3,1019.1C1493.9,1019,1495,1019.2,1494.3,1019.1z"
		/>
	<path class="st1" d="M1500.9,1005.5c0.8,0.2,2.4,0.4,3,0.9c0.9,0.7-1,2-1.3,2.5c-1.1,1.9,1.3,3.8,0.7,5.7c-0.5,1.8-0.7,4-3,2.9
		c-0.6-0.3-3-0.5-3.5,0.1c-0.5,0.8-0.2,1.9-1.5,1.6c-1.2-0.3-1.8-1.1-2.4-2.2c-0.4-0.7-0.5-2.8-1.3-3.2c-1.6-0.7-2.8-2.4-2.1-4.1
		c0.4-0.9,0.4-1.5,1.5-1.4c1.2,0,1.4-1,2-1.9C1494.2,1004.2,1498.8,1005.5,1500.9,1005.5 M1500.9,1005.2c-1-0.1-7-1-7.6-0.1
		c-0.7,0.5-0.9,1.6-1.3,2.3c-0.5,0.8-1.9,0-2.3,1.1c-0.6,1.6-1.1,4.5,1.1,5.4c2.1,0.8,1.2,4.8,3.8,5.5c2.5,0.6,1.6-1.6,3.9-1.7
		c2-0.1,4.1,1.9,4.8-1.3c0.5-2.6-0.5-4.3-0.5-6.8c0-1,1.5-1.4,1.7-2.4C1504.7,1005.8,1501.8,1005.2,1500.9,1005.2"/>
	<path class="st1" d="M1478,989.4c-0.5,0,1.1-1.2,1.2-1.3c0.3-0.4-0.5-1-0.1-1.3c0.3-0.4,2.1,0.1,2.5,0.1c0.6,0.1-0.4,2.1-0.6,2.3
		C1480.6,989.7,1478.5,989.4,1478,989.4"/>
	<path class="st1" d="M1481.5,987c-0.9,2.2-1,2-3.5,2.2c1.3-0.9,1.6-0.9,1.1-2.4C1479.9,986.9,1480.7,986.9,1481.5,987
		 M1481.6,986.6c-0.7-0.1-2.3-0.6-2.8,0c-0.3,0.3,0.2,0.8,0.2,1.1c0.1,0.7-1.7,0.7-1.4,1.6c0.2,0.7,2.6,0.4,3,0.1
		C1481.4,989.4,1482.2,986.7,1481.6,986.6"/>
	<path class="st1" d="M1482.8,1153.5c-1.2-0.7-2.6-1.9-4-2.1c-1.2-0.2-1.8-0.1-2.6-1.1c-1.7-2.1,0.4-5.2,0.8-7.7
		c0.5-2.9,0.5-6.5,2.4-8.8c0.4-0.4,2.1-0.2,2.6-0.2c1.6,0,2.6,2.5,2.8,3.7c2.5-0.9,2.7,1.5,4.8,2.9c0.9,0.6,2.5,1.3,2.8,2.4
		c0.1,0.6,2,2.9,1.9,3.1c-0.3,0.8-1.4,1-1.4,1.9c0,2.3-0.6,2.9-2,4.8C1488.9,1154.9,1485.7,1153.9,1482.8,1153.5
		C1481.7,1152.8,1482.9,1153.5,1482.8,1153.5z"/>
	<path class="st1" d="M1482.5,1133.8c1.3,1.3,2.1,1.9,2.3,3.7c2.5-0.8,2.2,0.8,4.2,2.2c0.9,0.7,2.2,1.3,2.9,2.2
		c1,1.2,1.2,2.3,2.4,3.5c-1.7,1.7-1.1,1.9-1.5,4c-0.3,1.5-2.7,3.6-4,4.1c-2,0.7-3.1,0.3-5-0.1c-1.9-0.3-3.3-2-5.3-2.2
		c-5-0.4-1.7-6.2-1.2-9.1c0.4-2.2,0.5-4.9,1.4-7C1479.5,1133.4,1480.9,1133.9,1482.5,1133.8 M1482.6,1133.4c-2.3-0.2-4,0.2-4.4,2.7
		c-0.7,3.4-1,6.8-2.1,10.1c-0.6,1.9-1.5,4.5,1.3,5.2c2.7,0.7,5,2.2,7.7,2.6c3.6,0.6,5.3-0.7,7.5-3.4c0.9-1.1,0.7-1.9,0.6-3.3
		c0-0.9,1.9-1.2,1.3-2.3c-0.4-0.6-1.3-0.9-1.5-1.7c-0.4-1.4-0.7-1.8-2-2.7c-1-0.7-2.2-1.2-2.9-2.2c-1.1-1.4-1.2-2.1-2.9-1.5
		C1485,1136,1483.9,1133.5,1482.6,1133.4"/>
	<path class="st1" d="M1459.7,1019.8c-1.2-0.1-2.2-3.1-2.4-3.9c-0.5-1.8-2.7-3.1-1.1-4.5c1.6-1.5-0.2-2.7-0.5-4.5
		c-0.3-2,1-4.2,1.7-6c-2.1-0.1-4.1-0.2-6.2-0.2c-0.5,0-1.4-1.8-1.6-2c-0.7-1.1-1.1-1.4-2.2-1.9c-1.6-0.8-3.5,0.8-5.1-0.6
		c-1.8-1.6-0.7-2.4-1.4-4.5c-0.7-1.9-0.6-2.6-2.5-2.8c-0.9-0.1,0.9-2.7,1.1-3c0.8-1.5,1.5-3.2,2.9-4.3c0.6-0.5,1.2-1.1,1.9-1.4
		c0,0,2.2-0.7,2.1-0.4c-0.2,0.4-1,0.6-1.5,0.7c-0.7,0.3,0.1,2.2,0.1,2.8c0.1,1.1-0.9,2-1.3,3c-0.4,1.3,0.2,2.1,0.7,3.2
		c3.1-1.6,0.8-2,0.7-4.6c-0.1-2.9,4-3,6-3.3c-0.2-0.9-2.2-0.2-1.3-1.4c0.3-0.4,1.2-1.8,1.5-0.8c0.8,2.2,0.9,2.3,3.1,3
		c1.7,0.5,2.1,0.9,2.6,2.6c0.4,1.4,3.3,0.8,4.6,0.7c1.8-0.1,2.2,0.3,3.3,1.5c1.2,1.2,4.6,0.1,6-0.1c-0.3-0.1-0.9-0.3-1-0.6
		c0,0,8-0.3,8.1,0.5c0,0.5-2.5,0.8-2.9,0.9c0.8,0.4,0.9,0.9,1.2,1.7c0.4,0.9,1.6,0.3,2.3,0.6c1.6,0.7,4.3,2.9,2.5,4.8
		c0.9,0.2,1.6-0.4,2.3-0.3c0.7,0.1,1.8,1.5,1,2.1c-0.8,0.6-1.8,0.7-2.7,1.1c-1.6,0.8,0.3,2.2,0.4,2.1c-0.6,1.1-2.1,1-2.6,2.2
		c-0.9,2.1,2,3.3,0.8,5.4c-1,1.8-4.4,1.9-6.2,2.4c-2.8,0.7-4.9-0.5-7.6-1.5c0.1,1.1,0.5,1.1,1.3,1.8c0.7,0.6-0.1,1.8-0.1,2.5
		c0,0.2,0,1.9,0.1,1.9c0.5,0.1,2.6,0,2.9,0.5c0.4,0.5-3.8,3-4.6,3.3C1463.8,1019.5,1462.3,1020.1,1459.7,1019.8z"/>
	<path class="st1" d="M1451,978.9c0.6,1.7,0.3,2.5,2.2,3.1c1.2,0.4,2.8,0.4,3.3,1.8c0.4,1,0.2,1.9,1.5,1.9c1.7,0,5.2-0.9,6.3,0.7
		c1.5,2.2,5.1,0.8,7.3,0.5c-0.5-0.2-1-0.4-1.5-0.7c2.3-0.6,5.4,0.3,7.7,0.5c-1.1,0.3-2.2,0.5-3.2,0.8c1.2,0.6,1.3,0.9,1.9,2.2
		c0.3,0.6,1.9,0.1,2.4,0.5c1.6,1.1,3.8,2.7,2,4.6c0.6,0.1,4.6-0.7,3.8,1.3c-0.2,0.5-6.3,2.6-2.5,3.6c-1.1,0.6-3.9,1.8-2.9,3.6
		c0.8,1.4,2,2.4,1,4c-1.1,1.8-5,2.1-6.9,2.6c-2.3,0.6-4.8-1-7-1.8c0.1,1,0.1,1.3,0.9,1.9c1,0.7,0.2,1.7,0.3,2.7c0.1,2.1,0,2,2.3,2.4
		c2.5,0.4-1.7,1.5-2.3,2.2c-0.7,0.9-4.1,2.7-5.3,2.6c-2.7-0.2-3.9-1-4.7-3.6c-0.6-1.8-2.7-3.4-1.3-4.7c1.8-1.6,0-1.8-0.4-3.6
		c-0.5-2.6,0.7-4.7,1.6-7.1c-1.9-0.1-4.4,0.3-6.3-0.2c-0.8-0.2-1.9-2.6-2.4-3.3c-0.5-0.8-2-0.8-2.8-0.8c-3.3,0.3-4.7-0.7-4.9-3.8
		c-0.1-1-0.5-2-0.8-3c-0.4-1.4-0.9-1.1-2.2-1.2c2-3.8,3.4-7.6,7.9-8.8c-2.6,1-1.2,1.3-1.3,3.6c0,0.9-0.9,1.7-1.2,2.5
		c-0.6,1.5,0.2,2.5,0.7,3.8c3.2-1.6,1.2-2.2,1-4.9c-0.2-2.8,4.2-2.9,6.1-3.1c-0.1-0.8-1.1-0.8-1.7-1
		C1450.1,980,1450.6,979.5,1451,978.9 M1451.1,978.6c-0.7-0.1-1.2,1.2-1.6,1.6c-0.7,0.8,0.7,1,1.1,1.2c-2.3,0.3-3.6,0.7-5.6,1.9
		c-0.1-0.5-0.7-2.1-0.3-2.6c0.3-0.4,1.4-0.2,1.5-0.8c0.3-1.3-3.3,0.8-3.4,0.9c-1.7,1.5-2.5,2.8-3.6,4.8c-0.4,0.8-2.6,3.3-0.7,3.5
		c1.5,0.1,2.2,2.4,2.2,3.8c0,1.6-0.2,2.4,1.3,3.4c1.9,1.3,3.6,0,5.4,0.8c1.6,0.7,2,2,2.9,3.3c0.9,1.3,5.2,0.7,6.5,0.7
		c-0.7,2-2.1,4.1-1.6,6.3c0.2,1,0.9,2,1.4,2.9c0.3,0.7-1.6,1.4-1.6,2c0,0.8,1.2,1.5,1.5,2.2c0.3,1,0.5,2.1,1,3
		c1.1,2.1,2.6,3,4.9,2.6c2-0.4,4.5-1.6,5.8-3.1c0.1-0.1,4.6-1.5,2.4-2.3c-1.9-0.7-2.9,0.2-2.6-2.2c0.1-0.6,0.4-1.5,0.2-2.1
		c-0.2-0.8-1.6-0.9-1.4-1.8c1.6,0.6,3.9,2,5.7,1.8c2-0.2,4.1-1,6.1-1.6c1.5-0.4,1.6-0.9,2.4-2.1c0.9-1.4-1.8-3-1.5-4.4
		c0.3-1.4,2-1.6,2.9-2.5c0.5-0.5-1.7-0.7-0.8-1.9c0.6-0.8,3.8-0.7,3.4-2.2c-0.5-2.2-2.2-0.9-3.5-1.2c1.5-1.1-0.5-3.6-1.5-4.1
		c-1-0.6-1.8-0.9-3-1c-0.9-0.1-0.6-1.5-1.4-1.8c0.5-0.1,2.5-0.3,2.5-0.9c0-0.7-2-0.6-2.4-0.6c-1.2,0-2.4-0.2-3.6-0.3
		c-0.3,0-3.8,0.5-2,0.8c-1.3,0.2-2.8,0.7-4.1,0.4c-1.2-0.2-1.5-1.5-2.5-1.8c-1.6-0.5-6,0.9-6.5-0.9c-0.6-2.1-1.4-2.1-3.4-2.6
		c-0.7-0.2-1.3-0.2-1.5-0.9C1452.1,980.5,1451.8,978.6,1451.1,978.6 M1443.7,986.1c0.4-0.6,0.8-1.2,1.2-1.9
		c-0.2,2.4,2.3,3.4-0.4,4.8C1444,988.1,1443.6,987.2,1443.7,986.1C1444.1,985.5,1443.6,987.3,1443.7,986.1z"/>
	<path class="st1" d="M1471.1,985.7c-0.1,0-1.6-0.6-1.3-0.9C1471.2,983.3,1472.7,985.9,1471.1,985.7"/>
	<path class="st1" d="M1471.4,984.5c0.2,0.2,0.3,0.5,0.5,0.7c-0.8,0.3-1.2,0-1.9-0.3C1470.4,984.8,1470.9,984.6,1471.4,984.5
		 M1471.4,984.1c-1.4-0.1-2.5,0.7-1,1.5C1472.1,986.5,1472.6,984.2,1471.4,984.1"/>
	<path class="st1" d="M1445.5,1035.5c-4.2-0.4,0.1-3.2-0.1-4.7c-0.2-0.9-2-1.9-2.9-1.8c-1.4,0.3-2.6-0.7-3.9,0
		c-0.8,0.5-2.1,0.3-3-0.1c-0.9-0.4,0.1-2.2-0.9-2.4c-1.2-0.3-0.8-1.1-1.2-2c-0.3-0.6-1.2-0.7-1.6-1.2c-0.7-0.8-1.2-1.7-1.9-2.6
		c-0.5-0.6-1.8-0.5-2.5-1.1c-1.1-1-1.2-1.1-2.6-1c-3.3,0.3-4.6-2.3-7.2-3.9c-2.6-1.6-0.5-2.2-0.1-4.4c0.2-1.2,2.2-1,3.1-1.2
		c0.6-0.1,2.2-2.7,2.8-3.2c-1.5-0.3-1.5-0.5-1.3-2.1c0.2-1.4,0.3-2.9,0.5-4.3c0.1-0.9,0.5-2.2,0.2-3.1c-0.3-1-1.1-1.7-1.3-2.7
		c-0.3-1.7,2.8-1.6,2.4-2.7c-1-2.9,0.2-1.8,1.4-0.1c0.2-1.7,0.2-1.8,1.6-2.7c0.9-0.5,2.8-1,3-2.2c0.3-2,0.3-2.6,1.9-3.8
		c0.6-0.4,2.7-1.3,2.9,0c1.5-2.1,2.8-1.1,5.2-1.8c1.3-0.4,2.4-0.5,3.1-1.7c0.3-0.5,1.6-1.4,2.2-1.1c2.2,1.1,1,2.2-0.7,2.7
		c-3.2,0.9-4.8,5.5-6.2,8.1c2.9,0.3,2.9,3.8,2.8,6.3c0,2.4,4.7,1.5,5.8,1.7c2.8,0.5,2.7,3.9,5.5,4c0.5,0,5.2,0.2,5.1,0.4
		c0.5,1.7-2.1,4.3-1.7,6.3c0.1,0.6,1.8,3.3,1.4,3.7c-1.1,1-2.1,1.2-0.9,2.5c1,1.1,1.1,2.5,1.6,3.8c0.3,0.7-0.8,1.6-1,1.1
		c-0.2-0.5-0.6-2.6-1.1-2.9c-0.9-0.5-1.3,0.9-2.5-0.2c-0.7,1.5-4.3,0.4-5.5,0.3c0,0.8-0.4,2,0.7,2.1c0.6,0.1,1.8,1.4,1.3,2
		c-0.4,0.5-2.3-0.1-2.9,0c-0.3,0-0.5,2-0.3,2.2c2,1.9,2,3.3,1.2,5.9C1447.9,1028.2,1446.2,1035.6,1445.5,1035.5"/>
	<path class="st1" d="M1445.1,977.7c2.8,1.9,0.2,1.4-1.2,2.7c-2.7,2.4-4,5-5.8,8.2c1.2,0.1,1.7-0.1,2.1,1.1c0.3,1,0.7,1.9,0.8,2.9
		c0.1,0.4-0.3,2.1,0.1,2.4c1,0.9,2.3,2,3.8,1.8c2.8-0.4,4,0.5,5.4,2.9c1.1,1.8,5.2,1.1,7.1,1.1c-0.6,1.6-2.1,4.1-1.9,5.8
		c0.2,1.3,2.1,3.7,1.2,4.6c-1.4,1.4-1.4,1.3-0.1,2.9c0.8,0.9,1.7,3.5,0.6,4.2c-0.2-0.5-0.9-3.2-1.4-3c-1.2,0.3-1.5,0.6-2.4-0.3
		c-0.8,1.6-4.1,0.5-5.7,0.4c0,0.4-0.3,2,0,2.2c1.1,1,1.4,0.2,2,2c-0.4,0-3.1-0.4-3.2,0.1c-0.1,0.7-0.4,1.9,0.1,2.5
		c0.4,0.6,1.2,0.8,1.4,1.5c1,3.6-1.7,8.3-2.7,11.7c-0.7-0.4-1.3-0.8-2-1.2c1.5-2,3.4-3.2,0.2-4.8c-1.4-0.7-1.8,0.1-3-0.5
		c-1.4-0.7-1.7,0.5-2.9,0.3c-1.9-0.3-2.4,0-2.6-1.9c-0.1-0.9-0.2-0.8-1.1-1c-0.8-0.2,0-1.9-1-2.3c-1.5-0.6-1.7-2.2-2.9-3.2
		c-1.2-1-2.9-1.5-4.2-2.4c-0.3-0.2-2.8,0-3.4-0.1c-1.4-0.1-1.3-1.1-2.2-2c-1.1-0.9-2.5-1.3-3.6-2.2c-1.4-1.3,0.4-1.1,0.8-1.9
		c0.3-0.7-0.2-2.3,0.8-2.4c0.8-0.1,2.7,0,3-0.7c0.5-1.5,1.5-2.1,2.6-3.1c-2.2-0.4-1.7-1-1.4-3.2c0.3-2.6,1.3-5.5-0.1-7.8
		c-0.2-0.3-0.7-1-0.7-1.4c0.1-1.2,1.1-0.7,1.5-1.1c1.8-1.5,0-1.5,0.6-3.3c0.6,0.8,1.1,1.6,1.7,2.5c0.1-1.6,0-2.1,1.3-3
		c0.7-0.4,3.1-1.3,3.2-2.2c0.3-2.1,0.3-2.8,1.9-4c0.9-0.7,2.2-1,2.7,0.3c1.6-2.2,2.5-1,4.8-1.8c0.6-0.2,2.6-0.5,3-1.1
		C1443.5,978.7,1444,978.3,1445.1,977.7 M1445.2,977.3c-1.5-0.1-2.9,2.3-4.5,2.8c-2.2,0.6-4.4-0.2-5.8,1.7c-0.4-1-2.3-0.3-2.8,0.1
		c-1.2,0.9-1.7,0.9-1.9,2.5c-0.3,2.1-0.8,2.2-2.6,3.4c-1.4,0.9-1.9,1-2.1,2.6c-0.4-0.6-2-2.9-2-0.7c0,0.8,1.1,1.7-0.2,2.2
		c-0.9,0.3-0.9,0.2-1.5,1.1c-0.6,0.9,0.5,2,0.8,2.8c0.6,1.3,0.2,2.7,0.1,4.2c-0.2,1.9-1.7,5.7,0.7,6.2c-0.6,0.6-1.5,1.1-1.8,1.9
		c-0.5,1.3-1.2,1.1-2.6,1.4c-1.9,0.3-0.8,2.2-2.3,3.1c-2.1,1.2,2.4,3.3,3,3.6c1.8,1.1,1.6,2.4,3.9,2.8c1.9,0.3,2.4-0.3,4,0.8
		c1.8,1.3,2.9,1.9,4.3,3.8c0.7,0.9,1.7,0.7,1.8,2c0.1,1,1.3,1,1.3,1.4c0.3,2.1,0.7,2.9,3.1,2.7c0.6-0.1,1.2-0.6,1.9-0.5
		c1,0.2,1.5,0.6,2.5,0.2c0.9-0.4,3.4,1.5,2.6,2.5c-0.7,0.8-2.7,2.1-1.2,3.1c0.4,0.2,1.9,1.4,2.2,0.5c0.4-1.4,0.8-2.7,1.3-4.1
		c0.7-2.1,2.1-4.7,1.5-7c-0.5-1.6-2.3-2.3-1.6-4.2c0.4-1,3.9,1.1,3.1-1.3c-0.7-2-2-0.7-2-3.1c1.4,0.1,2.9,0.4,4.4,0.4
		c0.5,0,0.8-0.2,1-0.6c0.6,0.6,1,0.4,1.8,0.2c1-0.3,1.1,1.8,1.4,2.4c0.7,1.5,1.6-0.5,1.3-1.4c-0.3-1.2-0.6-2.4-1.4-3.3
		c-1.1-1.1-0.7-1.1,0.4-2c0.9-0.8,0.3-1.6-0.2-2.5c-0.8-1.5-1.1-2.5-0.5-4.2c0.6-1.8,2.6-4.4-0.2-4.5c-1,0-4.6,0.4-5.3-0.5
		c-0.8-1.2-1.5-2.7-2.8-3.4c-1.7-0.9-6.1,1-6.7-2.1c-0.5-2.2,0.4-5.8-2.7-6.1c1.4-2.5,2.7-6.1,5.4-7.6c1.1-0.6,2.6-0.2,2.8-1.8
		C1447,978.2,1445.7,977.4,1445.2,977.3"/>
	<path class="st1" d="M1480.4,968.2c-0.9-0.1,0.4-1.9,1-2C1483.1,966,1481.9,968.3,1480.4,968.2"/>
	<path class="st1" d="M1481.6,966.4c0.2,0.3,0.4,0.5,0.6,0.8c-0.6,0.3-1.2,0.6-1.8,0.9C1480.5,966.8,1480.5,966.8,1481.6,966.4
		 M1481.7,966c-0.9-0.1-2.5,1.7-1.4,2.4C1481.4,969.1,1483.9,966.2,1481.7,966"/>
	<path class="st1" d="M1482.4,974c-0.4,0-0.6-1.7-0.4-2C1482,972,1484,974.5,1482.4,974C1482.1,974,1483.8,974.4,1482.4,974z"/>
	<path class="st1" d="M1482,972.2c0.3,0.6,0.6,1.1,0.9,1.7C1482.1,973.9,1482.2,972.9,1482,972.2 M1482,971.8
		c-0.8-0.1-0.2,2.4,0.8,2.4C1483.7,974.4,1482.7,971.9,1482,971.8"/>
	<path class="st1" d="M1396.5,974.4c1.4,1.3,2,1.8,2.5,3.6c-2.8-1-2.7-0.9-3.2-3.6C1396.1,974.3,1396.3,974.3,1396.5,974.4
		C1397.2,974.9,1396.3,974.3,1396.5,974.4z"/>
	<path class="st1" d="M1396.5,974.4c1.4,1.3,2,1.8,2.5,3.6c-2.8-1-2.7-0.9-3.2-3.6C1396.1,974.3,1396.3,974.3,1396.5,974.4"/>
</g>
<path class="st2" d="M1707.4,974.4c0,18.3-14.9,33.2-33.2,33.2c-18.3,0-33.2-14.9-33.2-33.2c0-18.3,14.9-33.2,33.2-33.2
	C1692.5,941.2,1707.4,956.1,1707.4,974.4z M1674.2,1053.3l-59.6-23.7c0,5.1,0,19.9,0,22.2c1.3,0.4,3.5,0.9,3.5,0.9l0.2,0.1
	c5.5,2,9.9,6.1,12.3,11.5c1.3,2.9,2,6,2,9.1c0,2.6-0.5,5.2-1.4,7.7c-2.8,7.4-9,12.7-16.7,14v11.2l59.6,23.7l59.6-23.7V1095
	c-7.7-1.3-13.9-6.6-16.7-14c-0.9-2.5-1.4-5.1-1.4-7.7c0-3.1,0.7-6.2,2-9.1c2.4-5.3,6.8-9.4,12.3-11.5l0.2-0.1c0,0,2.1-0.5,3.5-0.9
	c0-2.2,0-17.1,0-22.2L1674.2,1053.3z M1616,1058.9l-7.6-2.2v-10.5c0,0-13.3,16.2-14,17.1c-0.7,1-1.3,2.1-1.7,3.3
	c-3,8,1.1,16.8,9,19.8l3.5,1.3c1.8,0.7,3.6,1,5.4,1c6.2,0,12.1-3.8,14.4-10C1628,1070.7,1623.9,1061.8,1616,1058.9z M1723.4,1078.6
	c2.3,6.2,8.2,10,14.4,10c1.8,0,3.6-0.3,5.4-1l3.5-1.3c8-3,12-11.8,9-19.8c-0.4-1.2-1-2.3-1.7-3.3c-0.6-0.9-14-17.1-14-17.1v10.5
	l-7.6,2.2C1724.5,1061.8,1720.4,1070.7,1723.4,1078.6z M1698.6,1017.2h-48.8c-12.3,0-19.7,5.5-23.4,10.2
	c7.2,2.5,47.8,19.3,47.8,19.3s40.6-16.8,47.8-19.3C1718.3,1022.7,1710.9,1017.2,1698.6,1017.2z"/>
<g>
	<g>
		<path class="st3" d="M1357.2,947.7c2.3-1,4.6-1.9,7-2.8"/>
		<path class="st4" d="M1373.9,941.7c105.2-32.4,257.8,24.3,296.3,134.9"/>
		<path class="st3" d="M1671.7,1081.4c0.7,2.4,1.4,4.8,2.1,7.2"/>
		<g>
			<circle class="st5" cx="1357.7" cy="947.5" r="11.3"/>
		</g>
		<g>
			<circle class="st5" cx="1673.7" cy="1088.1" r="11.3"/>
		</g>
	</g>
</g>
</svg>
