<?xml version="1.0" encoding="utf-8"?>
<!-- Generator: Adobe Illustrator 19.1.0, SVG Export Plug-In . SVG Version: 6.00 Build 0)  -->
<svg version="1.1"
	 id="North_America_second_level_political_division_and_Greenland" sodipodi:docname="Drinking_age_Nort_America.svg" inkscape:version="0.91 r13725" xmlns:rdf="http://www.w3.org/1999/02/22-rdf-syntax-ns#" xmlns:inkscape="http://www.inkscape.org/namespaces/inkscape" xmlns:cc="http://creativecommons.org/ns#" xmlns:svg="http://www.w3.org/2000/svg" xmlns:dc="http://purl.org/dc/elements/1.1/" xmlns:sodipodi="http://sodipodi.sourceforge.net/DTD/sodipodi-0.dtd"
	 xmlns="http://www.w3.org/2000/svg" xmlns:xlink="http://www.w3.org/1999/xlink" x="0px" y="0px" viewBox="1291.5 921.7 500 250"
	 style="enable-background:new 1291.5 921.7 500 250;" xml:space="preserve">
<style type="text/css">
	.st0{fill:#7E9088;stroke:#000000;stroke-miterlimit:10;}
	.st1{fill:#8D9E96;}
	.st2{fill:#C9C52D;}
	.st3{fill:#C9C52D;stroke:#C9C52D;stroke-miterlimit:10;}
	.st4{fill:none;stroke:#0F6C91;stroke-width:10;stroke-miterlimit:10;}
	.st5{fill:none;stroke:#0F6C91;stroke-width:10;stroke-miterlimit:10;stroke-dasharray:14.5366,9.691;}
	.st6{fill:#0F6C91;}
</style>
<rect x="1237.5" y="863.7" class="st0" width="597.1" height="398.7"/>
<path id="US-AL" class="st1" d="M1628.1,1060.9c-0.2-0.6-0.8-0.7-2.3-0.5l-1.9,0.4l0.3-20.8c0.2-11.5,0.4-22,0.6-23.3
	s0.4-4.6,0.6-7.1c0.2-2.6,0.5-5.1,0.6-5.6c0.1-0.5,0.3-3.1,0.6-5.7c0.2-2.6,0.4-5.2,0.5-5.7c0.1-0.6,0.8-0.9,2.3-0.9
	c1.2,0,7.3-0.2,13.5-0.4l11.4-0.3l0.5,2.1c0.3,1.1,0.8,3.3,1.2,4.8c0.3,1.5,1.1,4.2,1.7,6.1c1,3.1,1.7,7,2.4,13.4
	c0.2,1.4,1,4,1.9,5.8c1.7,3.3,1.7,3.7,1.5,12.5c-0.1,4.5,0.1,6,1.2,10.6c0.3,1.1,0.3,2.2,0.1,2.3s-3.7,0.2-7.8,0.3
	s-10.8,0.2-14.8,0.4c-6.5,0.3-7.5,0.5-8.4,1.4c-1.2,1.4-1.2,1.2,0.3,5.1c0.7,1.8,1.5,3.9,1.7,4.8l0.4,1.5h-3.9
	C1629.4,1061.7,1628.4,1061.5,1628.1,1060.9z"/>
<path id="US-AR" class="st1" d="M1555.2,1015.5l-0.2-4.1l-1.8-0.5c-2.1-0.6-1.9,0.7-1.7-15.5c0.1-6.1,0.1-14.4,0.1-18.6l-0.1-7.6
	l24.2,0.2c13.3,0.1,24.3,0.4,24.5,0.5c0.2,0.2,0,1.5-0.4,2.9c-0.8,2.9-0.6,3.1,2.6,4c1.3,0.4,2.3,0.9,2.3,1.2c0,0.3-0.8,2-1.8,3.7
	c-1,1.7-2.1,4.4-2.5,5.9c-0.4,1.8-1.4,3.6-2.8,5.2c-1.5,1.8-2.3,3.2-2.5,4.9c-0.2,1.6-1.1,3.4-2.5,5.3c-3,4-3.9,6.9-3.8,12.1
	l0.1,4.4h-16.8h-16.8L1555.2,1015.5z"/>
<path id="US-AZ" class="st1" d="M1361.1,1019.9c-2.7-0.6-6-1.4-7.5-1.9c-1.6-0.5-3.8-1.9-5-1.9c-1.7,0-2.8-1.1-5.7-3.4
	c-2-1.6-4.1-3.3-4.7-3.9c-0.6-0.5-3.3-2.5-6.1-4.4c-5.9-4-19.1-12.8-21.7-15.2c-1.1-1,2.2-2.4,1.1-2.8c-2-0.8-6.9-1.3-6.4-2.1
	c0.2-0.3,2.8-1.6,4.4-2.3c2.8-1.1,3-1.4,3-3c0-1.1-0.4-2.2-1.1-2.8c-1.6-1.4-1.4-2.7,0.9-5c1.1-1.1,2.4-3,3-4.1
	c0.6-1.3,1.5-2.1,2.1-2.1c0.5,0,1.7-0.7,2.5-1.6l1.5-1.6l-1.3-2.4c-1-2-1.3-3.3-1.3-7.2c0-2.6,0.1-4.8,0.3-4.8
	c0.2,0,0.5-2.2,0.7-4.8c0.3-3.4,0.7-5.3,1.5-6.3c1-1.4,1.2-1.5,4.2-1.2l3.2,0.3l1.8-4.7c1-2.6,2-4.8,2.2-5
	c0.4-0.3,52.4,12.5,53.4,13.1c0.4,0.2,0.4,0.8,0.1,1.6c-0.3,0.7-0.6,2-0.8,2.9c-0.1,0.9-2,9.3-4.2,18.7c-2.2,9.4-4,17.5-4.1,18.2
	c-0.1,0.6-1.2,5.6-2.5,11c-1.2,5.4-3.2,14-4.3,19.1C1368.3,1020.7,1368.9,1021.6,1361.1,1019.9z"/>
<g id="US-CA">
	<path id="path128" class="st1" d="M1302.7,983.6c-0.9-0.5-14-2.3-21-3.9c-4.9-1.1-3.7-4.9-4-12c-0.2-5.3-0.3-5.8-2.2-8.9
		c-1.1-1.8-3-4-4.1-4.8c-1.2-0.8-2.4-2.1-2.7-2.9c-0.4-0.8-1.6-2.2-2.7-3.2c-1.1-0.9-2.9-2.9-3.9-4.3c-2-2.9-4.7-5-6.4-5
		c-1.6,0-5-2.2-6.5-4.4c-1.5-2.1-1.5-4.5,0.1-6.2c1.2-1.3,1-3.6-0.9-10.3c-0.9-3.2-1.7-6.4-1.7-7.2c0-0.8-0.8-2.8-1.8-4.4
		c-2.1-3.5-2.1-3.6-0.7-5.7c1.6-2.3,1.4-6.9-0.2-9.1c-1.1-1.4-1.2-2.1-0.9-4.4c0.2-1.5,0.9-3.3,1.4-4.1c1.5-1.9,1-4.1-1.6-6.2
		c-1.8-1.6-2.1-2.1-2.1-4.4c0-1.4-0.6-3.8-1.2-5.3c-0.6-1.5-1.5-4.1-1.8-5.8c-0.6-2.9-0.5-3.5,1.3-9.3l1.9-6.2l-1.4-3.4
		c-1.3-3.3-1.4-3.4-0.4-5.5c0.5-1.2,1.6-2.8,2.3-3.6c0.7-0.8,2.7-3.5,4.3-6c2.6-3.9,3-4.9,3.1-7.2c0-1.8,0.3-2.7,0.7-2.6
		c0.7,0.2,16,5.8,25.1,9.1c3.2,1.2,8.3,3,11.4,4.1c5.6,2,5.6,2,5,3.5c-0.3,0.8-1.8,4.8-3.2,8.9c-1.5,4.1-3.9,11-5.5,15.4
		c-1.6,4.4-3.3,9.4-4,11.2c-1.1,3.2-1.1,6.9,0,8.3c0.3,0.3,1.8,3.2,3.5,6.4c10.1,19.1,34.2,64.2,34.7,64.8c0.3,0.4,0.5,2.4,0.4,4.5
		c-0.1,2.9,0.1,4.3,1,6c1.3,2.6,1.2,3.1-1.3,3.8c-1.3,0.3-2.1,1.1-3,2.9c-0.7,1.3-2.1,3.3-3.2,4.4c-2.2,2.3-2.5,4.8-0.8,6.7
		c1.6,1.7,1.4,2.2-1.8,3.6C1304,982.5,1303.7,984.2,1302.7,983.6z"/>
</g>
<path id="US-CO" class="st1" d="M1459.6,950.8c-2.4-0.6-10.8-2.3-18.4-3.8c-0.6-0.1-2.3-0.5-3.9-0.8c-1.5-0.3-3.4-0.6-4.1-0.8
	c-1.3-0.2-8.9-1.7-28.1-5.4c-4.7-0.9-10.1-2-12.1-2.3c-2.5-0.5-3.5-0.9-3.5-1.5c0.1-0.4,2-9.3,4.3-19.8c2.3-10.4,4.3-19.5,4.4-20.1
	s0.9-4.2,1.8-8c1.3-6,1.7-6.9,2.6-6.8c0.6,0,3.5,0.6,6.5,1.2c3,0.6,6,1.3,6.7,1.4s1.7,0.4,2.3,0.5c0.5,0.2,1.6,0.4,2.3,0.5
	c2,0.3,8.2,1.6,20.1,4.2c5.7,1.2,11.4,2.4,12.7,2.5c1.2,0.1,2.9,0.3,3.9,0.5c0.9,0.2,2.5,0.4,3.6,0.6c10,1.6,12.9,2.3,12.8,3
	c-0.6,4.3-3.5,25.5-3.8,27.2c-0.2,1.2-0.4,2.8-0.5,3.6s-0.4,2.2-0.5,3.3c-0.1,1.1-0.8,5.5-1.4,9.9c-0.6,4.4-1.2,8.7-1.3,9.6
	c-0.2,1.4-0.4,1.7-1.8,1.7C1463.3,951.5,1461.3,951.2,1459.6,950.8z"/>
<path id="US-DE" class="st1" d="M1761.2,920c-0.6-2.4-1.4-6-1.8-8c-0.6-3.2-0.6-3.8,0.1-4.3c1.4-0.9,1.6-0.6,1.6,1.6
	c0,4.2,0.5,5.2,3.2,6.9c2.5,1.5,5.6,5.5,5.6,7.2c0,0.5-1.1,0.8-3.8,0.8l-3.8,0.1L1761.2,920z"/>
<path id="US-FL" class="st1" d="M1708.6,1049.1c-0.3,0-0.6,0-1,0l-2.3,0.2l-0.2,2.9c-0.2,3.3-0.2,3.3-2,3.7c-1,0.2-1.6-0.1-2.3-1.1
	c-0.7-1.1-1.3-1.3-3-1.3c-1.1,0-8.4,0-16.2,0l-14.1-0.1l-0.4-1.7l-0.4-1.7l-14.4,0.4c-7.9,0.2-14.9,0.4-15.5,0.6
	c-0.6,0.1-1.3,0.2-1.5,0.3c-0.7,0.1-0.5,1.4,0.7,4.2c0.6,1.5,1.2,3.4,1.4,4.2c0.2,1.1,0.6,1.5,1.3,1.3c0.5-0.1,3.5-0.4,6.6-0.6
	l5.6-0.4l3.2,1.9c1.7,1.1,4,2.2,5.1,2.5c1.2,0.4,2.4,1.4,3.2,2.5c1.2,1.8,1.5,1.9,3.3,1.6c1.1-0.2,4-1.3,6.4-2.6
	c6.7-3.4,7.9-3.7,9.9-2.8c0.9,0.4,2.3,1.7,3,2.7c0.7,1,3.4,3.8,5.9,6.1c5.3,4.8,5.6,5.5,6.1,13.7c0.2,3.4,0.8,7.1,1.6,9.8
	c0.7,2.4,1.3,4.7,1.3,5.2c0,0.5,0.9,1.7,1.9,2.6c1.2,1.1,2.3,2.8,3.1,5c0.9,2.5,1.7,3.7,3.3,4.8c1.2,0.8,2.8,2.7,3.6,4.2
	c0.8,1.5,2.2,3,3,3.3c0.8,0.4,2.9,2.2,4.6,4.2c3.2,3.6,7.5,6.6,9.1,6.1c2.2-0.6,5.6-0.9,5.6-0.4c0,1.9-6.1,6.5-10.2,7.8
	c-1.2,0.4-2.4,0.9-2.8,1.3c-0.4,0.4-0.3,0.5,0.3,0.3c0.5-0.2,2.1-0.7,3.6-1.2c3.1-1,7.5-4.1,8.7-6c0.4-0.7,1-3.1,1.2-5.3
	c0.2-2.2,0.7-4.8,1.2-5.6c0.6-1.2,0.8-3.4,0.7-9.1c-0.1-7.3-0.2-7.8-1.8-10.9c-0.9-1.8-2.7-5.3-4-7.7c-1.3-2.5-2.5-5.7-2.9-7.2
	c-1.2-5.4-2.4-8.1-5.3-12c-4.5-6-10.8-19.5-10.8-23.3C1712,1050,1710.8,1049.2,1708.6,1049.1z M1724.4,1100.4c0.2,0,0.4,0,0.6,0.1
	c1.4,0.4,1.5,0.5,1.3,3.2c-0.2,3.2-0.8,3.6-3.2,2.4C1720.4,1104.7,1721.6,1100.3,1724.4,1100.4z"/>
<path id="US-GA" class="st1" d="M1702.1,1053.1c-0.8-1.2-0.8-1.2-16.8-1.2h-16.1l-0.5-1.8c-0.3-1-0.8-1.7-1.1-1.7
	c-0.3,0.1-0.6,0-0.6-0.1c0-0.1-0.4-2.3-0.9-4.8c-0.5-2.5-0.8-6.3-0.7-8.5c0.4-8.4,0.2-10.1-1.3-12.4c-1.3-2-2.2-5.5-2.9-12.1
	c-0.2-1.4-0.9-4.5-1.6-6.9c-2.1-7.2-3.1-11.8-2.8-12.4c0.2-0.3,0.9-0.5,1.6-0.5c1.1,0.1,8.3-0.5,12.5-0.9c1.1-0.1,4.1-0.4,6.7-0.6
	l4.8-0.3l-0.5,1.6c-0.4,1.4-0.3,1.8,1,3c0.8,0.8,2,1.5,2.7,1.7c0.7,0.2,2.6,2.1,4.3,4.2c1.7,2.1,4.4,4.8,6,6c3.4,2.6,8.5,9,10.5,13
	c0.8,1.6,1.9,3,2.4,3.2s1.4,1.1,2,2.1c1.4,2.5,3.7,4.8,4.6,4.8c0.5,0,0.7,0.3,0.5,1c-0.2,0.5-1.2,3.4-2.3,6.5
	c-1.3,3.8-1.9,6.5-1.9,8.7c0,2.3-0.2,3.1-0.7,2.8c-0.7-0.4-5.6-0.4-7.1,0.1c-0.7,0.2-0.8,0.7-0.5,2.3c0.2,1.1,0.2,2.6,0,3.1
	C1702.9,1054.2,1702.9,1054.2,1702.1,1053.1z"/>
<path id="US-IL" class="st1" d="M1610.8,958.8c-0.2-6.2-0.6-6.9-6.3-11c-3.9-2.8-4.1-3.1-3.8-4.7c0.2-0.9,0.5-2.9,0.6-4.5
	c0.3-3.1-0.2-4.1-3.5-6c-1.7-1-2.9-2.8-2.9-4.4c0-0.4-1.5-2.4-3.4-4.4c-3.6-3.9-3.9-4.4-4.4-8.8l-0.3-2.8l2.7-2l2.7-2l0.1-4.8
	c0-2.7,0.1-4.9,0.2-5c0.1-0.1,0.8-0.3,1.6-0.4c4.2-0.8,6.5-3.7,6.8-8.9c0.2-2.3-0.1-3.1-1.5-5c-0.9-1.3-1.6-2.4-1.6-2.6
	s3.2-0.2,7-0.1c3.9,0.1,10.3,0.2,14.3,0.2l7.3,0.1v1.4c0,0.8,0.4,1.9,0.8,2.6c1.4,2.2,1.8,6.6,1.9,26.2c0.1,10.7,0.3,20.6,0.4,21.8
	c0.3,2,0,2.7-2.1,6.1c-2.1,3.3-2.5,4.3-2.8,7.7c-0.4,4.7-1.5,7.6-3.1,8.1c-0.6,0.2-1.4,0.8-1.7,1.4c-0.5,0.9-1.2,1.1-3.7,1.1
	c-2.1,0-3.4,0.3-4.1,0.9C1610.9,960.1,1610.9,960.1,1610.8,958.8z"/>
<path id="US-IN" class="st1" d="M1626.4,946.3c0.2-1.1,1.3-3.6,2.5-5.5l2.2-3.5l-0.2-21.6c-0.1-11.9-0.3-22-0.4-22.5
	c-0.2-0.7,0.2-1,1.3-1c0.8,0,1.7-0.3,2-0.6c0.3-0.3,5.2-0.6,12-0.7c9.8-0.1,11.5,0,11.6,0.7c0.7,4.4,2,40.4,1.6,41.6
	c-0.2,0.4-1,0.8-1.8,0.8c-1.9,0-2.1,0.2-5.3,4.4c-3.7,4.9-4,5.1-6,5.2c-0.9,0-3.1,0.9-4.8,1.8c-2.7,1.6-3.4,1.8-6.9,1.7
	c-2.1-0.1-4.5,0.2-5.4,0.5C1626.4,948.8,1626.1,948.6,1626.4,946.3z"/>
<path id="US-KS" class="st1" d="M1545.8,959.1c-0.1-0.1-2.6-0.3-5.6-0.5c-3-0.2-5.9-0.5-6.3-0.6c-0.5-0.1-3.2-0.4-6.1-0.6
	c-2.9-0.2-5.6-0.4-6.1-0.5c-0.5-0.1-3.3-0.3-6.3-0.6c-3-0.2-5.9-0.5-6.3-0.5c-0.5-0.1-3.2-0.3-6.1-0.5c-2.9-0.2-5.6-0.5-6.1-0.5
	c-0.5-0.1-3.2-0.3-6.1-0.6c-2.9-0.2-5.6-0.5-6.1-0.6c-0.5-0.1-3.3-0.3-6.3-0.6c-3-0.2-5.9-0.5-6.3-0.6c-0.5-0.1-1.7-0.2-2.8-0.2
	l-2,0l1-7c0.5-3.9,1.1-8.1,1.3-9.5c0.2-1.4,0.4-3.1,0.6-3.9s0.4-2.2,0.5-3.3c0.1-1.1,0.5-3.9,0.9-6.3c0.3-2.4,0.7-5.3,0.9-6.3
	c0.1-1.1,0.4-2.9,0.6-4l0.3-2.1l3.7,0.3c3.5,0.3,12,1.2,16,1.7c1.1,0.1,3.5,0.4,5.5,0.6c2,0.2,4.2,0.4,5,0.5c0.8,0.1,3,0.4,5,0.6
	c2,0.2,4.2,0.4,5,0.5c0.8,0.1,3.2,0.4,5.5,0.6c2.3,0.2,4.5,0.4,5,0.5c0.5,0.1,2.7,0.3,5,0.6c2.3,0.2,4.6,0.5,5.2,0.6
	c0.6,0.1,3.2,0.3,5.8,0.5c4.2,0.3,4.9,0.5,6.3,1.9c1.6,1.6,1.6,1.6,0.6,3.1c-0.8,1.3-0.9,1.8-0.3,3.6c0.4,1.2,1,2.1,1.4,2.1
	c0.4,0,1,0.4,1.3,1c0.9,1.8,1.3,16.8,0.6,24.1l-0.7,6.8l-1.6-0.1C1546.6,959.2,1545.9,959.1,1545.8,959.1z"/>
<path id="US-KY" class="st1" d="M1612.6,964.3c0.1-1.6,0.4-3.2,0.6-3.6c0.3-0.4,1.8-0.7,3.8-0.7c2.3,0,3.3-0.2,3.6-0.8
	c0.2-0.4,1.1-1.3,2.1-1.9c1.4-0.8,2-1.7,2.5-3.8c0.7-2.6,0.9-2.8,3.2-3.6c1.4-0.4,4.3-0.8,6.5-0.8c3.5,0,4.3-0.2,6.8-1.7
	c1.6-1,3.5-1.7,4.6-1.7c1.9,0,3.9-1.7,7.5-6.6c1-1.4,1.9-2.6,2-2.7s1.2-0.4,2.5-0.6l2.3-0.3l0.2-2.6l0.2-2.6l1.9,0.3
	c1,0.2,2.9,1,4.1,1.9c2.5,1.8,6,2.5,12.2,2.3c3.6-0.1,4.3,0,5.2,1.1c0.7,0.8,1,1.8,0.9,3.1c-0.2,2.2,1,4.5,4.4,8.5l2.3,2.7l-1.3,0.9
	c-1.6,1.1-2.2,1.8-7.5,7.6c-3.4,3.8-4.2,4.4-5.8,4.4c-5.1,0.1-38.5,0.9-40.6,1.1c-1.4,0.1-4.3,0.2-6.5,0.2c-3.3,0-4.1,0.2-4.4,1
	c-0.5,1.1,0.1,1-7.4,1.5l-5.9,0.4L1612.6,964.3z"/>
<path id="US-LA" class="st1" d="M1611.7,1079.8c-0.9-0.3-2.8-1-4.3-1.6c-2.4-1-2.8-1-4.4-0.3c-2,0.9-3.4,1.2-7,1.7
	c-3.4,0.5-6.8-1.1-9.8-4.6c-1.3-1.5-3.5-3.2-4.9-3.9l-2.5-1.3l-1.2,1.1c-2.2,2.1-7,1.8-11.5-0.7c-1.8-1-9.8-1.1-10.8-0.2
	c-1.2,1.2-1.2,0.2,0.1-3.7c0.7-2.1,1.4-5,1.6-6.3c0.6-4.4,0.9-5.4,1.9-7.3c1-1.7,1-2.1,0.3-5.4c-0.4-2-1.4-5.1-2.2-6.9
	c-1.4-3-1.5-4-1.8-11.1l-0.2-7.8h16.8c13.1,0,16.8,0.2,16.9,0.7c0.1,2.2,0.6,4.7,1.1,6.1c0.9,2.1,0,4.7-3.7,11.9
	c-3.5,6.7-4.3,10.3-2.3,11c0.7,0.3,3.6,0.5,6.4,0.6c4.5,0.1,9.5,0.3,13.5,0.5c1,0,1.2,0.5,1.5,4.3c0.4,4.7,0.8,5.3,5.2,7.4
	c2.1,1,2.3,1.3,2.3,3.2c0,1.3-0.4,2.4-1,3c-1.7,1.5-1.4,3.5,0.5,4.2c1.8,0.8,4.4,3.5,4.4,4.7c0,0.4-0.5,0.8-1.1,0.8
	c-0.6,0-1.4,0.1-1.8,0.2S1612.6,1080.1,1611.7,1079.8z"/>
<path id="US-MD" class="st1" d="M1761.7,930.5c-0.5-1-1-1.3-1.7-1.1c-2,0.5-4.3-3.4-4.4-7.9c0-1.1-0.2-2.9-0.4-4
	c-0.2-1.3-0.1-2.4,0.3-2.9c0.4-0.4,0.5-1.2,0.3-1.7c-0.5-1.2-2.3-0.1-3.4,2c-1.2,2.3-0.6,10.9,1,13.9l1.1,2.1l-1.3-0.4
	c-0.7-0.2-2-0.5-2.8-0.7c-2.1-0.5-4.3-2.6-4.3-4.2c0-0.7,0.8-2.3,1.9-3.5l1.9-2.2l-1.4-1.5l-1.4-1.5l-1.6,1.4
	c-1.8,1.5-3.5,1.4-4.5-0.2c-0.3-0.5-1.4-1.7-2.4-2.7c-1.6-1.6-2.2-1.8-4.4-1.8c-3.6,0-7.2,1.2-10.5,3.6c-1.6,1.1-3,1.9-3.1,1.8
	c-0.2-0.2-0.4-1.1-0.6-2.2c-0.3-1.9-0.3-1.9,2.1-2.2c1.3-0.2,6.9-1.1,12.3-2c10.2-1.8,10.4-1.8,14.6-2.5c1.4-0.2,3-0.5,3.6-0.6
	c0.6-0.1,1.9-0.3,2.8-0.5l1.7-0.3l1,5.1c0.5,2.8,1.5,6.7,2.1,8.5l1.1,3.4h4.3h4.3l-0.1,2.4c-0.1,1.3-0.3,2.5-0.4,2.7
	c-0.1,0.1-1.8,0.4-3.6,0.6C1762.5,931.9,1762.3,931.8,1761.7,930.5z"/>
<path id="US-MO" class="st1" d="M1603.2,975.2c-0.8-0.3-1.4-0.7-1.5-0.7s0.1-1.2,0.3-2.6c0.8-4.4,2.1-4.2-26.1-4.4l-24.7-0.1
	l-0.1-1.4c-0.4-6.5-0.2-11,0.7-14.9c0.3-1.4,0.3-12.9-0.1-17.9c-0.1-1.5-0.2-3.3-0.2-4c0-0.7-0.9-2.1-2-3.2c-1.9-1.9-1.9-2-1.2-3.2
	c1.6-2.4,1.3-3.9-0.8-5.8c-1.3-1.2-2.2-2.5-2.6-4.2c-0.3-1.3-0.8-2.8-0.9-3.2c-0.3-0.7,0.2-0.8,3.2-0.7c1.9,0.1,10.8,0.3,19.7,0.5
	c8.9,0.2,16.6,0.6,17.2,0.9c0.5,0.3,0.9,0.9,0.9,1.5c-0.1,1.1,0.5,5.7,1,7.8c0.2,0.8,1.8,2.9,3.6,4.7c2.1,2.1,3.5,4,3.8,5.4
	c0.4,1.3,1.3,2.6,2.5,3.6c4.5,3.5,4.2,2.7,3.3,7.4c-0.4,2.3-0.6,4.5-0.4,4.7s2.2,1.9,4.6,3.6c2.4,1.8,4.5,3.6,4.8,4.1
	c0.3,0.5,0.6,2.4,0.9,4.2c0.4,3.6,0.6,4.1,1.6,4.1c0.5,0,0.6,0.8,0.5,2.3c-0.2,1.8-0.6,2.7-1.9,3.9c-1.3,1.2-1.9,2.3-2.3,4.7
	C1606.1,975.9,1605.5,976.3,1603.2,975.2z"/>
<path id="US-MS" class="st1" d="M1609.6,1061.5c-2-1.7-2.1-1.9-2.3-6c-0.1-2.3-0.3-4.4-0.5-4.7c-0.2-0.2-3.6-0.5-7.6-0.6
	s-8.3-0.3-9.5-0.3s-2.8-0.2-3.4-0.2c-2-0.1-1.6-2.7,1.3-7.9c1.4-2.5,3.1-6.2,3.9-8.2c1.3-3.5,1.3-3.8,0.5-5.4
	c-0.6-1.1-0.9-3.9-1.2-9c-0.4-8.6,0.2-10.9,3.5-15.4c1.4-1.8,2.4-3.9,2.6-5.2c0.4-2.7,0.8-3.4,2.8-5.3l1.6-1.5l11.9-0.3l11.9-0.3
	l0,1.6c0,0.9-0.2,3.7-0.5,6.2s-0.7,6.5-0.9,8.8c-0.2,2.3-0.4,4.7-0.5,5.5c-0.6,4-1,19.1-0.9,32.3l0.1,15l-1.3,0
	c-4.7,0.1-7.9,0.7-8.7,1.6C1611.7,1063.2,1611.6,1063.2,1609.6,1061.5z"/>
<path id="US-NC" class="st2" d="M1741.8,996.5c-1-0.8-2.6-1.8-3.5-2.2c-0.9-0.4-4.1-2.8-7.1-5.2l-5.5-4.4l-6.2,0.2
	c-5.3,0.2-6.4,0.1-7.5-0.7c-2.1-1.6-3.2-1.8-9.3-1.7c-6.1,0.1-10.3,1-15.5,3.3c-2.8,1.3-3.4,1.4-11.1,1.9c-2.7,0.2-5.4,0.5-6.1,0.6
	c-1,0.2-1,0.2,0.2-0.7c0.7-0.5,2.3-2.1,3.6-3.4c1.3-1.3,3.5-3,5.1-3.8c1.5-0.8,4-2.5,5.5-3.8s4.7-3.4,7.2-4.5c4.5-2.2,7-4.3,7.7-6.5
	c0.5-1.8,1.6-2.2,7.1-2.6c2.7-0.2,5.4-0.5,6.1-0.6c0.6-0.1,2.6-0.3,4.4-0.5c1.8-0.2,3.8-0.5,4.4-0.6c0.7-0.1,5.9-0.8,11.6-1.6
	c5.7-0.8,10.9-1.5,11.6-1.6s2.2-0.4,3.6-0.6c3.9-0.6,11.4-1.9,15.2-2.8c0.9-0.2,1.3,0.1,1.9,1.4c0.7,1.6,0.6,1.8-0.8,3l-1.5,1.3
	l2.7,0.4c2,0.3,3.1,0.8,4.1,2c1.9,2.1,1.8,2.8-0.5,5.3c-1.1,1.2-2.1,2.5-2.2,3.1c-0.3,0.8-2.7,1.3-5.2,1.1c-0.2,0-0.3,1.1-0.3,2.4
	l0,2.4l2.1,0c2.4,0,2.5,0.5,0.8,2.6c-2.5,2.9-3.4,3.5-5.3,3.5c-1.7,0-2.5,0.5-6.2,4.5c-3.8,3.9-4.3,4.7-4.3,6.5c0,1.8-0.2,2.1-2.2,3
	c-1.2,0.5-2.3,1-2.4,1S1742.8,997.3,1741.8,996.5z"/>
<path id="US-NM" class="st1" d="M1437.9,1021c-3-0.6-6.4-1.2-7.4-1.3c-2.9-0.5-14.3-2.5-16.5-2.9c-1.1-0.2-4.4-0.4-7.4-0.4l-4.8-0.2
	l-0.7,3.3c-0.2,1.7-0.6,0.1-4.7,0c-2.3-0.1-4.6-0.9-6.6-1.1c-2-0.2-4.7-0.7-5.4-0.8c-2.4-0.6-3.9-2.3-4.6,0
	c-0.6,2.1-0.4,5.7-2.8,5.7c-3.1,0-7.4-1.2-6.5-3.6c0.3-0.7,3.7-17.4,6.7-30.2c0.9-3.9,1.8-7.7,1.9-8.4c0.1-0.7,0.6-2.9,1.1-5
	c0.5-2,1-4.2,1.1-4.8c0.1-0.6,1.8-8,3.7-16.5l3.5-15.4l1.6,0c0.9,0,2.5,0.2,3.5,0.4c6.4,1.2,31.2,6,31.9,6.1
	c0.5,0.1,1.7,0.4,2.8,0.5c2.5,0.4,21.5,4,24.9,4.8c2.6,0.6,2.6,0.6,2.3,2.3c-0.2,1-0.4,2.3-0.5,3.1c-0.1,0.8-0.4,2.2-0.6,3.3
	c-0.5,2.9-0.8,4.9-1.5,8.8c-0.7,4.3-0.9,5.8-1.3,8c-0.2,0.9-1.8,10.7-3.6,21.7c-4.1,25.1-3.9,23.6-4.3,23.6
	C1443.5,1022,1440.9,1021.5,1437.9,1021z"/>
<path id="US-NV" class="st1" d="M1315.6,943.3c-1-1.9-3-5.6-4.4-8.4s-4.5-8.4-6.7-12.7c-2.2-4.2-4.2-7.9-4.4-8.3
	c-0.2-0.3-1.9-3.5-3.8-7.2c-1.9-3.6-4.2-8-5.1-9.6c-0.9-1.7-2.8-5.1-4.1-7.7c-1.4-2.6-3.5-6.5-4.7-8.8c-3.7-7-4-5.4,3.8-27.1
	c3.8-10.6,7.1-19.5,7.3-19.8c0.5-0.5,5.4,1.1,20.7,6.8c4.2,1.6,11.7,4.1,16.5,5.6c4.8,1.5,11.5,3.6,14.8,4.6c3.3,1,6.1,1.9,6.2,2
	c0.2,0.2-18,63.2-19.5,67.8c-0.3,0.9-0.7,2.3-0.8,3c-0.1,0.8-1,3.2-1.8,5.5c-1.7,4.4-1.5,4.2-5.5,3.7c-3.1-0.4-5.6,4.1-5.7,10.3
	C1318.2,947,1317.5,947,1315.6,943.3z"/>
<path id="US-OH" class="st1" d="M1684.9,933.8c-1-1.2-1.3-1.3-5.5-1c-5.6,0.4-9.9-0.5-11.9-2.4c-1-0.9-2.3-1.5-4-1.7
	c-2.5-0.3-2.5-0.3-2.6-2.3c0-1.1-0.1-4-0.3-6.4c-0.1-2.4-0.3-7.4-0.5-11.1c-0.2-3.7-0.4-9.2-0.6-12.2c-0.3-4.4-0.2-5.6,0.4-5.6
	c0.4,0,1.4-0.1,2.1-0.2c0.8-0.1,3.9-0.3,6.9-0.5c3-0.2,5.6-0.4,5.8-0.4c0.2,0,1.7,0.7,3.5,1.5c3.5,1.6,6.5,1.9,8,0.7
	c0.5-0.4,2-1.2,3.4-1.7c1.4-0.5,3-1.4,3.6-1.9c3.6-3.2,9-6.7,9.1-5.8c0.9,8.7,0.8,21.3-0.3,29.9c-0.1,0.5-0.6,2.1-1.2,3.8
	c-0.9,2.4-1.5,3.2-3.4,4.3c-2.7,1.6-4.2,3.5-4.8,6c-0.3,1.4-0.7,1.8-2,2.1c-1.2,0.3-1.7,0.8-1.9,1.8c-0.4,1.9-1.5,4.1-2.2,4.3
	C1686.2,935.1,1685.5,934.6,1684.9,933.8z"/>
<path id="US-OK" class="st1" d="M1545.1,1006.6c-2.4-1.3-4.6-2.1-5.8-2.1c-1,0-5.8,0.1-10.7,0.3c-7.4,0.3-9.2,0.2-11.3-0.6
	c-1.4-0.5-3.3-1.1-4.4-1.2c-1.2-0.2-2.9-1.1-4.3-2.4c-1.8-1.6-3-2.2-5-2.4c-5.1-0.6-7.5-1.4-9-3c-0.9-0.9-2.7-2-4.6-2.6l-3.1-1
	l0.3-2.8c0.2-1.5,0.5-4.5,0.6-6.6c0.2-2.1,0.4-4.7,0.5-5.8c0.1-1.1,0.4-3.9,0.6-6.3c0.2-2.4,0.4-5.1,0.6-5.9c0.3-1.7,0-2-2.6-2.4
	c-3-0.4-18.5-2.5-23.9-3.1c-6.9-0.8-6.5-0.6-6.1-3.6c0.2-1.4,0.4-2.6,0.5-2.7c0.1-0.1,1.9,0.2,4,0.6c2.1,0.4,5.8,0.9,8.2,1.1
	c2.4,0.2,5.5,0.5,6.9,0.6c1.4,0.1,4.1,0.4,6.1,0.5c2,0.2,4.7,0.4,6.1,0.6c1.4,0.1,4.1,0.4,6.1,0.6c2,0.2,4.7,0.4,6.1,0.5
	c1.4,0.1,4.3,0.4,6.6,0.6c2.3,0.2,5,0.4,6.1,0.5c1.1,0.1,3.8,0.4,6.1,0.6c2.3,0.2,5,0.4,6.1,0.5c1.1,0.1,4,0.4,6.6,0.6
	c2.6,0.2,5.3,0.4,6.1,0.5c0.8,0.1,3.5,0.4,6.1,0.6c2.6,0.2,4.7,0.4,4.7,0.5c0.3,0.3,0.8,16.3,0.8,22.4c-0.2,14.6-0.4,24.8-0.6,25
	C1549.1,1008.7,1547.2,1007.8,1545.1,1006.6z"/>
<path id="US-SC" class="st1" d="M1715.3,1026.8c-0.8-0.4-2-1.9-2.7-3.2s-1.5-2.5-1.7-2.5c-0.8,0-3.2-3-3.2-3.9
	c0-0.5-0.9-2.1-2.1-3.5c-1.1-1.4-2.8-3.4-3.7-4.6c-0.9-1.2-3-3.2-4.7-4.5c-1.7-1.3-4.3-4-5.8-5.9c-1.5-1.9-3.6-4-4.7-4.5
	c-2.6-1.3-3.3-2.3-2.9-3.7c0.3-1.3,3-2.7,9.3-4.8c6.6-2.2,18.4-1.6,18.4,0.9c0,0.4,2.3,0.5,6.8,0.4c5.3-0.1,7,0,7.8,0.6
	c0.6,0.4,1.4,1.1,1.8,1.5c0.5,0.4,2.3,1.9,4.1,3.4c1.8,1.5,4.4,3.3,5.8,4c1.4,0.7,2.6,1.3,2.7,1.4c0.1,0.1-0.8,1.4-2,2.8
	c-2.7,3.2-3.2,4.2-3.7,7c-0.3,1.5-1,2.8-2.4,4.1c-1.1,1.1-3,3.1-4.2,4.6c-1.2,1.4-4.3,4.6-6.9,6.9
	C1716.9,1027.3,1716.7,1027.5,1715.3,1026.8z"/>
<path id="US-TN" class="st1" d="M1602.1,989.5c0-1.6,1.2-4.7,2.6-7c2-3.2,3.4-6.7,3.8-9.5c0.3-2.6,1.3-3.8,3.1-3.9
	c0.7,0,4.3-0.3,8.1-0.5c5.7-0.3,7-0.6,7.7-1.4c0.8-0.9,2.1-1.1,14.6-1.4c36.6-0.9,44.8-1.2,52.1-1.7c2-0.2,3.7-0.1,3.7,0.1
	c0,0.7-1.3,2.8-2.4,3.7c-0.6,0.5-3,1.8-5.2,2.9c-2.2,1-5.4,3.1-7.2,4.6c-1.7,1.5-4.3,3.2-5.7,3.8s-3.2,2-4.1,3.1
	c-0.9,1.1-2.9,2.8-4.4,3.8c-1.5,1-2.9,1.9-3,2.1c-0.6,0.8-6.8,1-32.5,1.3c-14.7,0.2-27.7,0.4-29,0.5
	C1602.8,990.1,1602.1,990,1602.1,989.5z"/>
<path id="US-TX" class="st1" d="M1504.8,1122.8c-2.5-1.8-3.4-2.2-5.6-2.2c-2.1,0-3.3-0.4-5.6-1.9c-1.6-1-3.9-2.2-5.1-2.6
	s-2.5-1.2-2.9-1.7c-0.4-0.5-1-1.3-1.5-1.7c-0.7-0.7-2.2-5.5-1.7-5.7c0.1,0,0.1,0.8-0.3-2.4c-0.2-1.7-0.6-0.5-0.9-4.5
	c-0.3-4.1-2.1-5-4.1-8.5c-3.6-6.1-6.3-14.1-6.7-16.3c-0.6-3-3.4-7.6-6.4-9.7c-1-0.7-0.1-1.3-0.7-2.4c-0.8-1.6-3.5-3.2-5.1-3.5
	c-1.1-0.2-3.4-0.7-5.1-1c-4.6-1-8.1-0.1-9.4,2.4c-0.6,1.1-1.8,1.3-1.8,1.7c0,0.4-1.6,2.1-2.6,3.2c-1.4,1.5-0.8,2.3-2.2,2.3
	c-2.6-0.1-3.2-0.4-7.4-4.1c-5.6-5-7.7-8.9-7.8-11.9c-0.1-1.3-1.1-7.5-1.7-8.9s-4.1-4.1-4.7-4.8c-0.9-1.1,2,0.8-2.9-4.1
	c-1.2-1.2-1.7-2.4-2.3-3.5c-0.5-1.1-2-2.5-2.5-2.8c-0.6-0.3-0.7-2.1-1.1-3.1s-1.1-2.2-1.8-3c-0.9-0.9-2.4-1.9-2.3-2.8
	c0.2-1.2,0.4-1.3,3.6-1.4c1.9,0,5.9,0.4,9,0.9c6,1,8,1.4,11.3,1.9c1.1,0.2,3.1,0.5,4.3,0.8c1.2,0.3,3.4,0.6,5,0.8s2.9,0.5,3.1,0.6
	c0.8,0.5,7.1,0.9,7.1,0.4c0-0.3,0.4-2.6,0.8-5.1c0.5-2.6,0.9-5.4,1.1-6.3c0.1-0.9,1.4-8.6,2.8-17.1s2.7-16.2,2.8-17.3
	c0.2-1,0.4-2.4,0.5-3c0.1-0.6,0.4-2,0.5-3.1c0.2-1.1,0.4-2.6,0.6-3.3c0.1-0.7,0.4-2.3,0.6-3.6c0.2-1.2,0.4-2.6,0.5-3
	c0.1-0.5,0.2-1.1,0.2-1.4c0-0.4,1.4-0.4,4.7,0.1c2.6,0.4,6.2,0.9,8.1,1c1.9,0.2,3.8,0.4,4.2,0.6c0.5,0.1,2.2,0.4,3.9,0.5
	c1.7,0.2,4.5,0.6,6.3,0.9c1.8,0.3,3.5,0.5,3.8,0.5c0.3,0,0.3,1.9,0.1,4.3c-0.7,9-2,22.5-2.2,23.4c-0.3,1.2,0.4,1.7,4.1,2.9
	c1.8,0.6,3.5,1.6,4.2,2.5c1.3,1.6,4.4,2.7,8.9,3.1c2.6,0.2,5.5,1.8,6.6,3.5c0.4,0.7,1.3,1.1,2.2,1.1c0.8,0,2.9,0.5,4.5,1.1
	c2.8,1.1,4,1.1,14.3,1c12.4-0.2,12-0.2,17.5,3.5c1.3,0.9,3.2,1.9,4.3,2.1l1.9,0.5v12v12l1.6,3.5c0.9,1.9,1.9,5,2.3,6.9
	c0.6,3,0.6,3.5-0.4,5.5c-0.6,1.2-1.3,3.8-1.5,5.7c-0.2,2-0.8,4.8-1.4,6.3c-0.5,1.5-1.2,3.6-1.4,4.5c-0.3,1.4-0.6,1.8-1.6,1.8
	c-2.2,0-5.1,1.6-7.2,3.8c-2.1,2.3-7.8,5.7-14.6,8.9c-3.7,1.7-6.9,3.5-7.7,4.4c-0.2,0.2-1.5,1.3-3,2.5c-3.5,2.7-5.2,4.6-8.4,9.2
	c-2.5,3.6-2.5,3.8-2.4,7.4c0.1,2.1,0.3,4.5,0.6,5.4c0.6,1.9-0.4,8.1-0.8,9.1C1507.4,1122.8,1507.9,1125.1,1504.8,1122.8z"/>
<path id="US-UT" class="st1" d="M1353.9,853.6c-0.4,0-0.6,0.2-0.7,0.7c-0.1,0.5-1.4,4.7-2.7,9.4s-3.4,11.6-4.5,15.4
	c-1.1,3.8-2.9,9.8-3.9,13.5s-2.8,9.6-3.9,13.2c-1.1,3.6-2.2,7.3-2.4,8.3c-0.3,0.9-1,3.4-1.6,5.5c-0.6,2.1-1.1,3.9-1,3.9
	c0.1,0,12,3,26.5,6.7c26,6.5,27.8,6.9,27.8,6.5c0-0.1,1.7-8,3.9-17.5c2.1-9.5,4-17.9,4.2-18.7c0.1-0.8,1-4.7,1.9-8.7
	c0.9-4,1.8-8,1.9-8.8c0.1-0.8,0.4-1.6,0.5-1.8c0.1-0.2-0.8-0.6-2.1-0.8c-4.5-0.8-19-4-19.7-4.4c-0.3-0.2-0.5-0.8-0.3-1.2
	c0.5-1.2,3.2-11.4,3.3-12.2c0.1-0.6-9.2-3.8-26.2-8.9C1354.5,853.6,1354.2,853.6,1353.9,853.6z M1360.8,861.1c0.2,0,0.4,0,0.8,0.1
	c2,0.5,4,3,4,5.1c0,1.9,1,2.4,2.2,1c0.9-1.1,2.2-0.1,1.8,1.4c-0.2,0.6,0,1.9,0.3,2.8c0.7,1.9,0.1,3-1.9,3.8
	c-3.1,1.2-3.4,1.1-4.8-0.4c-2.9-3-3.7-5.6-3.4-10C1360.1,861.9,1360.2,861.1,1360.8,861.1z"/>
<g id="US-VA">
	<path id="path199" class="st1" d="M1685.7,958.7c4.5-5.3,7.2-7.7,8.5-7.2c0.5,0.2,0.9,0.5,0.9,0.8s0.9,0.6,1.9,0.8
		c1.4,0.3,3.5-0.2,8-1.7c5.5-1.8,6.2-2.2,6.8-3.7c0.4-0.9,1.2-2.3,1.8-3.1s1.9-3.5,2.9-6.1c1-2.6,2-4.8,2.2-5s1.3-0.5,2.5-0.7
		c3.7-0.6,4-0.8,4.4-3.2c0.3-1.9,0.9-2.8,3.4-5c1.6-1.5,3-2.8,2.9-3c-0.2-1.4,0.1-1.7,1.5-1.2c2.2,0.8,4,0.6,4.6-0.6
		c0.6-1.1,0.6-1.1,1.7,0c0.6,0.6,1.3,1.1,1.6,1.1s1.4,0.4,2.5,0.8c2,0.8,2,0.9,1.1,2.2c-0.8,1.3-0.8,1.5,0.1,3.6
		c0.8,1.8,1.6,2.5,4.3,3.8c1.8,0.9,4,1.8,4.9,2c1.7,0.4,2.8,2,2,2.8c-0.3,0.3,0.1,1.2,1.1,2.4c1.3,1.5,1.6,2.4,1.6,4.5
		c0,2.2,0.3,2.8,1.7,4.1c3.5,3.2,3.8,3.5,3.8,4.6c0,0.6-0.3,1.1-0.7,1.1c-1,0.1-3,0.4-7.3,1.3c-3.8,0.8-19.3,3.2-25,3.8
		c-1.7,0.2-3.4,0.4-3.9,0.5c-0.5,0.1-2.2,0.4-3.9,0.5s-3.6,0.4-4.1,0.5c-1.8,0.3-5.8,0.8-12,1.4c-3.3,0.3-7,0.7-8.3,0.8
		c-1.2,0.1-5.2,0.4-8.8,0.6c-3.6,0.2-7.1,0.5-7.6,0.6C1682.2,963.2,1683.4,961.4,1685.7,958.7z"/>
	<path id="path201" class="st1" d="M1761.9,945.7c-0.5-0.8,0.3-5.3,1.2-7.8c0.4-1.1,0.7-2.5,0.5-3.1c-0.3-1.1,0.8-1.7,3.4-1.7
		c1,0,1.2,0.2,0.9,1c-0.2,0.5-0.8,2.1-1.3,3.4s-1.3,2.9-1.8,3.4c-1.1,1.1-1.2,1.9-0.3,2.2c0.4,0.1,0.3,0.7-0.3,1.7
		C1763.1,946.3,1762.4,946.6,1761.9,945.7z"/>
</g>
<path id="US-WV" class="st1" d="M1697.3,951.1c-3.5-1.3-9.8-8.3-10.2-11.4c-0.2-1.2,0.2-2.3,1.4-3.8c0.9-1.2,1.6-2.7,1.6-3.4
	c0-0.9,0.5-1.5,1.9-2c1.5-0.6,1.9-1.2,2.2-2.7c0.4-2.3,2.1-4.3,4.9-6c2.7-1.6,4.8-6.3,4.8-10.9c0-4.2,0.9-4.5,1.3-0.4
	c0.6,5,1.4,5.6,7.6,5.4l5-0.2l0.6,2.8c0.5,2.5,0.7,2.7,2,2.6c0.7-0.1,2.7-1.1,4.4-2.3c3.7-2.6,8.9-3.9,11.2-2.9
	c1.6,0.7,1.7,1.1,0.7,2.6c-0.7,1-0.8,1-3.1-0.2c-2.6-1.4-3.1-1.2-3.6,1.5c-0.3,1.8-2.6,4.3-4.7,5.1c-0.6,0.2-1.1,1.3-1.3,2.9
	c-0.4,2.8-0.5,2.9-4,3.2c-1.3,0.1-2.4,0.3-2.5,0.4c-0.1,0.1-1.1,2.6-2.2,5.4c-1.1,2.9-2.8,6.3-3.7,7.7c-0.9,1.3-1.6,2.6-1.6,2.8
	c0,0.4-3.1,1.6-8.8,3.4C1699.4,951.3,1698.2,951.4,1697.3,951.1z"/>
<g>
	<path class="st3" d="M1637.9,1202.9c0.1,0.1,0.3,0.2,0.5,0.2c0,0,0.1,0,0.1,0c0.3,0,0.5-0.1,0.6-0.3c0.2-0.2,0.2-0.5,0.1-0.9v0
		c-0.1-0.2-0.4-0.7-0.8-0.8c-0.2,0-0.3,0-0.5,0.1c0,0-0.1,0.1-0.1,0.1c-0.1-0.7-0.3-1.2-0.9-1.3c-0.2,0-0.9-0.5-1.8-1.3
		c-1.6-1.4-1.8-1.4-4.2-1.2c-1.2,0.1-3.4,0.1-4.8-0.2l-6.9-1.1l1.7,0.7c-2.3-0.6-4.7-0.9-6.2-0.7c-1.1,0.1-3.1,0.7-4.6,1.4
		c-1.4,0.6-3.2,1-4.2,1c-6.4,0-12.4,1.4-15.9,3.9c-1.5,1.1-2.4,2.4-2.4,3.5c0,0.5,0.1,0.9,0.5,1.2c0,0.1,0,0.1,0,0.3c0,0,0,0,0,0
		c-0.6,0-0.7,0.7-0.7,1.1l-0.3,1.9c-0.5,1-1,4.8-1,5c-0.5,4.1-0.6,4.1-1.3,4.5c-1,0.6-1.4,1.5-2.2,4.1c-0.9,3.1-0.9,3.1-2.9,4.6
		c-1.2,0.9-2.1,1.4-2.3,1.5c-0.6,0.1-2,0.7-3.2,1.3c-2.5,1.3-3,1.8-3,2.3c-0.2,0-0.5,0.1-0.7,0.5c0,0.1-0.2,0.1-0.2,0.1
		c-0.6-0.1-2.3,0.7-2.5,0.8l-1.4,0.6c0-0.1-0.1-0.2-0.1-0.3c-0.2-0.3-0.5-0.8-4.1-1.4c-2.4-0.4-3.5-0.5-4.2,0.1c0,0-0.1,0.1-0.1,0.1
		c-0.1-0.1-0.2-0.1-0.3-0.1c-0.7-0.1-2.9,1.1-3.8,1.7c-0.7,0.5-1.9,0.9-2.7,1c-0.8,0.1-1.8,0.4-2.3,0.7c0,0,0-0.1,0-0.1
		c-0.1-0.5-0.7-0.6-1.1-0.7c-1.6-0.2-6.9,0.1-7.9,0.6c-0.6,0.3-1,0.5-0.9,1c0.1,0.2,0.2,0.3,0.3,0.4c-0.4,0.3-0.6,0.4-0.8,0.4
		c0,0,0,0,0,0c0-0.3-0.2-0.5-0.4-0.6c-0.4-0.2-0.8-0.1-1.7,0.3c-0.4,0.2-0.8,0.4-1,0.7l-3.4-0.2c-2.6-0.1-2.6-0.2-2.9-0.8
		c-0.1-0.2-0.4-0.7-0.8-0.9c0.1-0.5,0-1-0.2-1.3c-0.1-0.2-0.4-0.8-0.6-1.3c-0.3-0.8-1-1.4-2-1.8c-0.6-0.2-1.6-1-2.2-1.8
		c-1.2-1.5-1.5-1.7-3.8-1.8c-1.4-0.1-2.6-0.3-3.5-0.8c-0.8-0.4-1.3-0.5-1.6-0.6c0-0.4-0.4-0.8-1.2-1.2c-0.4-0.2-0.9-0.8-1-1.3
		c-0.2-0.6-0.7-1.5-1.3-1.7c-0.2-0.1-0.6-0.6-0.8-1.2c-0.3-0.7-1-1.9-1.8-2.6c-0.9-1-1-1.2-0.9-3.1c0.1-1.6-0.1-2.9-0.6-3.8l0,0
		c-0.4-0.7-1-2.1-1.4-3.2c-1.1-2.8-2.5-5.3-4.9-8.4c-1-1.4-1.7-2.5-1.8-2.8c0-0.6-0.3-1.8-0.5-2.3c-0.8-2.3-0.8-6.8-0.2-7.7
		c0.7-1.1,1.1-2.7-0.9-4.3c-0.5-0.4-1.5-1.8-2.2-3.3c-1.5-3.3-1.7-3.6-2.3-3.5c-0.1,0-0.1,0-0.2,0.1c-0.2-0.4-0.3-0.7-0.5-0.9
		c0.1-0.3,0.1-0.9,0.2-2.7c0.1-1.9,0-2.3-0.5-2.4c0.1-0.3,0.3-0.6,0.4-0.8c0.1,0,0.1,0,0.2,0c0.3,0,0.7,0,1.5-2.2
		c0.7-2,0.8-2.9,0.7-5.9c-0.1-2.1,0.1-5.2,0.6-8.3c0.1-0.5,0.2-1,0.2-1.4l0.6,0.1l0.3-1.6c0.1-0.8,0.6-2.2,0.9-2.9
		c0.5-1.1,0.6-1.7,0.2-2.4c0.2-0.1,0.3-0.3,0.5-0.5c0.4-0.4,0.7-1.4,0.8-2c0.2-1,0.7-2.4,2.6-6.8c0.4-0.8,1.5-2.7,2.6-4.2
		c1.2-1.7,4.4-8.1,3.5-9.3c-0.2-0.2-0.5-0.5-1.2-0.4c-0.8,0.1-1.7,0.5-2.1,1.2c-0.1,0.2-0.1,0.2-0.2,0.2c-0.3,0-0.9-0.3-1.7-1.4
		l-0.1-0.1c-0.9-1.4-1.1-1.4-5.2-2.3l-0.3-0.1c-2.7-0.6-3-0.8-3.5-1.5c-0.6-0.9-1.4-1.4-3-1.8c-1.2-0.3-2-0.8-2.1-1.1
		c-0.7-1.1-2.5-2.3-3.9-2.5c-0.4-0.1-0.5-0.1-0.6-0.9c-0.1-0.7-0.4-1.7-0.8-2.2c-0.3-0.3-0.4-0.6-0.4-0.7c0.1-1.5,0.1-2-0.4-2.2
		c-0.1,0-0.2,0-0.3,0c-0.1-0.7-0.2-1.5-0.5-2.2c-0.3-0.7-0.4-1.9-0.3-2.5c0.1-0.8,0.1-1.9-0.1-2.5c-0.2-0.4-0.2-1.1-0.1-1.5
		c0.4-1.8,0.4-2.9-0.9-3.8c-0.6-0.4-1-0.5-1.5-0.4c0.1-0.4-0.1-0.8-0.4-1.2c-0.3-0.3-0.5-0.7-1-0.7c-0.1,0-0.2,0-0.3,0
		c0.5-1.2,0.5-2.6-0.3-3.7c-0.4-0.6-0.6-1-0.6-1.2c0-0.2-0.2-0.6-1.4-1.8c-1.1-1-1.8-2.4-1.7-3.5c0-0.6-0.5-1.8-0.9-2.5
		c-0.5-0.8-0.7-1.8-0.7-2c0.1-0.7-0.2-1.8-0.5-2.6c-0.4-0.8-0.5-1.6-0.5-1.8c0.1-0.6-0.4-1.6-0.8-2.4c-0.4-0.7-0.7-1.3-0.7-1.4
		c-0.1-0.8-2.3-4-3.9-4.3l-0.1,0c-0.1-0.1-0.2-0.4-0.3-0.5c-0.1-0.2-0.2-0.4-0.3-0.6c-0.1-0.2-0.2-0.4-0.3-0.6
		c-0.1-0.1-0.2-0.2-0.2-0.3c0,0-0.1-0.1-0.1-0.1c0,0,0,0,0-0.1c0.2-1.7-1.3-2.9-4.6-3.5c-5.1-1-8-1.6-9.2-2.1
		c-1.2-0.4-1.8-0.4-2.7,0.4c-0.4,0.3-0.7,0.5-0.8,0.6c0,0,0,0,0,0c-1.1,0-2.9,2.7-3.4,3.8c-0.5,1.2-1.8,2.7-3.7,4.1
		c-0.8,0.6-1.7,1.5-2,2.2c0,0.1-0.2,0.3-0.5,0.7c0,0,0-0.1,0-0.1c-0.1-0.2-0.2-0.5-0.7-0.6c-0.6-0.2-2-1.2-2.3-1.6
		c-0.3-0.5-1.2-1.1-1.8-1.3c-0.5-0.2-1-0.7-1.1-0.9c-0.2-0.7-1.1-1.3-1.9-1.6c-1.1-0.4-2.4-2-2.4-2.4c0-0.2,0.1-0.6-2.3-2.9
		c-1.2-1.1-1.8-2.1-1.9-2.3c0-0.5-0.1-1.5-0.3-2.3c-0.2-0.7-0.3-2-0.1-2.6c0.2-0.9,0-2.3-0.4-3.2c-0.3-0.8-0.6-1.9-0.7-2.6
		c-0.1-1.8-2.8-5.6-4.3-6.2c-0.4-0.1-0.6-0.3-0.7-0.4c-0.1-0.3-0.5-1.2-2.2-3.5c-1.2-1.6-1.9-2.7-2.1-3c0-0.2-0.2-0.6-0.8-1.3
		c-0.7-0.9-1.1-1.1-1.2-1.1c-0.5-0.3-2.2-3.2-2.8-5.2l-0.8-2.4l-3.4-0.6c-1.7-0.3-7-1.4-11.7-2.4c-4.2-0.9-8.9-1.9-9.2-1.9
		c-0.8-0.1-1,0.8-1.1,1.1c-0.2,0.6-0.3,1.4-0.5,2.9l-0.4,3l-0.9-0.3c-1.1-0.4-1.9-0.6-2.5-0.1c0,0-0.1,0.1-0.1,0.1c0,0,0-0.1,0-0.1
		c-0.2-0.5-0.6-0.6-1.4-0.9c-1.1-0.3-12.1-2.9-23.2-5.4l-0.1,0c-2.4-0.6-2.4-0.6-23.9-16.2l-1-0.8c-3-2.2-8.1-5.9-11.4-8.3l-5.9-4.2
		c1.8-1.4,1.8-1.7,1.8-1.9c0.1-0.9,0.1-1-14.4-4c-13.4-2.7-15.1-2.8-15.7-2.4c-0.2,0.1-0.3,0.3-0.3,0.5c-0.1,0.5,0.5,2.3,0.7,2.7
		c0.4,1.1,0.7,2.7,0.7,3.5c0,1,0.4,2.3,0.8,2.9c0.3,0.4,0.5,0.9,0.5,1c0,0.3,0.1,0.6,0.3,0.8c0.2,0.2,0.4,0.3,0.7,0.3
		c0,0,0.1,0.1,0,0.3c0,0,0,0.1,0,0.1c0,0-0.1-0.1-0.2-0.2c-0.2-0.3-0.6-0.5-0.9-0.6c-0.2,0-0.5,0-0.6,0.2c-0.4,0.3-0.4,1,0,1.5
		c0.1,0.1,0.2,0.7,0.1,1.4c0,0.3-0.2,1.6,0.3,2c0.1,0.2,0.6,1.1,1.1,2.4c0.7,1.7,0.8,2.7,0.6,4.1c-0.3,2.4,0.1,2.6,0.5,2.7
		c0.4,0.4,0.8,2.7,0.5,5.2c-0.3,2-0.2,3.2,0.2,3.6c0.2,0.2,0.5,0.2,0.7,0.1c0.1,0,0.2-0.1,0.2-0.1c0.1,0.4,0.3,0.7,0.4,0.8
		c0.5,0.7,0.5,1.5-0.6,4.6c-0.3,1,0,1.6,0.5,1.9c0,0,0.2,0.3,0.1,1.2c-0.2,1.5,0.1,2.1,1.4,3.5c0.8,0.9,2,2.4,2.6,3.3
		c0.1,0.1,1.4,1.9,2.2,2c0.7,0.1,3,3.4,3.8,6.8c0.2,0.7,0.7,1.6,1.3,1.9c0.2,0.1,0.7,0.9,1,2c0.3,1.2,1.1,2.7,1.7,3.5
		c0.8,1.1,0.8,1.2,0.5,2.2c-0.3,0.8-0.6,1.4-0.7,1.5c-0.6,0.5-0.9,1.2-0.6,1.8c0.1,0.2,0.3,0.4,0.6,0.5c-0.1,0.2-0.2,0.3-0.2,0.4
		c-0.3,0.6-0.5,1-0.6,1.3c0-0.4,0-0.8-0.5-1c-0.5-0.2-0.8,0.2-1.6,0.9c-0.4,0.5-0.8,0.8-0.9,1.1c0,0-0.1-0.1-0.1-0.1
		c-0.5-0.3-1.1,0-1.8,0.3c-1.2,0.7-2.8,0-3.9-0.7c-2-1.2-3.4-1.6-4.2-1.3c-0.2,0.1-0.5,0.3-0.4,1c0.1,0.9,1.1,2.7,2.1,2.9
		c0.1,0.1,0.3,0.4,0.4,0.9c0.2,1,0.8,1.7,1.6,2.1c1,0.4,1.5,1,1.3,2.7c-0.2,1.2,0.3,2.7,1.2,3.4c0.4,0.4,0.9,0.6,1.4,0.4
		c0.2-0.1,0.9-0.2,1.7,1.7c0.5,1.2,1.2,1.8,2,1.9c0.2,0,0.6,0.1,1.2,1.3c0.3,0.8,1,1.8,1.5,2.1c0,0,0,0,0,0c-0.2,0.3-0.1,0.7,0.2,1
		c0.4,0.4,1.4,0.6,2,0.1c0.3-0.2,0.6-0.6,0.7-1c0.1,0.4,0.5,0.7,1.1,1.1c0.8,0.4,1.3,0.5,1.7,0.3c0,0.1,0,0.1,0.1,0.2
		c0.2,0.3,0.4,0.4,0.9,0.3c-0.2,0.5-0.1,1,0.2,1.9c0.2,0.7,0.3,1.3,0.2,1.4c-0.1,0.2-0.2,0.6,0.1,1.1c0.3,0.7,1.3,1.6,2.2,1.8
		c-0.1,0.1-0.2,0.2-0.2,0.4c-0.1,0.3,0,0.7,0.9,1.3c0.5,0.4,1.2,1,1.6,1.5c0.5,0.7,1.3,1,1.9,0.9c0.1,0,0.1,0,0.1,0c0,0,0,0,0,0
		c0,0,0.2,0.2,0.3,0.9c0.1,0.5,0.4,1.7,1.1,1.8c0.3,0.6,0.5,3,0.3,5.3c-0.2,2-0.2,2.2,0.3,2.3c0,0,0,0,0,0c-0.3,0-0.4,0.2-0.5,0.3
		c0,0.1-0.1,0.1-0.1,0.2c0,0,0,0,0,0c-0.5-0.2-0.8,0.3-1,0.6c-0.3,0.5-0.6,1.2-0.7,1.7c-0.1,0.5,0,0.8,0.3,1
		c0.1,0.1,0.2,0.1,0.4,0.1c0,0,0,0.1-0.1,0.1c0,0-0.1-0.1-0.2-0.1c-0.5-0.2-0.7,0.2-1.1,0.8c-0.3,0.5-1,1.5-1.4,2.3
		c-0.4,0.7-1,1.6-1.2,1.9c-0.6,0.8-0.8,1.5-0.5,1.9c0.1,0.1,0.4,0.5,1,0.3c0,0.2,0,0.5,0,0.8c0,0.6,0.2,1.4,0.5,1.9
		c0.1,0.2,0.5,0.7,0.9,0.8c0,0,0.1,0,0.1,0c0,0,0.1,0,0.1,0c0.1,0.3,0.4,0.6,0.9,1.1c0.4,0.4,1,1,1.6,1.2c0,0,0,0,0,0
		c-0.3,0.4-0.1,0.9,0.5,1.8c0.2,0.3,0.7,1.1,1.3,1.1c0.1,0,0.2,0,0.3-0.1c0.3-0.1,0.3-0.4,0.3-0.6c0.8,0.6,2.2,1.2,2.8,1.4
		c1,0.4,5.7,6.4,6.4,8.5c0.4,1.1,1.3,2.2,2.5,3.1c1.4,1,1.8,1.6,2.4,3.6c0.4,1.3,0.8,3.4,0.8,4.5c0,1.5,0.3,2.8,0.9,3.6
		c0.9,1.3,1.1,1.3,1.3,1.4c0,0,0,0,0.1,0c0.2,0,0.5-0.1,2.3-0.8c1.1-0.4,2-0.6,2.2-0.6c0.6,0.1,1.4-0.4,2-0.8
		c1.4-1.1,2.3-2.9,2.3-4.6c0-1.3-0.5-2.5-1.5-3.3h0c-0.8-0.6-1-1-1.2-2.8c-0.1-1.3-0.1-2.6-0.1-3c0.2-1.3-0.6-1.5-1.3-1.6
		c-0.3,0-0.4-0.1-0.4-0.2c0-0.8-1.3-2.7-1.7-3.3c-0.8-1.1-1.3-1.8-1.8-2.1c0.1-0.2,0.2-0.4,0.3-0.8c0.1-0.6-0.5-1.7-0.9-2.1
		c-0.7-0.9-1-1.3-1.5-1.1c-0.5,0.3-0.4,0.7,0.1,2.3c0.3,0.9,0.6,1.4,0.8,1.7c-0.1,0-0.1,0.1-0.2,0.1c-0.3,0.4-0.5,1.2-0.6,1.9
		c-0.2-0.2-0.6-0.3-1.1-0.3c-1-0.2-2.1-0.9-2-4.8c0.1-1.7,0.2-2.6,0.5-2.9c0.5-0.5,0.7-1.1,0.6-2c0.2,0.3,0.5,0.6,0.5,0.6
		c0.6,0.5,1,0.8,1.3,0.8c0.1,0,0.2,0,0.3-0.1c0.2-0.2,0.4-0.3,0.1-2.2c-0.2-1.2-0.7-2.1-1.4-2.5c-0.4-0.2-1.3-0.7-1.8-0.2
		c0,0,0,0.1-0.1,0.1c-0.7-1.8-1-3.8-0.8-6.2c0.1-0.7-0.3-1.4-0.8-1.7c-0.2-0.2-0.7-1.2-1.3-2.9c-0.1-0.4-0.2-0.7-0.3-1
		c0,0,0.1,0,0.1,0c0.4,0,0.9-0.4,1.7-0.9c1.1-0.8,1.6-1.7,1.4-2.3c-0.1-0.2-0.2-0.7-0.9-0.8h0c-0.8-0.1-2.2,1.4-2.7,2.5
		c0-0.5,0.1-0.9,0.4-1.4c0.6-1.1,0.7-1.9,0.3-2.4c-0.3-0.4-0.4-2.8-0.1-4.7c0.1-0.8,0.1-1.3-0.2-1.6c-0.1-0.2-0.3-0.3-0.5-0.4
		c-0.1-0.1-0.2-0.4-0.2-0.8c-0.1-1.2-1.9-5.2-3-5.3c-0.3,0-0.6,0.1-0.8,0.4c0,0-0.1,0.1-0.1,0.2c-0.1-0.3-0.2-0.6-0.3-0.8
		c0-0.1,0-0.4,0.1-0.9c0.4-1.2,0.2-1.7-0.8-2.5c0.4-0.1,0.6-0.4,0.7-0.8c0.1-0.4-0.2-0.9-0.5-1.2c-0.2-0.2-0.5-0.2-0.8-0.1
		c-0.3,0.1-0.5,0.4-0.5,0.7c-0.1-0.2-0.1-0.5-0.1-0.8c0-2.2-1.2-5.6-2.5-6.5c-0.8-0.6-2.2-4.3-2.1-5l0.2-0.2l-0.1-0.3
		c0-0.1,0-0.1-0.1-0.2c0.2,0,0.3-0.1,0.5-0.2c0.4-0.3,0.5-0.8,0.6-1.7c0.1-0.5,0.2-1.8-0.2-2.3c-0.1-0.2-0.2-0.7-0.2-1.5
		c0-1.5-0.3-2.1-1.5-2.5c-1.2-0.4-1.6-0.9-1.4-2.8c0.1-1.1,0.2-2.2-1.1-2.4c-0.2,0-0.2-0.1-0.2-0.1c0,0,0-0.1,0-0.3
		c0.2-1.3-0.3-1.7-0.6-1.9c-0.3-0.1-0.8-0.2-1.4,0.4c0-0.1,0-0.1,0-0.2c-0.1-0.6-0.1-0.8-0.1-0.8c0.6-0.3,0.8-0.9,0.7-2
		c-0.1-0.6-0.1-1.4,0-1.6c0.2-0.7-0.6-1.9-1.1-2.5c-0.6-0.7-1.4-1.9-1.8-2.7c-0.4-0.8-1.1-2-1.6-2.5c-0.4-0.6-0.8-1.3-1-1.6
		c-0.2-0.5-0.7-1.1-1.2-1.3c-0.5-0.2-0.8-0.4-0.8-0.5c0,0,0-0.1,0-0.1c0.3-0.6,0.1-1.4-0.3-1.9c-0.3-0.3-0.4-0.7-0.4-0.8
		c0.1-0.5-0.3-1.1-0.7-1.4c-0.2-0.4,0.3-3.7,0.8-6.3c1-6.1,1.1-7,0.3-7.4c-0.2-0.1-0.2-0.6,0.1-3.2c0.3-2,1.3-4.5,1.9-5
		c0.1-0.1,0.2-0.2,0.2-0.2c-0.1,0.5-0.1,1.2,0.2,2.2c0.2,0.8,0.6,1.3,1.1,1.5c0.1,0,0.3,0.1,0.4,0.1c0.4,0,0.9-0.2,1.4-0.6
		c0.4-0.3,1-0.8,1-1.4c0-0.2,0-0.3-0.1-0.5c0.1,0,0.1,0,0.2,0c0.2,0.5,0.8,1.1,1.3,1.4c0.6,0.4,0.6,0.5,0.5,1
		c-0.4,1.5,0.3,1.8,2.7,2.7c2,0.8,2.8,0.9,3.2,1c0,0,0,0,0,0.1c0.2,0.9,0.8,1.2,1.2,1.1c0.2,0,0.5-0.2,0.6-0.5
		c0.2,0.4,0.2,0.5,0.2,0.5c0,0,0,0.1-0.4,0.2c-0.4,0.1-0.7,0.3-0.9,0.7c-0.1,0.4,0.1,0.8,0.5,1.3c0.2,0.3,0.4,1.2,0.3,2.1
		c-0.2,1.2,0.1,2.5,0.9,4.2c0.6,1.2,1.1,3.2,1.3,4.2c0.2,1.6,0.6,2.5,1.2,2.8c0.5,0.2,0.7,0.6,0.2,4.3c-0.4,3.4-0.2,3.9,0.2,4
		c0.2,0.2,0.6,0.9,1.1,1.9c0.8,1.5,1,2.3,0.8,3.5c-0.2,1.4-0.3,2.3,1,2.6c0.2,0.1,0.4,0.3,0.6,0.6c-0.3-0.2-0.7-0.2-1.2-0.1
		c-0.9,0.2-2,1.1-2.2,2.2c-0.1,0.5-0.5,1.3-0.9,1.7c-0.5,0.5-0.9,0.8-0.8,1.3c0,0.6,0.6,0.9,1.7,1.8c0.7,0.5,1.2,0.8,1.7,0.8
		c0.1,0,0.2,0,0.2,0c0.6-0.1,1-0.7,1.6-1.5h0c0.2-0.3,0.4-0.7,0.5-1.1c0.5,1,1.5,2.3,2.1,2.8c0.1,0.1,0.2,0.1,0.3,0.2
		c-0.1,0-0.1,0.1-0.1,0.1c-0.4,0.5-0.2,1.3,0.6,2.7c0.5,0.8,0.7,1.6,0.7,1.7c-0.1,0.9,1.3,1.9,1.8,2.2c1.3,0.8,1.4,0.9,1.6,2.8
		c0.2,2.1,0.3,2.8,0.8,3.1c0.4,0.3,0.9,0.1,1.2-0.1c0,0,0,0,0,0c0.1,0.5,0.4,1.2,0.7,1.7c0.4,0.6,0.7,1,1.1,1c0.4,0,0.7-0.3,0.8-0.4
		c0.1-0.1,0.1-0.2,0.2-0.3c0.2,0.4,0.4,0.8,0.8,1.1c0.7,0.6,1,0.9,1.4,0.6c0.1-0.1,0.2-0.1,0.2-0.2c0.4,0.4,0.4,0.6,0.4,0.7
		c-0.2,0.4-0.4,1.1-0.5,1.7c0,0.2-0.1,0.3-0.1,0.4c-0.3,0.1-0.6,0.3-0.7,0.8c-0.2,0.6-0.2,1.5,0.4,1.9c0.1,0.2,0.1,0.6,0.1,1.2
		c0,0.8,0.1,2,0.4,2.5c0,0,0,0,0,0.1l0,0.1c-0.1,0.4-0.2,0.5,2.1,2.1c2.1,1.4,2.8,1.4,3,1.3c0.4,0.1,1.2,0.6,1.6,0.9
		c-0.1,0.1-0.2,0.2-0.3,0.3c-0.3,0.7,0.9,5.1,1.6,5.7c0.4,0.3,0.9,0.4,1.4,0.3c0,0,0.1,0,0.1,0c0.2,0.4,0.6,0.8,1.1,0.8
		c0.2,0,0.3,0,0.4-0.1c-0.1,0.8,0.6,1.7,1.5,2.2c0.2,0.1,0.3,0.2,0.3,0.2c0.1,0.2-0.2,1.1-0.3,1.5c-0.4,1.3-0.5,1.9-0.1,2.3
		c0.1,0.1,0.2,0.2,0.3,0.2c-0.1,0.1-0.2,0.1-0.4,0.2c-0.5,0.3-1.4,1.4-2,2.2c-0.8,1.2-1.3,2-0.7,2.9c0.1,0.2,0.1,0.3,0.1,0.3
		c0,0,0,0.1-0.2,0.2c-0.7,0.6-0.6,1.2-0.2,1.7c-0.2,0-0.3,0.1-0.4,0.2c-0.3,0.4-0.1,0.7,0.8,1.9c0.7,0.8,1.8,2.1,2.5,1.6
		c0.2-0.1,0.2-0.2,0.3-0.4c0.1,0.1,0.2,0.1,0.3,0.1c-0.3,0.2-0.3,0.5-0.4,0.6c-0.1,0.6,0.3,1.3,1.3,1.9c0.5,0.3,0.9,0.6,1.3,0.4
		c0.1-0.1,0.2-0.1,0.3-0.2c0.1,0,0.2,0.1,0.3,0.1c0,0,0,0,0,0c0.4,0,0.7-0.4,0.8-0.6c0,0,0,0,0-0.1c0,0.5,0.3,1.3,0.7,1.8
		c0.2,0.3,0.3,0.6,0.4,0.7c-0.1,0.1-0.1,0.3,0,0.4c0.1,0.5,0.6,0.8,0.9,0.9c0.3,0.2,0.9,0.7,1.2,1.2c0.2,0.4,0.8,1.2,1.4,1.2
		c0.2,0.1,0.6,0.5,1.1,1c0.8,0.9,1.3,1.4,1.7,1.6c0,0,0,0,0,0c-0.8-0.3-1.2,0-1.4,0.1c-0.4-0.9-0.9-1.8-1.2-1.9l-0.3-0.1l-0.3,0.2
		c-0.3,0.3-0.4,0.5,0.2,2.4c0.3,0.8,0.7,2,1,2.7c0.1,0.3,0.4,0.9,0.8,0.9c0.1,0,0.1,0,0.2,0c0.2-0.1,0.4-0.2,0.4-0.4
		c0.1,0.1,0.3,0.2,0.4,0.2c0,0,0,0,0.1,0c-0.4,0.9-0.4,1.4,0.2,2.3c0.4,0.6,1.2,1.2,1.8,1c0.1,0,0.4,0.1,0.5,0.2
		c0.1,0.1,0.2,0.1,0.2,0.2c0,0,0,0,0,0c-0.4,0.4-0.3,1,0.4,1.9c0.4,0.5,1,1.5,1.4,2.2c0.4,0.7,1.1,1.5,1.8,1.6
		c0.2,0,0.6,0.3,0.8,0.5c0.3,0.5,0.9,0.9,1.4,0.8c0.1,0.1,0.5,0.4,0.8,0.9c0,0,0,0,0,0c-0.1,0-0.2,0.1-0.3,0.2
		c-0.4,0.4,0,0.9,0.5,1.6c0.1,0.2,0.9,1.2,1.5,1.4c0.6,0.6,2.3,4.8,2.3,5.5c-0.1,0.7,1.4,3,1.8,3.6c1,1.5,1.9,3.2,2.2,3.9
		c0.3,0.8,0.9,1.8,1.3,2.4l2.7,3.1c0.6,1,1.3,2,1.8,2.2c0.1,0.1,0.3,0.1,0.4,0.1c-0.1,0.3-0.2,0.6-0.1,1.1c0.1,0.5,0.2,2.4,0.3,4.2
		c0.4,6.4,0.8,6.8,1.2,6.9c0,0-0.1,0.1-0.1,0.1c-0.3,0.4-0.1,1,0.3,2c0.2,0.4,0.8,1.8,1.3,2.1c0.1,0.1,0.4,0.4,0.8,0.9
		c0.3,0.4,0.4,0.6-0.1,2.1c-0.3,0.9-0.6,2.3-0.6,2.9c0,0.4-0.5,1-2,2.1c-2.4,1.8-2.5,2.2-2.5,2.3c0,0.2-0.1,0.7,1.7,1.4
		c0.5,0.2,0.8,0.4,0.9,0.5c0,0.2,0.1,0.4,0.3,0.4c0,0,0,0,0,0c-0.3,0.3-0.5,0.5-0.7,0.8c-0.1,0.2-1,0.5-2.1,0.6
		c-1,0.1-2.4,0.4-2.9,0.8c-1.1,0.8-0.9,1.3-0.3,2.8c0.3,0.8,0.5,1.8,0.5,2.2c0,0.3-0.1,1.3,0.4,1.6c0.4,0.3,1.4,2.5,1.4,3
		c-0.1,1.1,0.8,2.9,1.8,3.6c0.4,0.3,0.9,1,1.1,1.6c0.5,1.6,2.1,4,3.3,4.2c0.1,0,0.6,0.3,0.8,0.6c0.4,0.6,0.8,0.8,1.9,0.9
		c-0.4,0.2-0.7,0.4-0.7,0.6c0,0.1,0,0.5,0.6,0.7c0.2,0,0.8,0.3,1.4,0.7c1,0.6,1.4,0.8,2.2,1c-0.5,1,0.9,1.8,1.3,2l0.1,0.1
		c1.2,0.7,1.5,0.9,2,0.7c0.1-0.1,0.2-0.1,0.3-0.2c0.2,0.3,0.6,0.5,0.9,0.5c0.1,0,0.2,0.2,0.3,0.5c0.1,0.7,0.8,1.5,1.4,1.9
		c0.5,0.4,0.9,0.6,1.3,0.6c-0.6,1-0.2,2.1,0.9,3.8c0.5,0.8,0.8,1.4,0.8,1.5c0,1.3,3.9,3.5,5.6,4.1c1.1,0.4,2.8,1.3,3.6,2.1
		c0.9,0.7,2.3,1.6,3.1,1.7c0.6,0.1,1.6,0.5,2.3,0.9c0.8,0.4,1.9,0.9,2.6,1c0.2,0,0.4,0.1,0.6,0.1c0.2,0,0.5,0,0.7-0.2
		c0.1-0.1,0.2-0.2,0.3-0.3c0.2,0.1,0.4,0.2,0.7,0.1c0.7-0.2,2.6,1.2,3.7,3.1c0.8,1.4,1.6,2.3,2.4,2.6c1.2,0.4,2.4,1.6,2.4,1.9
		c-0.1,0.7,1.2,1.9,1.8,2.3c0.8,0.6,1.3,1.2,1.4,1.4c-0.1,0.6,0.2,1.1,0.7,1.2c0.2,0.1,1.4,0.8,3,1.8c1.5,0.9,3.5,2,4.4,2.2
		c0.4,0.1,0.7,0.2,0.9,0.2c0.1,0.3,0.4,0.6,0.8,0.8c0.5,0.2,1.3,0.3,1.7-0.1c0.1,0,0.1,0.1,0.2,0.2c0.4,0.5,1.7,1.5,2.6,2.1
		c1.1,0.8,2,1.6,2.2,1.8c0.3,0.5,1.1,1,1.7,1.1c0.6,0.1,1,0.1,1.2-0.3c0,0,0-0.1,0-0.1c0.5,0.1,1,0.1,1.2,0.1c0.8,0,1,0.1,1.4,0.7
		c0.6,0.9,1.3,1.3,2,1.3c0.3,0,0.5-0.1,0.7-0.3c0.1,0.1,0.2,0.2,0.3,0.3c0.6,0.8,1.5,1.2,2.9,1.5c1.3,0.2,1.6,0.4,2.2,1.3
		c0.3,0.4,0.9,1.4,1.5,1.6c0,0,0.1,0.2,0.1,0.3c0,0.2,0.1,0.6,0.5,0.8c0.1,0,0.2,0.1,0.3,0.1c0.1,0,0.3,0,0.5-0.1
		c-0.1,0.4,0.1,0.8,2.3,1.1c1.9,0.3,3.4,1.3,5,3.3c0.6,0.8,1.7,1.5,2.7,1.7c0.8,0.2,2.9,0.7,4.7,1.2c2.4,0.6,3.4,1,4.5,2
		c0.9,0.8,2.5,1.7,3.6,2.1c1.2,0.4,2.2,0.9,2.4,1c0.6,0.5,1.3,0.6,3.3,0.6c0.5,0,1,0,1.6,0c0.9,0,2.5-0.4,3.7-1
		c1.1-0.5,2.7-0.9,3.5-1c1-0.1,2.3-0.4,2.9-0.7c0.6-0.3,1.2-0.4,1.5-0.4c0.7,0.1,2.2-0.8,2.9-1.4c1.6-1.2,1.6-1.2,3.8-0.9
		c0.9,0.1,2.8,0.3,3.4,0c0.5-0.2,0.5-0.6,0.5-0.8c0-0.2-0.1-0.3-0.2-0.4c0.4,0,0.9-0.3,1.3-0.6c0.4-0.3,0.5-0.3,0.9,0
		c-0.2,0-0.3,0-0.4,0.1c-0.8,0.2-0.9,0.7-0.9,0.9c0,0.9,1.8,1.3,2.6,1.4c0.6,0.1,2.3,0.8,3.7,1.7c2.5,1.5,2.8,1.4,3.1,1.3l0.3-0.1
		l0-0.3c0,0,0,0,0,0c0.2,0.1,0.4,0.2,0.6,0.2c-0.3,0.1-0.5,0.3-0.5,0.6c0,0.2,0,0.5,0.4,0.8c0.2,0.1,1.2,1.1,2.5,2.3
		c2,2,2.9,2.4,3.3,2.4c0,0,0,0,0,0c0,0.1,0,0.2,0,0.4c0.1,0.2,0.2,0.4,0.6,0.5c0.3,0.2,1.1,1.2,2.1,2.6c2,2.8,2.8,3.7,4.2,4.2
		c0.5,0.2,1,0.4,1.4,0.7c-0.1,0-0.1,0.1-0.2,0.2c-0.3,0.4-0.1,0.7,0.6,1.6c0.5,0.6,2.1,2.7,3.7,4.6c3,3.7,3.4,3.7,3.6,3.8
		c0.1,0,0.1,0,0.2,0c0.3,0,0.6-0.1,0.9-0.3c0.6-0.4,1-1.2,1.1-2c0.2-1.1,0.5-3.8,0.8-4.1c0.4-0.3,0.7-0.8,0.7-1.3
		c0.1-0.8-0.2-1.8-0.8-2.5c-0.7-0.8-0.6-1.9,0.3-2.6c0.3-0.3,2.3-2.9,3.5-4.6l2.8-3.9l2,0.1c1.3,0,5.3,0.4,8.9,0.7l7.2,0.7l0.1-2.4
		c0.1-1.1,0.3-1.7,0.7-2c0.3-0.3,0.7-0.6,0.6-1c-0.1-0.5-0.6-0.8-1.7-1.4c-1.1-0.6-1.5-1.2-1.6-1.4c-0.3-1.8-1.6-3.6-3-4.3
		c-0.5-0.2-0.8-0.5-0.9-0.6c0-0.2-0.1-0.3-0.2-0.4c-0.2-0.2-0.6-0.3-1-0.2c0,0-0.5-0.1-1.6-1.6c-0.7-0.9-1.8-2.2-2.7-3.1
		c0.3,0.1,0.7,0.1,1.1,0.2l3.2,0.4l0.5-5.4c0.1-0.9,0.2-2,0.2-3l2,0.1c1.1,0,5.9,0.4,10.5,0.8c5.4,0.5,7.5,0.6,8.4,0.6
		c0.5,0,0.6,0,0.6-0.1c0.1,0,0.1-0.1,0.2-0.2c0.2,0.5,0.7,0.7,1.6,0.9c0.3,0,0.5,0.1,0.7,0.1c0.9,0,1.2-0.4,1.5-1.6
		c0.1-0.5,0.3-0.8,0.6-0.9c0.2-0.1,0.6,0.1,0.9,0.5c0.6,0.7,1.1,1,1.8,0.9c0.8-0.1,1.5-0.7,2.2-2.1c0.5-0.9,1.3-2.1,1.8-2.7
		c0.6-0.6,1.3-1.6,1.6-2.3c0.3-0.6,0.7-1,0.8-1c0.3-0.1,1.1-0.4,1.7-0.5c1.1-0.3,2.3-1.9,2.8-3.1c0.2-0.6,0.3-1.2,0.1-1.6
		c0,0,0,0,0,0c0.5-0.1,1.1-0.5,1.4-0.9c-0.1,0.5-0.4,1.3-0.9,2.4c-0.5,1.2-0.8,2-0.5,2.7c0.3,0.5,0.9,0.7,1.3,0.8
		c0.3,0.3,0.7,1.6,0.6,2c-0.1,0.2-0.1,0.5,0.1,0.7c0.1,0.2,0.3,0.3,0.5,0.4c0,0,0,0.1,0,0.1c-0.1,0.4-0.2,1.1,0.5,1.3
		c0.3,0.1,1,0.2,2.2-4.1c0.5-1.7,1.2-4,1.5-5c0.4-1.1,0.8-2.8,0.9-3.7c0.2-1,0.5-1.6,1-2c0.8-0.6,1.2-1,1.1-1.5c0,0,0-0.1-0.1-0.1
		c0.1-0.2,0.2-0.4,0.3-0.6c0.1-0.5-0.3-1-0.8-1.1c0,0,0,0,0,0c0.5-0.5,1-1.2,1.2-1.9c0.7-1.6,0-2.2-0.3-2.4c-0.3-0.1-0.6-0.1-0.8,0
		c-0.2,0.1-0.4,0.4-0.5,0.7c-0.3-0.1-0.7-0.1-1.1,0.1c0.1-0.2,0.3-0.5,0.5-1c0.3-0.6,0.5-0.9,0.6-1.2c0,0,0,0,0,0
		c0.1,0.6,0.6,0.6,0.6,0.6c0.6,0,0.6-0.4,0.7-2.4c0.1-2.2,0.9-4.2,1.3-4.6c0.5,0,0.9-0.6,1.2-1.6c0.2-0.5,1-1.6,1.9-2.3
		c3.2-2.6,4.8-4.7,5.3-7.7c0.1,0,0.2,0.1,0.3,0.1c0.1,0,0.2,0,0.3-0.1c0.4-0.2,0.8-0.6,0.8-1c0.1-0.5-0.3-1-0.8-1.1h0
		c-0.1,0-0.3,0-0.4,0c0-0.2,0-0.3,0-0.5v0C1637.9,1203.3,1637.9,1203.1,1637.9,1202.9z M1501.4,1133.4c0.1-0.2,0.2-0.6,0.3-1
		c0.1,0.1,0.1,0.2,0.2,0.2c-0.1,0.2-0.3,0.6-0.6,1.3L1501.4,1133.4z M1498.4,1137c0.2-0.6,0.3-1,0.2-1.3c0.1,0,0.1,0,0.2,0
		c0.2-0.1,0.4-0.3,0.5-0.6c0.1-0.5-0.3-1-0.8-1.2c0,0-0.1-0.2,0-0.4c0.1-0.2,0.1-0.3,0.2-0.3c0.1,0.1,0.3,0.2,0.5,0.7l1,1.7
		c-0.1,0.3-0.3,0.5-0.4,0.8c-0.4,0.8-0.9,1.7-1.3,2.6c-0.1-0.2-0.2-0.4-0.2-0.5C1498.2,1138.1,1498.2,1137.6,1498.4,1137z
		 M1497.8,1139.9c0.1,0,0.3-0.1,0.4-0.1c-0.3,0.6-0.5,1.2-0.7,1.9C1497.6,1140.2,1497.7,1140,1497.8,1139.9z M1496.1,1144.5
		c0-0.3,0-0.6,0.1-0.9c0.2,0.2,0.3,0.3,0.6,0.2c-0.2,0.7-0.4,1.4-0.4,2c0,0,0,0,0,0c-0.1,0-0.2,0-0.2,0c0,0,0,0,0,0
		C1496,1145.5,1496.1,1145,1496.1,1144.5z M1297.5,1057.2c-0.1,0-0.3-0.1-0.5-0.2c-0.3-0.2-0.5-0.5-0.5-0.7c0-0.1,0-0.3,0-0.5
		c0.1,0.1,0.2,0.1,0.3,0.1c-0.1,0.2-0.1,0.5,0,0.7c0.1,0.2,0.3,0.3,0.6,0.3C1297.6,1057,1297.5,1057.1,1297.5,1057.2z M1315,1110.9
		c0,0.1,0,0.2,0,0.3c-0.4-0.3-0.8-0.6-1.2-0.8h0c-0.3-0.1-0.6-0.3-0.8-0.3c0-0.3-0.1-0.6-0.3-0.9c-0.1-0.1-0.2-0.6-0.2-1
		c0.1-0.5,0-1.2-0.1-1.8c0,0,0.1,0,0.1,0c0,0.1,0.1,0.3,0.1,0.6c0.1,0.9,0.1,1.4,0.6,1.5c0.1,0,0.2,0,0.3,0c0,0.3,0.1,0.5,0.4,0.5
		c0.3,0.1,0.5,0,0.6-0.3c0.1,0.2,0.1,0.4,0.2,0.5C1314.9,1109.8,1315,1110.5,1315,1110.9z M1322.9,1081.8c0.3,0.5,0.3,0.7,0.3,0.8
		c-0.2-0.1-0.4-0.6-0.6-1.3C1322.7,1081.4,1322.8,1081.6,1322.9,1081.8z M1316.2,1112c0.2-0.2,0.6-0.2,0.9-0.1
		c0.1,0.1,0.2,0.1,0.2,0.2c-0.1,0.5,0.2,1.2,0.6,1.7c-0.4-0.1-0.8-0.1-1,0c0,0-0.1,0.1-0.1,0.1c-0.3-0.5-0.7-1-1.1-1.1c0,0,0,0,0,0
		c0.1-0.1,0.1-0.3,0.1-0.4c0-0.1,0-0.1,0-0.2C1315.9,1112.2,1316,1112.2,1316.2,1112z M1305.7,1001.1c-0.1,0-0.2,0.1-0.2,0.2
		c0.3-0.8,0.2-1.8-0.4-2.6c-0.2-0.3-0.6-0.8-0.8-1.2c0.1,0,0.1,0,0.2-0.1c0,0.4,0.3,0.8,0.8,1.3c0.4,0.4,0.6,0.9,0.7,1
		c-0.1,0.4,0.2,1,0.7,1.5C1306.3,1001,1306,1000.9,1305.7,1001.1z M1307.8,1002.3C1307.8,1002.3,1307.7,1002.2,1307.8,1002.3
		C1307.8,1002.2,1307.8,1002.2,1307.8,1002.3C1307.8,1002.3,1307.8,1002.3,1307.8,1002.3z M1351.8,1087c0-0.1,0-0.1,0-0.2
		c0.1,0,0.2,0,0.3-0.1c0,0,0,0,0,0c0,0,0,0.1,0.1,0.1C1352,1086.8,1351.9,1086.9,1351.8,1087z M1354.1,1094.3c0-0.1-0.1-0.2-0.2-0.2
		c-0.1,0-0.1-0.1-0.2-0.1c0.5-0.2,0.9-0.8,1.1-1.3c0.1-0.1,0.1-0.3,0.2-0.4c0,0,0,0,0,0c-0.1,0.5-0.1,0.8,0,1.1L1354.1,1094.3z
		 M1355.3,1094.1l0-0.2c0,0,0.1,0.1,0.1,0.1C1355.4,1094,1355.3,1094,1355.3,1094.1z M1366.3,1086.3c0,0,0-0.1,0-0.1
		C1366.4,1086.2,1366.4,1086.2,1366.3,1086.3C1366.4,1086.2,1366.4,1086.3,1366.3,1086.3z M1369.9,1125.2c0,0-0.2,0-0.7-0.6
		c-0.1-0.1-0.2-0.2-0.3-0.3c0,0,0,0,0.1,0c0.5,0,1,0.4,1.1,0.7C1369.9,1125,1369.9,1125.1,1369.9,1125.2z M1389.9,1167.7
		C1389.9,1167.7,1389.9,1167.7,1389.9,1167.7c-0.1,0-0.2,0-0.3,0c0.1-0.1,0.1-0.2,0.2-0.4
		C1389.9,1167.5,1389.9,1167.7,1389.9,1167.7z M1404.3,1177.5C1404.3,1177.5,1404.3,1177.5,1404.3,1177.5
		C1404.3,1177.5,1404.3,1177.5,1404.3,1177.5C1404.3,1177.5,1404.3,1177.5,1404.3,1177.5z M1408.3,1160.8c0.1-0.2,0.1-0.4,0.2-0.6
		c0.1,0.2,0.3,0.3,0.4,0.4C1408.7,1160.6,1408.5,1160.7,1408.3,1160.8z M1415,1145.2c-0.1,0-0.2,0-0.3,0c0.1-0.1,0.2-0.2,0.3-0.4
		C1415,1144.9,1415,1145.1,1415,1145.2z M1417.8,1170.6c0-0.2-0.1-0.3-0.3-0.5c0,0,0,0,0,0c0.1,0,0.1,0,0.2,0
		c0.2,0.1,0.4,0.1,0.6,0.1C1418.1,1170.4,1417.9,1170.5,1417.8,1170.6z M1424.7,1100.7c0,0.2,0.1,0.4,0.1,0.6
		c-0.1-0.1-0.2-0.2-0.4-0.3C1424.5,1100.9,1424.6,1100.8,1424.7,1100.7z M1424.9,1121.4c0,0-0.1,0-0.1,0c0.1-0.1,0.1-0.1,0.2-0.2
		c0.1,0.1,0.1,0.2,0.2,0.3C1425,1121.4,1425,1121.4,1424.9,1121.4z M1430.7,1195.8c0.2-0.1,0.4-0.2,0.6-0.3c0,0.1,0.1,0.2,0.1,0.3
		L1430.7,1195.8z M1434.5,1127.4C1434.5,1127.3,1434.6,1127.3,1434.5,1127.4C1434.6,1127.3,1434.6,1127.4,1434.5,1127.4
		C1434.6,1127.4,1434.5,1127.4,1434.5,1127.4z M1437.7,1173.7c0-0.1,0-0.1,0-0.2c0.1,0,0.1,0.1,0.2,0.1L1437.7,1173.7z
		 M1462.7,1159.1C1462.8,1159.1,1462.8,1159.1,1462.7,1159.1C1462.8,1159.1,1462.8,1159.1,1462.7,1159.1
		C1462.8,1159.1,1462.8,1159.1,1462.7,1159.1z M1469.7,1214.6C1469.7,1214.6,1469.7,1214.6,1469.7,1214.6
		C1469.7,1214.6,1469.7,1214.6,1469.7,1214.6C1469.7,1214.6,1469.7,1214.6,1469.7,1214.6z M1470.9,1221.2c0.1,0,0.1-0.1,0.2-0.1
		c0,0.1,0,0.1,0,0.2C1471,1221.2,1471,1221.2,1470.9,1221.2z M1476.3,1216C1476.2,1216,1476.2,1216,1476.3,1216
		C1476.2,1216,1476.2,1216,1476.3,1216C1476.2,1216,1476.2,1216,1476.3,1216z M1476.4,1238.7c-0.1-0.2-0.2-0.3-0.3-0.5
		c0.2,0,0.4,0,0.6,0C1476.6,1238.3,1476.5,1238.5,1476.4,1238.7z M1482.7,1213.4c-0.2-0.1-0.3-0.2-0.5-0.2c0.1-0.1,0.2-0.2,0.3-0.3
		C1482.5,1213.1,1482.5,1213.2,1482.7,1213.4C1482.7,1213.4,1482.7,1213.4,1482.7,1213.4z M1488,1237.6c0-0.1-0.1-0.2-0.2-0.4
		c0.2,0.1,0.3,0.1,0.5,0C1488.1,1237.4,1488,1237.5,1488,1237.6z M1495.8,1187.6c-0.2,0.1-0.3,0.3-0.4,0.5c-0.1-0.3-0.3-0.5-0.4-0.7
		c-0.1-0.1-0.2-0.3-0.3-0.5c0.1,0,0.2,0,0.2-0.1c0.3-0.1,0.3-0.4,0.3-0.6c0.3,0.5,0.6,0.9,0.7,1.2
		C1495.9,1187.5,1495.8,1187.5,1495.8,1187.6z M1496.1,1189.9C1496.1,1189.9,1496.1,1189.9,1496.1,1189.9
		C1496.1,1189.9,1496.1,1189.9,1496.1,1189.9C1496.1,1189.9,1496.1,1189.9,1496.1,1189.9z M1513.5,1229.6c0-0.1,0-0.2,0-0.3
		c0.1,0,0.2,0,0.2,0c0,0.1,0,0.2,0,0.3C1513.7,1229.6,1513.6,1229.6,1513.5,1229.6z M1522.7,1266.8c-0.1-0.2-0.4-0.2-0.6-0.2
		c-0.2,0-0.3,0-0.5,0c-0.1,0-0.2,0-0.3,0c0.1-0.1,0.2-0.3,0.4-0.5c0.4-0.4,0.8-0.4,0.9-0.4c0.1,0.1,0.1,0.3,0.1,0.5
		C1522.7,1266.4,1522.7,1266.6,1522.7,1266.8z M1522.8,1267.5c0-0.1,0.1-0.1,0.1-0.2c0,0.1,0.1,0.2,0.2,0.2
		C1522.9,1267.5,1522.9,1267.5,1522.8,1267.5z M1570.7,1234.7L1570.7,1234.7C1570.7,1234.7,1570.7,1234.7,1570.7,1234.7
		C1570.7,1234.7,1570.7,1234.7,1570.7,1234.7l0.3,0c0,0,0,0,0,0L1570.7,1234.7C1570.7,1234.7,1570.7,1234.7,1570.7,1234.7z
		 M1537.7,1256c-0.1,0.1-0.1,0.2-0.2,0.3c-0.1-0.1-0.1-0.1-0.5-0.2C1537.3,1256.1,1537.5,1256.1,1537.7,1256z M1533.4,1271
		C1533.4,1271,1533.4,1271,1533.4,1271C1533.4,1271,1533.5,1271.1,1533.4,1271C1533.4,1271.1,1533.4,1271.1,1533.4,1271z
		 M1575.1,1261.8c0.9,1.3,1.7,1.9,2.1,1.8c0.4-0.1,0.6,0,0.6,0.2c0,0.2,0.5,0.6,1.2,1c1.3,0.6,2.5,2.3,2.7,3.9
		c0.1,0.5,0.8,1.2,1.9,1.8c1.6,0.9,1.7,1,0.9,1.6c-0.5,0.4-0.8,1.2-0.9,2.4l-0.1,1.8l-6.6-0.7c-3.6-0.4-7.7-0.7-9-0.7l-2.3-0.1
		l-3,4.1c-1.6,2.3-3.2,4.3-3.4,4.5c-1.1,0.9-1.2,2.3-0.4,3.4c0.9,1.1,1,2.5,0.2,3.1c-0.4,0.3-0.6,1.3-1.1,4.5
		c-0.1,1-0.9,1.9-1.6,1.9c-0.2,0-1.6-1.6-3.2-3.6c-1.6-1.9-3.2-4-3.7-4.6c-0.8-1.1-0.8-1.1,0-0.8c0.5,0.2,0.8,0.2,0.7-0.1
		c-0.2-0.4-1.7-1.4-2.8-1.8c-1.2-0.4-2-1.2-3.9-4c-1-1.5-2.1-2.8-2.4-2.8c-0.3,0-0.3-0.2,0-0.5c0.4-0.3,0.2-0.6-0.4-1.1
		c-0.8-0.5-0.9-0.5-0.5,0c0.8,1.3-0.5,0.5-2.7-1.6c-1.2-1.2-2.4-2.3-2.6-2.4c-0.3-0.2-0.2-0.3,0.1-0.4c0.8-0.3,0.7-0.9-0.2-1
		c-0.5-0.1-0.8-0.5-0.9-1.2c0-0.1,0-0.2,0-0.2c0.1-0.6-0.1-1.5-0.5-2.6l-0.1-0.3c-0.2-1.1,0-1.6,1.6-4.8c0.2-0.4,0.4-0.7,0.6-1.1
		c0.5-0.9,0.8-1.6,1.1-2.1c0.3-0.5,0.5-0.8,0.5-0.9c0.2-0.2,0.5-0.8,0.8-1.4c0.2-0.5,0.6-1,1.2-1.3c0,0,0.1,0,0.1-0.1l0.2-0.1
		c0.8-0.3,1.2-0.6,1.5-0.9l0.1,0.4l0.4-1.1c0.4-0.5,0.6-1.2,0.7-1.8c0-0.1,0.1-0.3,0.2-0.5c0.1-0.2,0.3-0.5,0.5-0.7
		c0.2-0.2,0.4-0.4,0.6-0.5c0.6-0.4,0.9-0.8,1-1.2c0.1-0.3,0.2-0.7,0.2-1.1c0-0.1,0-0.2,0-0.4c0.3-1,1-2,1.7-2.3c0.1,0,0.3,0,0.5,0
		c0.5,0.1,0.9,0.3,1.2,0.5c0.5,0.6,0.9,1.6,0.9,2.7c0,1.1,0.1,1.9,0.2,2.5c0.1,1.1,0.5,1.6,1.7,1.7c0.1,0,0.2,0.1,0.4,0.1
		c0.3,0.2,0.6,0.4,0.8,0.7c0.3,0.5,0.8,0.9,1,1c0.6,0.1,2.1-1.2,3.3-2.6c0.1-0.1,0.1-0.2,0.2-0.3c0.1-0.1,0.2-0.2,0.3-0.3
		c0.2-0.3,0.5-0.5,0.7-0.7c1.3-1.2,2.4-2,3-1.9c0.5,0.1,1.3-0.1,1.9-0.4c0.3-0.1,0.5-0.2,0.6-0.3c0.3,0,0.6,0.1,0.9,0.2
		c0.3,0.2,0.6,0.5,1.1,1c0.3,0.3,0.6,0.6,0.9,0.8c0.4,0.4,1,0.9,1.3,0.9c0.2,0.1,0.4,0.6,0.5,1.2c0,0.3-0.1,0.5-0.3,0.7
		c-0.7,0.5-0.1,1.4,1.7,2.3c0.1,0,0.1,0.1,0.2,0.1c0.3,0.2,0.5,0.3,0.7,0.4c0.3,0.3,0.5,0.5,0.4,0.6c0,0.1,0,0.2,0.1,0.4
		c0,0.3,0.1,0.7,0.3,0.9c0.1,0.2,0.4,0.3,0.9,0.4c0.1,0.1,0.1,0.1,0.2,0.2C1572.9,1259.2,1574.3,1260.7,1575.1,1261.8z M1574,1236.3
		c-0.2,0.6-0.8,1.3-1.9,1.5c-0.7,0.1-1.7,0.3-1.7,1.4c0,0-0.1,0-0.1-0.1c-0.6-0.3-2.4-1.1-3.1-0.6c-0.2,0.2-0.3,0.4-0.2,0.6
		c0,0-0.1,0.1-0.1,0.2c0.1-0.8-0.4-1.2-1.4-1.7c0.5,0,0.8-0.2,1-0.4l1.2,0c0,0,0.1,0,0.1,0c1.4,0,4-1.2,4.1-2.5c0,0,0-0.1,0-0.1
		c0.1,0,0.2,0.1,0.3,0.1c0.4,0.1,0.8-0.2,1-0.5c0.1,0.3,0.3,0.6,0.6,0.9C1574.1,1235.6,1574.1,1236,1574,1236.3z M1626,1230.3
		c0,0.2,0,0.3,0.1,0.5c-0.6,0-1.2,0.2-1.6,0.6c0-0.2,0.1-0.5,0.2-0.7c0.1-0.2,0.3-0.3,0.3-0.3
		C1625.3,1230.5,1625.6,1230.4,1626,1230.3z M1629.4,1200.2l-2.1,0l0,0c-0.1-0.1-0.2-0.3-0.3-0.4c-0.1-0.1-0.2-0.2-0.4-0.3
		c0.9,0.2,1.7,0.3,2.6,0.3c0.9,0,1.4,0.1,1.6,0.1C1630.7,1200,1630.1,1200.1,1629.4,1200.2z"/>
</g>
<g>
	<g>
		<path class="st4" d="M1444.9,1137.8c0.7-2.4,1.3-4.8,2-7.2"/>
		<path class="st5" d="M1449.8,1121.3c36.3-110.6,128.2-173.5,262.6-152.5"/>
		<path class="st4" d="M1717.2,969.6c2.4,0.4,4.9,0.9,7.4,1.3"/>
		<g>
			<circle class="st6" cx="1445.1" cy="1137.2" r="11.3"/>
		</g>
		<g>
			<circle class="st6" cx="1724" cy="970.9" r="11.3"/>
		</g>
	</g>
</g>
</svg>
