<?xml version="1.0" encoding="utf-8"?>
<!-- Generator: Adobe Illustrator 19.0.0, SVG Export Plug-In . SVG Version: 6.00 Build 0)  -->
<svg version="1.1" baseProfile="tiny" id="Layer_1" xmlns="http://www.w3.org/2000/svg" xmlns:xlink="http://www.w3.org/1999/xlink"
	 x="0px" y="0px" viewBox="0 0 280 175.4" xml:space="preserve">
<g id="XMLID_707_">
	<polygon id="XMLID_599_" fill="#899B92" stroke="#BCBC29" stroke-width="4" stroke-miterlimit="10" points="252.9,147 278,170.8 
		278,150.7 278,62.7 278,2 2,2 2,147 	"/>
</g>
<g id="XMLID_600_">
	<g id="XMLID_1890_">
		<g id="XMLID_1907_">
			<path id="XMLID_1919_" fill="#0F6C91" d="M36.3,91.9h-6.8l-9.9-34.2v34.2h-4.7V54.3h7.9l8.8,32.5V54.3h4.8V91.9z"/>
			<path id="XMLID_1917_" fill="#0F6C91" d="M42.1,54.3h4.7v29.2c0,1.7,0.4,3,1.3,3.9c0.8,0.9,2,1.3,3.5,1.3c1.5,0,2.7-0.4,3.5-1.3
				c0.9-0.9,1.3-2.2,1.3-3.9V54.3h4.7v28.3c0,6.4-3.2,9.7-9.5,9.7c-6.4,0-9.5-3.2-9.5-9.7V54.3z"/>
			<path id="XMLID_1915_" fill="#0F6C91" d="M67.4,91.9V54.3h16.4V58H72.1v12h9.5v3.7h-9.5v14.6h12.2v3.7H67.4z"/>
			<path id="XMLID_1913_" fill="#0F6C91" d="M98.9,87.6l7.4-33.3h4.7l-8.9,37.6h-6.3l-9-37.6h4.7L98.9,87.6z"/>
			<path id="XMLID_1910_" fill="#0F6C91" d="M118.8,54.3h7.1l8.2,37.6h-4.4l-2.6-11.1h-9.8l-2.4,11.1h-4.6L118.8,54.3z M126.2,77.2
				l-3.9-19.3H122l-3.9,19.3H126.2z"/>
			<path id="XMLID_1908_" fill="#0F6C91" d="M147.7,86.5c0.9-1.2,1.4-2.6,1.4-4.2c0-1.6-0.3-3-0.9-4.1s-1.3-2-2.2-2.7
				c-0.9-0.7-1.9-1.4-2.9-2.2c-1-0.8-2-1.5-2.9-2.3c-0.9-0.7-1.6-1.7-2.2-3c-0.6-1.3-0.9-2.7-0.9-4.3c0-2.9,0.9-5.2,2.6-6.9
				c1.7-1.7,4.1-2.6,7.1-2.6h4.4v3.5h-4.1c-1.7,0-3,0.6-3.9,1.7c-0.9,1.1-1.3,2.3-1.3,3.6s0.3,2.4,0.9,3.3c0.6,0.9,1.3,1.7,2.2,2.3
				c0.9,0.6,1.9,1.3,2.9,2.1c1.1,0.8,2,1.7,2.9,2.5c0.9,0.8,1.6,2,2.2,3.4c0.6,1.4,0.9,3.1,0.9,4.9c0,3.4-1,5.9-2.9,7.6
				c-1.9,1.7-4.5,2.6-7.9,2.6h-5.6v-3.5h5.9C145.3,88.4,146.7,87.8,147.7,86.5z"/>
		</g>
		<g id="XMLID_1891_">
			<path id="XMLID_1904_" fill="#CCC82E" d="M37.9,116.8v16.5h-4.6V95.7h9.9c6.4,0,9.7,3.3,9.7,10c0,2.5-0.5,4.7-1.5,6.6
				c-1,1.9-2.3,3.2-4.1,3.9l7.5,17.2h-4.6l-7.3-16.5H37.9z M38,99.3v14h3.8c2,0,3.6-0.7,4.8-2.1c1.1-1.4,1.7-3.2,1.7-5.5
				c0-4.3-2.1-6.4-6.4-6.4H38z"/>
			<path id="XMLID_1901_" fill="#CCC82E" d="M64.7,95.7h7.1l8.2,37.6h-4.4L73,122.3h-9.8l-2.4,11.1h-4.6L64.7,95.7z M72.2,118.6
				l-3.9-19.3h-0.4L64,118.6H72.2z"/>
			<path id="XMLID_1898_" fill="#CCC82E" d="M84.2,133.3v-32.5h4.7v32.5H84.2z M84.1,99.2l-1.8-1.6l6.2-5.3l2.7,2.5L84.1,99.2z"/>
			<path id="XMLID_1896_" fill="#CCC82E" d="M111.5,129.8v3.5h-7.2c-3.3,0-5.8-0.8-7.6-2.5c-1.8-1.6-2.7-4.1-2.7-7.3v-18.2
				c0-3.2,0.9-5.6,2.7-7.3c1.8-1.6,4.3-2.5,7.6-2.5h7.2v3.5h-7.2c-1.6,0-3,0.5-4,1.4c-1,0.9-1.5,2.2-1.5,3.8v20.1
				c0,1.6,0.5,2.8,1.5,3.8c1,0.9,2.4,1.4,4,1.4H111.5z"/>
			<path id="XMLID_1894_" fill="#CCC82E" d="M115.4,133.3V95.7h16.4v3.7h-11.7v12h9.5v3.7h-9.5v14.6h12.2v3.7H115.4z"/>
			<path id="XMLID_1892_" fill="#CCC82E" d="M146.8,128c0.9-1.2,1.4-2.6,1.4-4.2c0-1.6-0.3-3-0.9-4.1s-1.3-2-2.2-2.7
				c-0.9-0.7-1.9-1.4-2.9-2.2c-1-0.8-2-1.5-2.9-2.3c-0.9-0.7-1.6-1.7-2.2-3c-0.6-1.3-0.9-2.7-0.9-4.3c0-2.9,0.9-5.2,2.6-6.9
				c1.7-1.7,4.1-2.6,7.1-2.6h4.4v3.5H146c-1.7,0-3,0.6-3.9,1.7c-0.9,1.1-1.3,2.3-1.3,3.6c0,1.3,0.3,2.4,0.9,3.3
				c0.6,0.9,1.3,1.7,2.2,2.3c0.9,0.6,1.9,1.3,2.9,2.1c1.1,0.8,2,1.7,2.9,2.5c0.9,0.8,1.6,2,2.2,3.4c0.6,1.4,0.9,3.1,0.9,4.9
				c0,3.4-1,5.9-2.9,7.6c-1.9,1.7-4.5,2.6-7.9,2.6h-5.6v-3.5h5.9C144.4,129.8,145.9,129.2,146.8,128z"/>
		</g>
	</g>
	<g id="XMLID_702_">
		<path id="XMLID_718_" fill="#FFFFEA" d="M162.5,75.4v16.5h-4.6V54.3h9.9c6.4,0,9.7,3.3,9.7,10c0,2.5-0.5,4.7-1.5,6.6
			c-1,1.9-2.3,3.2-4.1,3.9l7.5,17.2h-4.6l-7.3-16.5H162.5z M162.6,57.9v14h3.8c2,0,3.6-0.7,4.8-2.1c1.1-1.4,1.7-3.2,1.7-5.5
			c0-4.3-2.1-6.4-6.4-6.4H162.6z"/>
		<path id="XMLID_715_" fill="#FFFFEA" d="M202.2,82.6c0,3-0.9,5.4-2.6,7.1c-1.8,1.7-4.3,2.6-7.7,2.6s-5.9-0.9-7.7-2.6
			c-1.8-1.7-2.6-4.1-2.6-7.1v-19c0-3,0.9-5.4,2.6-7.1c1.8-1.7,4.3-2.6,7.7-2.6s5.9,0.9,7.7,2.6c1.8,1.7,2.6,4.1,2.6,7.1V82.6z
			 M186.4,83.5c0,1.6,0.5,2.9,1.6,3.8c1.1,0.9,2.4,1.4,3.9,1.4c1.6,0,2.9-0.5,4-1.4c1.1-0.9,1.6-2.2,1.6-3.8V62.7
			c0-1.6-0.5-2.9-1.6-3.8c-1.1-0.9-2.4-1.4-4-1.4c-1.6,0-2.9,0.5-3.9,1.4c-1.1,0.9-1.6,2.2-1.6,3.8V83.5z"/>
		<path id="XMLID_712_" fill="#FFFFEA" d="M227.4,82.6c0,3-0.9,5.4-2.6,7.1c-1.8,1.7-4.3,2.6-7.7,2.6s-5.9-0.9-7.7-2.6
			c-1.8-1.7-2.6-4.1-2.6-7.1v-19c0-3,0.9-5.4,2.6-7.1c1.8-1.7,4.3-2.6,7.7-2.6s5.9,0.9,7.7,2.6c1.8,1.7,2.6,4.1,2.6,7.1V82.6z
			 M211.6,83.5c0,1.6,0.5,2.9,1.6,3.8c1.1,0.9,2.4,1.4,3.9,1.4c1.6,0,2.9-0.5,4-1.4c1.1-0.9,1.6-2.2,1.6-3.8V62.7
			c0-1.6-0.5-2.9-1.6-3.8c-1.1-0.9-2.4-1.4-4-1.4c-1.6,0-2.9,0.5-3.9,1.4c-1.1,0.9-1.6,2.2-1.6,3.8V83.5z"/>
		<path id="XMLID_706_" fill="#FFFFEA" d="M237.4,91.9V57.9h-7.5v-3.5h19.8v3.5h-7.5v34.1H237.4z"/>
		<path id="XMLID_704_" fill="#FFFFEA" d="M263.3,86.5c0.9-1.2,1.4-2.6,1.4-4.2c0-1.6-0.3-3-0.9-4.1s-1.3-2-2.2-2.7
			c-0.9-0.7-1.9-1.4-2.9-2.2c-1-0.8-2-1.5-2.9-2.3c-0.9-0.7-1.6-1.7-2.2-3c-0.6-1.3-0.9-2.7-0.9-4.3c0-2.9,0.9-5.2,2.6-6.9
			c1.7-1.7,4.1-2.6,7.1-2.6h4.4v3.5h-4.1c-1.7,0-3,0.6-3.9,1.7c-0.9,1.1-1.3,2.3-1.3,3.6s0.3,2.4,0.9,3.3c0.6,0.9,1.3,1.7,2.2,2.3
			c0.9,0.6,1.9,1.3,2.9,2.1c1.1,0.8,2,1.7,2.9,2.5c0.9,0.8,1.6,2,2.2,3.4c0.6,1.4,0.9,3.1,0.9,4.9c0,3.4-1,5.9-2.9,7.6
			c-1.9,1.7-4.5,2.6-7.9,2.6H253v-3.5h5.9C260.9,88.4,262.3,87.8,263.3,86.5z"/>
	</g>
	<g id="XMLID_607_">
		<path id="XMLID_700_" fill="#CCC82E" d="M179.6,50.5h-6.8l-9.9-34.2v34.2h-4.7V12.9h7.9l8.8,32.5V12.9h4.8V50.5z"/>
		<path id="XMLID_613_" fill="#CCC82E" d="M184.4,50.5V12.9h16.4v3.7h-11.7v12h9.5v3.7h-9.5v14.6h12.2v3.7H184.4z"/>
		<path id="XMLID_611_" fill="#CCC82E" d="M220.8,22.7h5l5,23.3l6.3-33h4.7l-7.8,37.6h-6.3L223.4,28L219,50.5h-6.3l-7.9-37.6h4.7
			l6.4,33L220.8,22.7z"/>
	</g>
</g>
</svg>
