<?xml version="1.0" encoding="utf-8"?>
<!-- Generator: Adobe Illustrator 19.1.0, SVG Export Plug-In . SVG Version: 6.00 Build 0)  -->
<svg version="1.1" id="Layer_1" xmlns="http://www.w3.org/2000/svg" xmlns:xlink="http://www.w3.org/1999/xlink" x="0px" y="0px"
	 viewBox="0 0 858 508" enable-background="new 0 0 858 508" xml:space="preserve">
<g id="XMLID_3_">
	<g id="XMLID_12_">
		<g id="XMLID_9_">
			<path id="XMLID_19_" fill="#0F6C91" d="M97.925,276.128H76.447L44.913,167.719v108.408h-15V156.811H54.97l27.784,103.124V156.811
				h15.171V276.128z"/>
			<path id="XMLID_34_" fill="#0F6C91" d="M116.332,156.811h15v92.727c0,5.454,1.334,9.575,4.005,12.357
				c2.669,2.786,6.392,4.176,11.164,4.176c4.773,0,8.523-1.391,11.25-4.176c2.728-2.782,4.091-6.903,4.091-12.357v-92.727h15v89.829
				c0,20.455-10.086,30.682-30.255,30.682c-20.172,0-30.255-10.227-30.255-30.682V156.811z"/>
			<path id="XMLID_36_" fill="#0F6C91" d="M196.614,276.128V156.811h51.988v11.591h-36.988v38.181h30.001v11.591h-30.001v46.363
				h38.693v11.591H196.614z"/>
			<path id="XMLID_38_" fill="#0F6C91" d="M296.669,262.492l23.523-105.681h14.829l-28.125,119.317h-20.114l-28.635-119.317h14.829
				L296.669,262.492z"/>
			<path id="XMLID_40_" fill="#0F6C91" d="M359.734,156.811h22.671l25.909,119.317h-13.977l-8.353-35.113h-31.023l-7.67,35.113
				h-14.489L359.734,156.811z M383.427,229.423l-12.273-61.363h-1.193l-12.444,61.363H383.427z"/>
			<path id="XMLID_43_" fill="#0F6C91" d="M451.351,259.082c2.897-3.861,4.346-8.352,4.346-13.466c0-5.113-0.938-9.459-2.812-13.039
				c-1.875-3.58-4.235-6.419-7.074-8.523c-2.841-2.102-5.909-4.402-9.204-6.903c-3.298-2.498-6.366-4.914-9.205-7.244
				c-2.841-2.327-5.198-5.48-7.073-9.459c-1.875-3.977-2.812-8.523-2.812-13.637c0-9.089,2.727-16.364,8.182-21.818
				c5.454-5.455,13.01-8.182,22.67-8.182h13.807v11.25h-13.125c-5.455,0-9.604,1.763-12.443,5.284
				c-2.843,3.523-4.262,7.33-4.262,11.421c0,4.091,0.937,7.614,2.812,10.568c1.875,2.956,4.232,5.398,7.074,7.329
				c2.839,1.934,5.936,4.205,9.289,6.819c3.351,2.615,6.448,5.257,9.289,7.925c2.84,2.671,5.199,6.28,7.074,10.824
				c1.875,4.546,2.812,9.716,2.812,15.511c0,10.683-3.041,18.751-9.119,24.205c-6.08,5.455-14.403,8.182-24.971,8.182h-17.898
				v-11.25h18.58C443.765,264.878,448.453,262.947,451.351,259.082z"/>
		</g>
		<g id="XMLID_10_">
			<path id="XMLID_13_" fill="#BCBC29" d="M102.952,355.19v52.329h-14.66V288.202h31.535c20.454,0,30.682,10.568,30.682,31.705
				c0,7.955-1.534,14.888-4.603,20.795c-3.068,5.91-7.443,10.001-13.125,12.273l23.694,54.545h-14.66l-23.182-52.329H102.952z
				 M103.292,299.452v44.488h12.103c6.477,0,11.505-2.243,15.085-6.733c3.579-4.487,5.369-10.253,5.369-17.3
				c0-13.637-6.819-20.455-20.455-20.455H103.292z"/>
			<path id="XMLID_17_" fill="#BCBC29" d="M188.177,288.202h22.671l25.909,119.317H222.78l-8.353-35.113h-31.023l-7.67,35.113
				h-14.489L188.177,288.202z M211.871,360.815l-12.273-61.363h-1.193l-12.444,61.363H211.871z"/>
			<path id="XMLID_22_" fill="#BCBC29" d="M249.878,407.519V304.397h15v103.122H249.878z M249.539,299.196l-5.626-5.114
				l19.773-16.875l8.694,8.012L249.539,299.196z"/>
			<path id="XMLID_26_" fill="#BCBC29" d="M336.639,396.269v11.25h-22.841c-10.342,0-18.353-2.612-24.035-7.84
				c-5.683-5.226-8.522-12.897-8.522-23.013v-57.613c0-10.112,2.839-17.782,8.522-23.011c5.682-5.226,13.692-7.841,24.035-7.841
				h22.841v11.25h-22.841c-5.228,0-9.46,1.507-12.699,4.516c-3.238,3.012-4.857,7.019-4.857,12.017v63.75
				c0,5.002,1.62,9.007,4.857,12.016c3.239,3.012,7.471,4.518,12.699,4.518H336.639z"/>
			<path id="XMLID_29_" fill="#BCBC29" d="M349.079,407.519V288.202h51.988v11.591h-36.988v38.181h30.001v11.591h-30.001v46.363
				h38.694v11.591H349.079z"/>
			<path id="XMLID_31_" fill="#BCBC29" d="M448.538,390.473c2.897-3.861,4.346-8.352,4.346-13.466c0-5.113-0.937-9.459-2.812-13.039
				c-1.875-3.58-4.235-6.419-7.074-8.523c-2.841-2.102-5.909-4.402-9.204-6.903c-3.298-2.498-6.366-4.914-9.205-7.244
				c-2.841-2.327-5.198-5.48-7.073-9.459c-1.875-3.977-2.812-8.523-2.812-13.637c0-9.089,2.727-16.364,8.182-21.818
				c5.454-5.455,13.01-8.182,22.67-8.182h13.807v11.25h-13.125c-5.455,0-9.604,1.763-12.443,5.284
				c-2.842,3.523-4.262,7.33-4.262,11.421s0.938,7.614,2.812,10.568c1.875,2.956,4.232,5.398,7.074,7.329
				c2.839,1.934,5.936,4.205,9.289,6.819c3.351,2.615,6.448,5.257,9.289,7.925c2.84,2.671,5.2,6.28,7.074,10.824
				c1.875,4.546,2.812,9.716,2.812,15.511c0,10.683-3.041,18.751-9.119,24.205c-6.08,5.456-14.403,8.182-24.971,8.182h-17.898
				v-11.25h18.58C440.953,396.269,445.64,394.339,448.538,390.473z"/>
		</g>
	</g>
	<polygon id="XMLID_1378_" fill="#FFFFEA" stroke="#0F6C91" stroke-width="5" stroke-miterlimit="10" points="511.546,314.5 
		487.5,289.009 487.5,310.873 487.5,397.121 487.5,483.5 752.5,483.5 752.5,314.5 	"/>
	<g id="XMLID_6_">
		<path id="XMLID_7_" fill="#0F6C91" d="M523.521,362.956l8.168-36.695h5.149l-9.766,41.43h-6.983l-9.944-41.43h5.149
			L523.521,362.956z"/>
		<path id="XMLID_23_" fill="#0F6C91" d="M554.534,360.175c0,2.485-0.761,4.43-2.278,5.828c-1.52,1.401-3.661,2.102-6.423,2.102
			c-2.762,0-4.902-0.701-6.421-2.102c-1.519-1.399-2.278-3.343-2.278-5.828v-15.744c0-2.485,0.759-4.427,2.278-5.828
			c1.519-1.401,3.66-2.102,6.421-2.102c2.762,0,4.902,0.701,6.423,2.102c1.518,1.401,2.278,3.343,2.278,5.828V360.175z
			 M541.75,360.175c0,1.38,0.364,2.437,1.095,3.165c0.729,0.731,1.726,1.096,2.988,1.096c1.262,0,2.259-0.365,2.989-1.096
			c0.729-0.728,1.095-1.785,1.095-3.165v-15.744c0-1.38-0.365-2.434-1.095-3.165c-0.731-0.731-1.727-1.096-2.989-1.096
			c-1.262,0-2.259,0.365-2.988,1.096c-0.731,0.731-1.095,1.785-1.095,3.165V360.175z"/>
		<path id="XMLID_64_" fill="#0F6C91" d="M560.451,331.884v-4.735h4.735v4.735H560.451z M560.451,367.691v-30.776h4.735v30.776
			H560.451z"/>
		<path id="XMLID_67_" fill="#0F6C91" d="M585.901,336.915v3.551h-6.451c-0.907,0-1.638,0.305-2.189,0.918
			c-0.554,0.613-0.829,1.389-0.829,2.337v17.164c0,0.948,0.286,1.727,0.858,2.337c0.572,0.613,1.312,0.918,2.219,0.918h6.393v3.551
			h-7.102c-2.171,0-3.897-0.652-5.179-1.954c-1.283-1.302-1.924-3.056-1.924-5.267v-15.744c0-2.485,0.651-4.409,1.954-5.771
			c1.302-1.362,3.195-2.041,5.682-2.041H585.901z"/>
		<path id="XMLID_69_" fill="#0F6C91" d="M596.908,364.14h6.392v3.551h-7.102c-2.171,0-3.897-0.652-5.179-1.954
			c-1.283-1.302-1.924-3.056-1.924-5.267v-15.744c0-2.564,0.71-4.575,2.13-6.036c1.421-1.459,3.53-2.189,6.332-2.189
			s4.902,0.731,6.303,2.189c1.4,1.461,2.102,3.473,2.102,6.036v2.723c0,2.841-1.717,4.735-5.15,5.68l-6.983,1.954v5.801
			c0,0.948,0.286,1.727,0.858,2.337C595.261,363.835,596.001,364.14,596.908,364.14z M593.831,343.721v7.634
			c0.907-0.275,1.874-0.541,2.9-0.798c1.025-0.257,1.725-0.444,2.1-0.562c0.375-0.12,0.79-0.257,1.243-0.416
			c0.453-0.157,0.72-0.354,0.8-0.592c0.236-0.629,0.355-1.302,0.355-2.011v-3.255c0-2.446-1.224-3.669-3.67-3.669
			c-1.105,0-2.002,0.317-2.692,0.946C594.175,341.631,593.831,342.538,593.831,343.721z"/>
		<path id="XMLID_72_" fill="#0F6C91" d="M618.807,359.109c0-1.815-1.164-3.611-3.491-5.387c-0.948-0.71-1.914-1.459-2.9-2.247
			c-2.329-1.933-3.492-4.381-3.492-7.34c0-2.09,0.701-3.817,2.102-5.179c1.4-1.362,3.284-2.041,5.651-2.041h5.15v3.551h-4.262
			c-2.802,0-4.202,1.322-4.202,3.965c0,1.618,1.163,3.276,3.492,4.973c0.947,0.71,1.893,1.47,2.84,2.277
			c0.948,0.809,1.756,1.875,2.428,3.197c0.67,1.322,1.006,2.811,1.006,4.467c0,2.802-0.74,4.894-2.219,6.275
			c-1.48,1.383-3.561,2.071-6.245,2.071h-5.74v-3.551h5.031C617.188,364.14,618.807,362.464,618.807,359.109z"/>
		<path id="XMLID_74_" fill="#0F6C91" d="M635.259,340.822v-3.907h3.551v-3.433c0-2.208,0.631-3.965,1.893-5.267
			c1.262-1.302,2.979-1.954,5.15-1.954h2.604v3.551h-1.776c-0.909,0-1.658,0.317-2.249,0.948c-0.592,0.631-0.888,1.401-0.888,2.307
			v3.847h4.794v3.907h-4.794v26.869h-4.735v-26.869H635.259z"/>
		<path id="XMLID_76_" fill="#0F6C91" d="M663.61,336.501v3.491c-1.026,0-3.255,0.83-6.691,2.485v25.214h-4.734v-30.776h3.67
			l0.532,2.189c2.404-1.184,4.064-1.912,4.971-2.189C662.265,336.64,663.019,336.501,663.61,336.501z"/>
		<path id="XMLID_78_" fill="#0F6C91" d="M684.263,360.175c0,2.485-0.758,4.43-2.277,5.828c-1.519,1.401-3.66,2.102-6.423,2.102
			s-4.904-0.701-6.42-2.102c-1.521-1.399-2.28-3.343-2.28-5.828v-15.744c0-2.485,0.758-4.427,2.28-5.828
			c1.517-1.401,3.657-2.102,6.42-2.102s4.904,0.701,6.423,2.102c1.519,1.401,2.277,3.343,2.277,5.828V360.175z M671.48,360.175
			c0,1.38,0.363,2.437,1.094,3.165c0.731,0.731,1.727,1.096,2.989,1.096s2.259-0.365,2.989-1.096
			c0.731-0.728,1.096-1.785,1.096-3.165v-15.744c0-1.38-0.365-2.434-1.096-3.165s-1.727-1.096-2.989-1.096s-2.259,0.365-2.989,1.096
			c-0.731,0.731-1.094,1.785-1.094,3.165V360.175z"/>
		<path id="XMLID_81_" fill="#0F6C91" d="M707.049,338.751c4.104-1.5,7.003-2.25,8.7-2.25c3.077,0,4.617,1.776,4.617,5.327v25.863
			h-4.735v-24.326c0-1.142-0.079-1.942-0.236-2.395c-0.16-0.453-0.474-0.682-0.948-0.682s-2.723,0.631-6.746,1.893v25.51h-4.735
			v-24.326c0-1.142-0.081-1.942-0.238-2.395c-0.157-0.453-0.474-0.682-0.946-0.682c-0.474,0-2.763,0.631-6.866,1.893v25.51h-4.735
			v-30.776h3.669l0.534,1.715c0.55-0.157,1.429-0.414,2.633-0.768c1.202-0.356,2.06-0.592,2.573-0.712
			c1.54-0.432,2.841-0.65,3.907-0.65C705.195,336.501,706.379,337.25,707.049,338.751z"/>
		<path id="XMLID_83_" fill="#0F6C91" d="M530.15,415.867v3.907h-7.931c-3.592,0-6.373-0.906-8.345-2.723
			c-1.974-1.813-2.959-4.476-2.959-7.99v-20.003c0-3.512,0.985-6.175,2.959-7.99c1.972-1.815,4.753-2.723,8.345-2.723h7.931v3.907
			h-7.931c-1.816,0-3.285,0.522-4.41,1.568c-1.124,1.045-1.687,2.437-1.687,4.173v22.134c0,1.736,0.563,3.128,1.687,4.173
			c1.125,1.045,2.594,1.567,4.41,1.567H530.15z"/>
		<path id="XMLID_85_" fill="#0F6C91" d="M535.771,388.998h7.102c2.17,0,3.896,0.643,5.179,1.923
			c1.282,1.283,1.924,3.029,1.924,5.239v23.614h-8.819c-2.17,0-4.015-0.77-5.534-2.307c-1.519-1.54-2.278-3.473-2.278-5.801v-3.077
			c0-1.854,0.464-3.412,1.391-4.677c0.927-1.262,2.081-2.15,3.462-2.663l7.339-2.721v-2.784c0-0.946-0.287-1.725-0.858-2.337
			c-0.573-0.61-1.313-0.918-2.219-0.918h-6.688V388.998z M537.547,409.003v3.313c0,1.066,0.394,1.974,1.184,2.723
			c0.788,0.749,1.736,1.124,2.841,1.124h3.965v-13.909l-5.209,1.954c-1.026,0.395-1.746,0.927-2.159,1.598
			C537.754,406.478,537.547,407.544,537.547,409.003z"/>
		<path id="XMLID_88_" fill="#0F6C91" d="M567.908,388.584v3.491c-1.026,0-3.255,0.83-6.688,2.485v25.214h-4.735v-30.776h3.669
			l0.533,2.189c2.407-1.184,4.063-1.912,4.972-2.189C566.566,388.723,567.317,388.584,567.908,388.584z"/>
		<path id="XMLID_90_" fill="#0F6C91" d="M588.563,412.258c0,2.485-0.761,4.43-2.278,5.828c-1.52,1.401-3.661,2.102-6.422,2.102
			s-4.902-0.701-6.421-2.102c-1.519-1.399-2.278-3.343-2.278-5.828v-15.744c0-2.485,0.759-4.427,2.278-5.828s3.66-2.102,6.421-2.102
			s4.902,0.701,6.422,2.102c1.518,1.401,2.278,3.343,2.278,5.828V412.258z M575.779,412.258c0,1.38,0.364,2.437,1.095,3.165
			c0.729,0.731,1.726,1.096,2.988,1.096c1.262,0,2.259-0.365,2.989-1.096c0.729-0.728,1.095-1.785,1.095-3.165v-15.744
			c0-1.38-0.365-2.434-1.095-3.165c-0.731-0.731-1.727-1.096-2.989-1.096c-1.262,0-2.259,0.365-2.988,1.096
			c-0.731,0.731-1.095,1.785-1.095,3.165V412.258z"/>
		<path id="XMLID_93_" fill="#0F6C91" d="M594.539,419.774v-41.43h4.735v41.43H594.539z"/>
		<path id="XMLID_95_" fill="#0F6C91" d="M606.318,383.967v-4.735h4.735v4.735H606.318z M606.318,419.774v-30.776h4.735v30.776
			H606.318z"/>
		<path id="XMLID_98_" fill="#0F6C91" d="M618.155,388.998h3.669l0.533,1.715c0.553-0.157,1.43-0.414,2.634-0.768
			c1.202-0.356,2.061-0.592,2.574-0.712c1.539-0.432,2.929-0.65,4.172-0.65c1.244,0,2.2,0.492,2.871,1.48
			c0.67,0.987,1.006,2.268,1.006,3.847v25.863h-4.735v-24.326c0-1.142-0.08-1.942-0.237-2.395c-0.158-0.453-0.473-0.682-0.947-0.682
			s-2.743,0.631-6.806,1.893v25.51h-4.735V388.998z"/>
		<path id="XMLID_100_" fill="#0F6C91" d="M643.071,388.998h7.102c2.17,0,3.896,0.643,5.179,1.923
			c1.281,1.283,1.924,3.029,1.924,5.239v23.614h-8.819c-2.17,0-4.015-0.77-5.534-2.307c-1.519-1.54-2.278-3.473-2.278-5.801v-3.077
			c0-1.854,0.464-3.412,1.391-4.677c0.927-1.262,2.081-2.15,3.462-2.663l7.339-2.721v-2.784c0-0.946-0.287-1.725-0.858-2.337
			c-0.573-0.61-1.313-0.918-2.219-0.918h-6.688V388.998z M644.847,409.003v3.313c0,1.066,0.394,1.974,1.184,2.723
			c0.788,0.749,1.736,1.124,2.841,1.124h3.965v-13.909l-5.209,1.954c-1.026,0.395-1.746,0.927-2.159,1.598
			C645.054,406.478,644.847,407.544,644.847,409.003z"/>
		<path id="XMLID_103_" fill="#0F6C91" d="M684.915,378.345h4.735v41.43h-9.174c-2.485,0-4.497-0.731-6.036-2.189
			s-2.307-3.412-2.307-5.861v-14.736c0-1.697,0.462-3.137,1.389-4.321c0.927-1.184,2.081-1.991,3.463-2.425l7.93-2.784V378.345z
			 M684.915,416.223v-24.858l-5.267,1.776c-1.026,0.317-1.745,0.818-2.162,1.51c-0.414,0.691-0.62,1.785-0.62,3.285v13.788
			c0,1.422,0.414,2.527,1.241,3.315c0.83,0.791,1.954,1.184,3.373,1.184H684.915z"/>
		<path id="XMLID_106_" fill="#0F6C91" d="M703.618,416.223h6.39v3.551h-7.102c-2.169,0-3.896-0.652-5.179-1.954
			c-1.281-1.302-1.924-3.056-1.924-5.267V396.81c0-2.564,0.712-4.575,2.132-6.036c1.419-1.459,3.53-2.189,6.332-2.189
			s4.904,0.731,6.305,2.189c1.399,1.461,2.099,3.473,2.099,6.036v2.723c0,2.841-1.715,4.735-5.149,5.68l-6.984,1.954v5.801
			c0,0.948,0.287,1.727,0.86,2.337C701.97,415.918,702.71,416.223,703.618,416.223z M700.539,395.804v7.634
			c0.909-0.275,1.875-0.541,2.901-0.798c1.024-0.257,1.725-0.444,2.102-0.562c0.375-0.12,0.788-0.257,1.242-0.416
			c0.453-0.157,0.719-0.354,0.8-0.592c0.236-0.629,0.354-1.302,0.354-2.011v-3.255c0-2.446-1.223-3.669-3.669-3.669
			c-1.105,0-2.002,0.317-2.693,0.946C700.886,393.714,700.539,394.621,700.539,395.804z"/>
		<path id="XMLID_111_" fill="#0F6C91" d="M717.467,419.774v-41.43h4.735v41.43H717.467z"/>
		<path id="XMLID_113_" fill="#0F6C91" d="M535.832,471.857h-7.457l-10.949-37.643v37.643h-5.209v-41.43h8.7l9.648,35.807v-35.807
			h5.268V471.857z"/>
		<path id="XMLID_115_" fill="#0F6C91" d="M559.446,464.341c0,2.485-0.761,4.43-2.278,5.828c-1.52,1.401-3.661,2.102-6.423,2.102
			c-2.762,0-4.902-0.701-6.421-2.102c-1.519-1.399-2.278-3.343-2.278-5.828v-15.744c0-2.485,0.76-4.427,2.278-5.828
			s3.66-2.102,6.421-2.102c2.762,0,4.902,0.701,6.423,2.102c1.518,1.401,2.278,3.343,2.278,5.828V464.341z M546.662,464.341
			c0,1.38,0.364,2.437,1.095,3.165c0.729,0.731,1.726,1.096,2.988,1.096c1.262,0,2.259-0.365,2.989-1.096
			c0.729-0.728,1.095-1.785,1.095-3.165v-15.744c0-1.38-0.365-2.434-1.095-3.165c-0.731-0.731-1.727-1.096-2.989-1.096
			c-1.262,0-2.259,0.365-2.988,1.096c-0.731,0.731-1.095,1.785-1.095,3.165V464.341z"/>
		<path id="XMLID_118_" fill="#0F6C91" d="M576.786,440.667v3.491c-1.026,0-3.255,0.83-6.688,2.485v25.214h-4.735v-30.776h3.669
			l0.533,2.189c2.407-1.184,4.063-1.912,4.972-2.189C575.444,440.806,576.194,440.667,576.786,440.667z"/>
		<path id="XMLID_120_" fill="#0F6C91" d="M587.497,444.632v20.419c0,0.948,0.267,1.727,0.799,2.337
			c0.533,0.613,1.253,0.918,2.16,0.918h1.776v3.551h-2.426c-2.171,0-3.886-0.652-5.149-1.954c-1.263-1.302-1.895-3.056-1.895-5.267
			v-20.005h-3.551v-3.551h3.551v-8.938l4.735-1.776v10.713h4.735v3.551H587.497z"/>
		<path id="XMLID_122_" fill="#0F6C91" d="M603.832,468.306h6.393v3.551h-7.102c-2.171,0-3.897-0.652-5.179-1.954
			c-1.283-1.302-1.924-3.056-1.924-5.267v-15.744c0-2.564,0.71-4.575,2.13-6.036c1.421-1.459,3.53-2.189,6.332-2.189
			s4.902,0.731,6.303,2.189c1.4,1.461,2.102,3.473,2.102,6.036v2.723c0,2.841-1.717,4.735-5.15,5.68l-6.983,1.954v5.801
			c0,0.948,0.286,1.727,0.858,2.337C602.185,468.001,602.925,468.306,603.832,468.306z M600.755,447.887v7.634
			c0.907-0.275,1.874-0.541,2.9-0.798c1.025-0.257,1.725-0.444,2.1-0.562c0.375-0.12,0.79-0.257,1.243-0.416
			c0.453-0.157,0.72-0.354,0.8-0.592c0.236-0.629,0.355-1.302,0.355-2.011v-3.255c0-2.446-1.224-3.669-3.67-3.669
			c-1.105,0-2.002,0.317-2.692,0.946C601.099,445.797,600.755,446.704,600.755,447.887z"/>
	</g>
	<g id="XMLID_11_">
		<path id="XMLID_21_" fill="#899B92" d="M498.308,223.799v52.329h-14.66V156.811h31.535c20.454,0,30.682,10.568,30.682,31.705
			c0,7.955-1.533,14.888-4.603,20.795c-3.068,5.91-7.442,10.001-13.125,12.273l23.695,54.545h-14.66l-23.182-52.329H498.308z
			 M498.648,168.06v44.488h12.103c6.478,0,11.506-2.243,15.085-6.733c3.579-4.487,5.371-10.253,5.371-17.3
			c0-13.637-6.82-20.455-20.456-20.455H498.648z"/>
		<path id="XMLID_47_" fill="#899B92" d="M624.442,246.639c0,9.66-2.786,17.189-8.351,22.585
			c-5.569,5.398-13.666,8.096-24.291,8.096s-18.722-2.698-24.289-8.096c-5.569-5.396-8.351-12.925-8.351-22.585v-60.34
			c0-9.658,2.781-17.187,8.351-22.585c5.567-5.396,13.663-8.096,24.289-8.096s18.722,2.7,24.291,8.096
			c5.565,5.398,8.351,12.927,8.351,22.585V246.639z M574.16,249.537c0,5.228,1.674,9.289,5.028,12.187
			c3.35,2.898,7.525,4.346,12.528,4.346c4.998,0,9.204-1.448,12.612-4.346c3.41-2.898,5.114-6.959,5.114-12.187v-66.136
			c0-5.226-1.704-9.289-5.114-12.187c-3.408-2.898-7.613-4.346-12.612-4.346c-5.003,0-9.178,1.448-12.528,4.346
			c-3.355,2.898-5.028,6.961-5.028,12.187V249.537z"/>
		<path id="XMLID_50_" fill="#899B92" d="M704.384,246.639c0,9.66-2.786,17.189-8.351,22.585
			c-5.569,5.398-13.666,8.096-24.291,8.096s-18.722-2.698-24.289-8.096c-5.569-5.396-8.351-12.925-8.351-22.585v-60.34
			c0-9.658,2.781-17.187,8.351-22.585c5.567-5.396,13.663-8.096,24.289-8.096s18.722,2.7,24.291,8.096
			c5.565,5.398,8.351,12.927,8.351,22.585V246.639z M654.102,249.537c0,5.228,1.674,9.289,5.028,12.187
			c3.35,2.898,7.525,4.346,12.528,4.346c4.998,0,9.204-1.448,12.612-4.346c3.41-2.898,5.114-6.959,5.114-12.187v-66.136
			c0-5.226-1.704-9.289-5.114-12.187c-3.408-2.898-7.613-4.346-12.612-4.346c-5.003,0-9.178,1.448-12.528,4.346
			c-3.355,2.898-5.028,6.961-5.028,12.187V249.537z"/>
		<path id="XMLID_53_" fill="#899B92" d="M736.258,276.128V168.06h-23.864v-11.25h62.727v11.25h-23.864v108.067H736.258z"/>
		<path id="XMLID_55_" fill="#899B92" d="M818.16,259.082c2.897-3.861,4.346-8.352,4.346-13.466c0-5.113-0.939-9.459-2.814-13.039
			c-1.875-3.58-4.235-6.419-7.074-8.523c-2.841-2.102-5.909-4.402-9.204-6.903c-3.297-2.498-6.365-4.914-9.204-7.244
			c-2.841-2.327-5.2-5.48-7.074-9.459c-1.875-3.977-2.811-8.523-2.811-13.637c0-9.089,2.726-16.364,8.182-21.818
			c5.454-5.455,13.009-8.182,22.668-8.182h13.807v11.25h-13.125c-5.454,0-9.604,1.763-12.443,5.284
			c-2.841,3.523-4.261,7.33-4.261,11.421c0,4.091,0.936,7.614,2.811,10.568c1.875,2.956,4.233,5.398,7.074,7.329
			c2.839,1.934,5.937,4.205,9.289,6.819c3.352,2.615,6.448,5.257,9.289,7.925c2.841,2.671,5.2,6.28,7.074,10.824
			c1.875,4.546,2.814,9.716,2.814,15.511c0,10.683-3.043,18.751-9.121,24.205c-6.08,5.455-14.403,8.182-24.971,8.182h-17.897v-11.25
			h18.579C810.575,264.878,815.261,262.947,818.16,259.082z"/>
	</g>
	<g id="XMLID_8_">
		<path id="XMLID_27_" fill="#BCBC29" d="M552.664,144.737h-21.478L499.654,36.328v108.408h-15V25.419h25.057l27.782,103.124V25.419
			h15.171V144.737z"/>
		<path id="XMLID_58_" fill="#BCBC29" d="M568.003,144.737V25.419h51.988V37.01h-36.988v38.181h30v11.591h-30v46.363h38.692v11.591
			H568.003z"/>
		<path id="XMLID_60_" fill="#BCBC29" d="M683.398,56.442h16.024l16.022,73.806l20.114-104.828h14.829l-24.714,119.317h-20.114
			l-13.978-71.42l-13.807,71.42H657.66L632.434,25.419h14.829l20.285,104.828L683.398,56.442z"/>
	</g>
</g>
</svg>
